<?xml version="1.0" encoding="UTF-8"?>
<svg width="916px" height="616px" viewBox="0 0 916 616" version="1.1" xmlns="http://www.w3.org/2000/svg" xmlns:xlink="http://www.w3.org/1999/xlink">
    <!-- Generator: Sketch 54.1 (76490) - https://sketchapp.com -->
    <title>Group 5</title>
    <desc>Created with Sketch.</desc>
    <defs>
        <rect id="path-1" x="0" y="0" width="900" height="600" rx="4"></rect>
        <filter x="-1.3%" y="-2.0%" width="102.7%" height="104.0%" filterUnits="objectBoundingBox" id="filter-2">
            <feMorphology radius="2" operator="dilate" in="SourceAlpha" result="shadowSpreadOuter1"></feMorphology>
            <feOffset dx="0" dy="0" in="shadowSpreadOuter1" result="shadowOffsetOuter1"></feOffset>
            <feGaussianBlur stdDeviation="2" in="shadowOffsetOuter1" result="shadowBlurOuter1"></feGaussianBlur>
            <feColorMatrix values="0 0 0 0 0   0 0 0 0 0   0 0 0 0 0  0 0 0 0.5 0" type="matrix" in="shadowBlurOuter1"></feColorMatrix>
        </filter>
        <polygon id="path-3" points="45 171.425 850 171.425 850 172.425 45 172.425"></polygon>
        <mask id="mask-4" maskContentUnits="userSpaceOnUse" maskUnits="objectBoundingBox" x="0" y="0" width="805" height="1" fill="white">
            <use xlink:href="#path-3"></use>
        </mask>
    </defs>
    <g id="STORYBOARD" stroke="none" stroke-width="1" fill="none" fill-rule="evenodd">
        <g id="7-BS:-Project-overview" transform="translate(-908.000000, -248.000000)">
            <g id="Group-5" transform="translate(916.000000, 256.000000)">
                <g id="Rectangle">
                    <use fill="black" fill-opacity="1" filter="url(#filter-2)" xlink:href="#path-1"></use>
                    <use fill="#2E2F30" fill-rule="evenodd" xlink:href="#path-1"></use>
                </g>
                <g id="Group-4" transform="translate(21.000000, 86.000000)">
                    <rect id="Rectangle" fill-opacity="0" fill="#FFFFFF" x="36" y="2" width="812" height="405"></rect>
                    <rect id="Container" x="790" y="3" width="58" height="402.32"></rect>
                    <text id="-Number" font-family="FiraSans-Regular, Fira Sans" font-size="13" font-weight="normal" line-spacing="20" fill="#FFFFFF">
                        <tspan x="790" y="421">20/12</tspan>
                    </text>
                    <g id="4.Elements-/.misc-/-Border-/-0px-/-#1" transform="translate(847.000000, 3.000000)" stroke="#292C38">
                        <rect id="Rectangle" x="0.5" y="0.5" width="1" height="403"></rect>
                    </g>
                    <rect id="Container" x="732" y="3" width="58" height="402.32"></rect>
                    <text id="-Number" font-family="FiraSans-Regular, Fira Sans" font-size="13" font-weight="normal" line-spacing="20" fill="#FFFFFF">
                        <tspan x="732" y="421">19/12</tspan>
                    </text>
                    <g id="4.Elements-/.misc-/-Border-/-0px-/-#1" transform="translate(789.000000, 3.000000)" stroke="#292C38">
                        <rect id="Rectangle" x="0.5" y="0.5" width="1" height="403"></rect>
                    </g>
                    <rect id="Container" x="674" y="3" width="58" height="402.32"></rect>
                    <text id="-Number" font-family="FiraSans-Regular, Fira Sans" font-size="13" font-weight="normal" line-spacing="20" fill="#FFFFFF">
                        <tspan x="674" y="421">18/12</tspan>
                    </text>
                    <g id="4.Elements-/.misc-/-Border-/-0px-/-#1" transform="translate(731.000000, 3.000000)" stroke="#292C38">
                        <rect id="Rectangle" x="0.5" y="0.5" width="1" height="403"></rect>
                    </g>
                    <rect id="Container" x="616" y="3" width="58" height="402.32"></rect>
                    <text id="-Number" font-family="FiraSans-Regular, Fira Sans" font-size="13" font-weight="normal" line-spacing="20" fill="#FFFFFF">
                        <tspan x="616" y="421">17/12</tspan>
                    </text>
                    <g id="4.Elements-/.misc-/-Border-/-0px-/-#1" transform="translate(673.000000, 3.000000)" stroke="#292C38">
                        <rect id="Rectangle" x="0.5" y="0.5" width="1" height="403"></rect>
                    </g>
                    <rect id="Container" x="558" y="3" width="58" height="402.32"></rect>
                    <text id="-Number" font-family="FiraSans-Regular, Fira Sans" font-size="13" font-weight="normal" line-spacing="20" fill="#FFFFFF">
                        <tspan x="558" y="421">16/12</tspan>
                    </text>
                    <g id="4.Elements-/.misc-/-Border-/-0px-/-#1" transform="translate(615.000000, 3.000000)" stroke="#292C38">
                        <rect id="Rectangle" x="0.5" y="0.5" width="1" height="403"></rect>
                    </g>
                    <rect id="Container" x="500" y="3" width="58" height="402.32"></rect>
                    <text id="-Number" font-family="FiraSans-Regular, Fira Sans" font-size="13" font-weight="normal" line-spacing="20" fill="#FFFFFF">
                        <tspan x="500" y="421">15/12</tspan>
                    </text>
                    <g id="4.Elements-/.misc-/-Border-/-0px-/-#1" transform="translate(557.000000, 3.000000)" stroke="#292C38">
                        <rect id="Rectangle" x="0.5" y="0.5" width="1" height="403"></rect>
                    </g>
                    <rect id="Container" x="442" y="3" width="58" height="402.32"></rect>
                    <text id="-Number" font-family="FiraSans-Regular, Fira Sans" font-size="13" font-weight="normal" line-spacing="20" fill="#FFFFFF">
                        <tspan x="442" y="421">14/12</tspan>
                    </text>
                    <g id="4.Elements-/.misc-/-Border-/-0px-/-#1" transform="translate(499.000000, 3.000000)" stroke="#292C38">
                        <rect id="Rectangle" x="0.5" y="0.5" width="1" height="403"></rect>
                    </g>
                    <rect id="Container" x="384" y="3" width="58" height="402.32"></rect>
                    <text id="-Number" font-family="FiraSans-Regular, Fira Sans" font-size="13" font-weight="normal" line-spacing="20" fill="#FFFFFF">
                        <tspan x="384" y="421">13/12</tspan>
                    </text>
                    <g id="4.Elements-/.misc-/-Border-/-0px-/-#1" transform="translate(441.000000, 3.000000)" stroke="#292C38">
                        <rect id="Rectangle" x="0.5" y="0.5" width="1" height="403"></rect>
                    </g>
                    <rect id="Container" x="326" y="3" width="58" height="402.32"></rect>
                    <text id="-Number" font-family="FiraSans-Regular, Fira Sans" font-size="13" font-weight="normal" line-spacing="20" fill="#FFFFFF">
                        <tspan x="326" y="421">12/12</tspan>
                    </text>
                    <g id="4.Elements-/.misc-/-Border-/-0px-/-#1" transform="translate(383.000000, 3.000000)" stroke="#292C38">
                        <rect id="Rectangle" x="0.5" y="0.5" width="1" height="403"></rect>
                    </g>
                    <rect id="Container" x="268" y="3" width="58" height="402.32"></rect>
                    <text id="-Number" font-family="FiraSans-Regular, Fira Sans" font-size="13" font-weight="normal" line-spacing="20" fill="#FFFFFF">
                        <tspan x="268" y="421">11/12</tspan>
                    </text>
                    <g id="4.Elements-/.misc-/-Border-/-0px-/-#1" transform="translate(325.000000, 3.000000)" stroke="#292C38">
                        <rect id="Rectangle" x="0.5" y="0.5" width="1" height="403"></rect>
                    </g>
                    <rect id="Container" x="210" y="3" width="58" height="402.32"></rect>
                    <text id="-Number" font-family="FiraSans-Regular, Fira Sans" font-size="13" font-weight="normal" line-spacing="20" fill="#FFFFFF">
                        <tspan x="210" y="421">10/12</tspan>
                    </text>
                    <g id="4.Elements-/.misc-/-Border-/-0px-/-#1" transform="translate(210.000000, 3.000000)" stroke="#292C38">
                        <rect id="Rectangle" x="0.5" y="0.5" width="1" height="403"></rect>
                    </g>
                    <g id="4.Elements-/.misc-/-Border-/-0px-/-#1" transform="translate(267.000000, 3.000000)" stroke="#292C38">
                        <rect id="Rectangle" x="0.5" y="0.5" width="1" height="403"></rect>
                    </g>
                    <rect id="Container" x="152" y="3" width="58" height="402.32"></rect>
                    <text id="-Number" font-family="FiraSans-Regular, Fira Sans" font-size="13" font-weight="normal" line-spacing="20" fill="#FFFFFF">
                        <tspan x="152" y="421">9/12</tspan>
                    </text>
                    <g id="4.Elements-/.misc-/-Border-/-0px-/-#1" transform="translate(152.000000, 3.000000)" stroke="#292C38">
                        <rect id="Rectangle" x="0.5" y="0.5" width="1" height="403"></rect>
                    </g>
                    <g id="4.Elements-/.misc-/-Border-/-0px-/-#1" transform="translate(209.000000, 3.000000)" stroke="#292C38">
                        <rect id="Rectangle" x="0.5" y="0.5" width="1" height="403"></rect>
                    </g>
                    <rect id="Container" x="94" y="3" width="58" height="402.32"></rect>
                    <text id="-Number" font-family="FiraSans-Regular, Fira Sans" font-size="13" font-weight="normal" line-spacing="20" fill="#FFFFFF">
                        <tspan x="94" y="421">8/12</tspan>
                    </text>
                    <g id="4.Elements-/.misc-/-Border-/-0px-/-#1" transform="translate(151.000000, 3.000000)" stroke="#292C38">
                        <rect id="Rectangle" x="0.5" y="0.5" width="1" height="403"></rect>
                    </g>
                    <rect id="Container" x="36" y="3" width="58" height="402.32"></rect>
                    <text id="-Number" font-family="FiraSans-Regular, Fira Sans" font-size="13" font-weight="normal" line-spacing="20" fill="#FFFFFF">
                        <tspan x="36" y="421">7/12</tspan>
                    </text>
                    <g id="4.Elements-/.misc-/-Border-/-0px-/-#1" transform="translate(36.000000, 3.000000)" stroke="#292C38">
                        <rect id="Rectangle" x="0.5" y="0.5" width="1" height="403"></rect>
                    </g>
                    <g id="4.Elements-/.misc-/-Border-/-0px-/-#1" transform="translate(93.000000, 3.000000)" stroke="#292C38">
                        <rect id="Rectangle" x="0.5" y="0.5" width="1" height="403"></rect>
                    </g>
                    <text id="Text" font-family="FiraSans-Regular, Fira Sans" font-size="13" font-weight="normal" line-spacing="20" fill="#FFFFFF">
                        <tspan x="0" y="316">100</tspan>
                    </text>
                    <g id="4.Elements-/.misc-/-Border-/-0px-/-#1" transform="translate(36.000000, 406.000000)" stroke="#292C38">
                        <rect id="Rectangle" x="0.5" y="0.5" width="811" height="1"></rect>
                    </g>
                    <g id="4.Elements-/.misc-/-Border-/-0px-/-#1" transform="translate(36.000000, 306.000000)" stroke="#292C38">
                        <rect id="Rectangle" x="0.5" y="0.5" width="811" height="1"></rect>
                    </g>
                    <text id="Text" font-family="FiraSans-Regular, Fira Sans" font-size="13" font-weight="normal" line-spacing="20" fill="#FFFFFF">
                        <tspan x="0" y="215">200</tspan>
                    </text>
                    <g id="4.Elements-/.misc-/-Border-/-0px-/-#1" transform="translate(36.000000, 205.000000)" stroke="#292C38">
                        <rect id="Rectangle" x="0.5" y="0.5" width="811" height="1"></rect>
                    </g>
                    <text id="Text" font-family="FiraSans-Regular, Fira Sans" font-size="13" font-weight="normal" line-spacing="20" fill="#FFFFFF">
                        <tspan x="0" y="113">300</tspan>
                    </text>
                    <g id="4.Elements-/.misc-/-Border-/-0px-/-#1" transform="translate(36.000000, 103.000000)" stroke="#292C38">
                        <rect id="Rectangle" x="0.5" y="0.5" width="811" height="1"></rect>
                    </g>
                    <text id="Text" font-family="FiraSans-Regular, Fira Sans" font-size="13" font-weight="normal" line-spacing="20" fill="#FFFFFF">
                        <tspan x="0" y="12">400</tspan>
                    </text>
                    <g id="4.Elements-/.misc-/-Border-/-0px-/-#1" transform="translate(36.000000, 2.000000)" stroke="#292C38">
                        <rect id="Rectangle" x="0.5" y="0.5" width="811" height="1"></rect>
                    </g>
                    <g id="Shape" transform="translate(60.000000, 151.000000)">
                        <g transform="translate(746.414141, 116.363636)">
                            <polygon id="Rectangle" fill="#C02464" points="0 52.1630094 20 52.1630094 20 60.9905956 0 60.9905956"></polygon>
                            <polygon id="Rectangle-" fill="#F43469" points="0 60.9905956 20 60.9905956 20 90.6833856 0 90.6833856"></polygon>
                            <polygon id="Rectangle-" fill="#F7517F" points="0 89.8808777 20 89.8808777 20 138.833856 0 138.833856"></polygon>
                            <path d="M10,0 L10,0 C15.5228475,-1.01453063e-15 20,4.4771525 20,10 L20,52.1630094 L0,52.1630094 L-1.77635684e-15,10 C-2.45271059e-15,4.4771525 4.4771525,1.01453063e-15 10,0 Z" id="Rectangle-" fill="#A71E4E"></path>
                        </g>
                        <g transform="translate(688.888889, 89.078370)">
                            <polygon id="Rectangle" fill="#C02464" points="0 61.7931034 20 61.7931034 20 73.0282132 0 73.0282132"></polygon>
                            <polygon id="Rectangle-" fill="#F43469" points="0 73.0282132 20 73.0282132 20 108.338558 0 108.338558"></polygon>
                            <polygon id="Rectangle-" fill="#F7517F" points="0 108.338558 20 108.338558 20 166.119122 0 166.119122"></polygon>
                            <path d="M10,0 L10,0 C15.5228475,-1.01453063e-15 20,4.4771525 20,10 L20,61.7931034 L0,61.7931034 L0,10 C-6.76353751e-16,4.4771525 4.4771525,1.01453063e-15 10,0 Z" id="Rectangle-" fill="#A71E4E"></path>
                        </g>
                        <g transform="translate(631.363636, 0.000000)">
                            <polygon id="Rectangle" fill="#C02464" points="0 95.2082952 20 95.2082952 20 111.894285 0 111.894285"></polygon>
                            <polygon id="Rectangle-" fill="#F43469" points="0 111.894285 20 111.894285 20 165.87837 0 165.87837"></polygon>
                            <polygon id="Rectangle-" fill="#F7517F" points="0 165.87837 20 165.87837 20 255.197492 0 255.197492"></polygon>
                            <path d="M10,0 L10,0 C15.5228475,-1.01453063e-15 20,4.4771525 20,10 L20,95.2082952 L0,95.2082952 L0,10 C-6.76353751e-16,4.4771525 4.4771525,1.01453063e-15 10,0 Z" id="Rectangle-" fill="#A71E4E"></path>
                        </g>
                        <g transform="translate(573.838384, 67.410658)">
                            <polygon id="Rectangle" fill="#C02464" points="0 69.8181818 20 69.8181818 20 82.6583072 0 82.6583072"></polygon>
                            <polygon id="Rectangle-" fill="#F43469" points="0 82.6583072 20 82.6583072 20 121.981191 0 121.981191"></polygon>
                            <polygon id="Rectangle-" fill="#F7517F" points="0 121.981191 20 121.981191 20 187.786834 0 187.786834"></polygon>
                            <path d="M10,0 L10,0 C15.5228475,-1.01453063e-15 20,4.4771525 20,10 L20,69.8181818 L0,69.8181818 L0,10 C-6.76353751e-16,4.4771525 4.4771525,1.01453063e-15 10,0 Z" id="Rectangle-" fill="#A71E4E"></path>
                        </g>
                        <g transform="translate(516.313131, 49.755486)">
                            <polygon id="Rectangle" fill="#C02464" points="0 77.0407524 20 77.0407524 20 90.6833856 0 90.6833856"></polygon>
                            <polygon id="Rectangle-" fill="#F43469" points="0 89.8808777 20 89.8808777 20 133.216301 0 133.216301"></polygon>
                            <polygon id="Rectangle-" fill="#F7517F" points="0 133.216301 20 133.216301 20 205.442006 0 205.442006"></polygon>
                            <path d="M10,0 L10,0 C15.5228475,-1.01453063e-15 20,4.4771525 20,10 L20,77.0407524 L0,77.0407524 L0,10 C-6.76353751e-16,4.4771525 4.4771525,1.01453063e-15 10,0 Z" id="Rectangle-" fill="#A71E4E"></path>
                        </g>
                        <g transform="translate(458.787879, 147.661442)">
                            <polygon id="Rectangle" fill="#C02464" points="0 40.1253918 20 40.1253918 20 47.3479624 0 47.3479624"></polygon>
                            <polygon id="Rectangle-" fill="#F43469" points="0 47.3479624 20 47.3479624 20 69.8181818 0 69.8181818"></polygon>
                            <polygon id="Rectangle-" fill="#F7517F" points="0 69.8181818 20 69.8181818 20 107.53605 0 107.53605"></polygon>
                            <path d="M10,0 L10,0 C15.5228475,-1.01453063e-15 20,4.4771525 20,10 L20,40.1253918 L0,40.1253918 L1.77635684e-15,10 C1.10000309e-15,4.4771525 4.4771525,1.01453063e-15 10,0 Z" id="Rectangle-" fill="#A71E4E"></path>
                        </g>
                        <g transform="translate(401.262626, 80.250784)">
                            <polygon id="Rectangle" fill="#C02464" points="0 65.0031348 20 65.0031348 20 77.0407524 0 77.0407524"></polygon>
                            <polygon id="Rectangle-" fill="#F43469" points="0 77.0407524 20 77.0407524 20 113.956113 0 113.956113"></polygon>
                            <polygon id="Rectangle-" fill="#F7517F" points="0 113.956113 20 113.956113 20 174.946708 0 174.946708"></polygon>
                            <path d="M10,0 L10,0 C15.5228475,-1.01453063e-15 20,4.4771525 20,10 L20,65.0031348 L0,65.0031348 L-1.77635684e-15,10 C-2.45271059e-15,4.4771525 4.4771525,1.01453063e-15 10,0 Z" id="Rectangle-" fill="#A71E4E"></path>
                        </g>
                        <g transform="translate(343.737374, 0.000000)">
                            <polygon id="Rectangle" fill="#C02464" points="0 95.2082952 20 95.2082952 20 111.894285 0 111.894285"></polygon>
                            <polygon id="Rectangle-" fill="#F43469" points="0 111.894285 20 111.894285 20 165.87837 0 165.87837"></polygon>
                            <polygon id="Rectangle-" fill="#F7517F" points="0 165.87837 20 165.87837 20 255.197492 0 255.197492"></polygon>
                            <path d="M10,0 L10,0 C15.5228475,-1.01453063e-15 20,4.4771525 20,10 L20,95.2082952 L0,95.2082952 L0,10 C-6.76353751e-16,4.4771525 4.4771525,1.01453063e-15 10,0 Z" id="Rectangle-" fill="#A71E4E"></path>
                        </g>
                        <g transform="translate(286.212121, 49.755486)">
                            <polygon id="Rectangle" fill="#C02464" points="0 77.0407524 20 77.0407524 20 90.6833856 0 90.6833856"></polygon>
                            <polygon id="Rectangle-" fill="#F43469" points="0 89.8808777 20 89.8808777 20 133.216301 0 133.216301"></polygon>
                            <polygon id="Rectangle-" fill="#F7517F" points="0 133.216301 20 133.216301 20 205.442006 0 205.442006"></polygon>
                            <path d="M10,0 L10,0 C15.5228475,-1.01453063e-15 20,4.4771525 20,10 L20,77.0407524 L0,77.0407524 L0,10 C-6.76353751e-16,4.4771525 4.4771525,1.01453063e-15 10,0 Z" id="Rectangle-" fill="#A71E4E"></path>
                        </g>
                        <g transform="translate(228.686869, 102.721003)">
                            <polygon id="Rectangle" fill="#C02464" points="0 56.9780564 20 56.9780564 20 66.6081505 0 66.6081505"></polygon>
                            <polygon id="Rectangle-" fill="#F43469" points="0 66.6081505 20 66.6081505 20 99.5109718 0 99.5109718"></polygon>
                            <polygon id="Rectangle-" fill="#F7517F" points="0 99.5109718 20 99.5109718 20 153.278997 0 153.278997"></polygon>
                            <path d="M10,0 L10,0 C15.5228475,-1.01453063e-15 20,4.4771525 20,10 L20,56.9780564 L0,56.9780564 L0,10 C-6.76353751e-16,4.4771525 4.4771525,1.01453063e-15 10,0 Z" id="Rectangle-" fill="#A71E4E"></path>
                        </g>
                        <g transform="translate(171.161616, 0.000000)">
                            <polygon id="Rectangle" fill="#C02464" points="0 95.2082952 20 95.2082952 20 111.894285 0 111.894285"></polygon>
                            <polygon id="Rectangle-" fill="#F43469" points="0 111.894285 20 111.894285 20 165.87837 0 165.87837"></polygon>
                            <polygon id="Rectangle-" fill="#F7517F" points="0 165.87837 20 165.87837 20 255.197492 0 255.197492"></polygon>
                            <path d="M10,0 L10,0 C15.5228475,-1.01453063e-15 20,4.4771525 20,10 L20,95.2082952 L0,95.2082952 L0,10 C-6.76353751e-16,4.4771525 4.4771525,1.01453063e-15 10,0 Z" id="Rectangle-" fill="#A71E4E"></path>
                        </g>
                        <g transform="translate(113.636364, 40.125392)">
                            <rect id="Rectangle" fill="#C02464" x="0" y="80.2507837" width="20" height="14.4451411"></rect>
                            <polygon id="Rectangle-" fill="#F43469" points="0 94.6959248 20 94.6959248 20 140.438871 0 140.438871"></polygon>
                            <polygon id="Rectangle-" fill="#F7517F" points="0 139.636364 20 139.636364 20 215.0721 0 215.0721"></polygon>
                            <path d="M10,0 L10,0 C15.5228475,-1.01453063e-15 20,4.4771525 20,10 L20,80.2507837 L0,80.2507837 L1.77635684e-15,10 C1.10000309e-15,4.4771525 4.4771525,1.01453063e-15 10,0 Z" id="Rectangle-" fill="#A71E4E"></path>
                        </g>
                        <g transform="translate(56.111111, 0.000000)">
                            <polygon id="Rectangle" fill="#C02464" points="0 95.2082952 20 95.2082952 20 111.894285 0 111.894285"></polygon>
                            <polygon id="Rectangle-" fill="#F43469" points="0 111.894285 20 111.894285 20 165.87837 0 165.87837"></polygon>
                            <polygon id="Rectangle-" fill="#F7517F" points="0 165.87837 20 165.87837 20 255.197492 0 255.197492"></polygon>
                            <path d="M10,0 L10,0 C15.5228475,-1.01453063e-15 20,4.4771525 20,10 L20,95.2082952 L0,95.2082952 L0,10 C-6.76353751e-16,4.4771525 4.4771525,1.01453063e-15 10,0 Z" id="Rectangle-" fill="#A71E4E"></path>
                        </g>
                        <g transform="translate(-1.414141, 49.755486)">
                            <polygon id="Rectangle" fill="#C02464" points="0 77.0407524 20 77.0407524 20 90.6833856 0 90.6833856"></polygon>
                            <polygon id="Rectangle-" fill="#F43469" points="0 89.8808777 20 89.8808777 20 133.216301 0 133.216301"></polygon>
                            <polygon id="Rectangle-" fill="#F7517F" points="0 133.216301 20 133.216301 20 205.442006 0 205.442006"></polygon>
                            <path d="M10,0 L10,0 C15.5228475,-1.01453063e-15 20,4.4771525 20,10 L20,77.0407524 L0,77.0407524 L0,10 C-6.76353751e-16,4.4771525 4.4771525,1.01453063e-15 10,0 Z" id="Rectangle-" fill="#A71E4E"></path>
                        </g>
                    </g>
                    <use id="Line" stroke="#7E8490" mask="url(#mask-4)" stroke-width="2" stroke-dasharray="4,16" xlink:href="#path-3"></use>
                    <g id="Number" transform="translate(0.000000, 162.000000)" fill="#FFFFFF" font-family="FiraSans-Regular, Fira Sans" font-size="13" font-weight="normal" line-spacing="20">
                        <text>
                            <tspan x="5.081" y="12">234</tspan>
                        </text>
                    </g>
                </g>
                <text id="Histagram_spec_1" font-family="FiraSans-Regular, Fira Sans" font-size="19" font-weight="normal" line-spacing="26" fill="#FFFFFF">
                    <tspan x="24" y="36">Histagram_spec_1</tspan>
                </text>
            </g>
        </g>
    </g>
</svg>