<?xml version="1.0" encoding="utf-8"?>
<!-- Generator: Adobe Illustrator 22.0.1, SVG Export Plug-In . SVG Version: 6.00 Build 0)  -->
<svg version="1.1" xmlns="http://www.w3.org/2000/svg" xmlns:xlink="http://www.w3.org/1999/xlink" x="0px" y="0px"
	 viewBox="0 0 22 22" enable-background="new 0 0 22 22" xml:space="preserve">
<g id="Minus">
</g>
<g id="Plus">
</g>
<g id="Arrow_Up">
</g>
<g id="Arrow_Right">
</g>
<g id="Arrow_Left">
</g>
<g id="Arrow_Down">
</g>
<g id="Hashtag">
</g>
<g id="Emoji">
</g>
<g id="Pulsing_x0D__Location_marker">
</g>
<g id="General__x0D_Location_Marker">
</g>
<g id="_x40_Mention">
	<g id="mention" transform="translate(1029.000000, 733.000000)">
		<path id="Shape_33_" fill="#3A414D" d="M-1008-722.3c-0.1,1.8-0.6,3.2-1.5,4.2c-0.9,1-2.1,1.5-3.7,1.5c-1.5,0-2.5-0.5-2.9-1.6
			c-0.4,0.5-0.9,0.9-1.4,1.2c-0.5,0.3-1.1,0.4-1.7,0.4c-1.2,0-2.1-0.4-2.7-1.3c-0.6-0.9-0.8-2-0.7-3.4c0.1-1.2,0.5-2.2,1-3.1
			c0.5-0.9,1.2-1.6,2-2.2c0.8-0.5,1.6-0.8,2.5-0.8c0.7,0,1.3,0.1,1.8,0.2c0.5,0.1,1.1,0.5,1.8,0.9l-0.6,6c-0.2,1.4,0.3,2.1,1.4,2.1
			c0.8,0,1.5-0.4,2-1.2c0.5-0.8,0.8-1.8,0.9-3c0.1-2.6-0.4-4.6-1.7-6c-1.3-1.4-3.2-2.1-5.8-2.1c-1.6,0-3,0.3-4.2,1
			c-1.2,0.7-2.2,1.7-2.9,3c-0.7,1.3-1.1,2.8-1.2,4.5c-0.1,1.7,0.1,3.2,0.7,4.4c0.6,1.2,1.4,2.2,2.6,2.8c1.2,0.6,2.6,1,4.3,1
			c0.7,0,1.4-0.1,2.1-0.2c0.7-0.1,1.4-0.3,1.9-0.6l0.5,1.5c-0.5,0.3-1.2,0.5-2,0.7c-0.8,0.2-1.7,0.3-2.5,0.3c-2.1,0-3.8-0.4-5.3-1.1
			c-1.5-0.8-2.6-1.9-3.3-3.3c-0.8-1.5-1.1-3.3-1-5.4c0.1-1.9,0.6-3.7,1.5-5.2c0.9-1.6,2.1-2.8,3.7-3.6c1.6-0.9,3.3-1.3,5.3-1.3
			c2,0,3.8,0.4,5.2,1.2c1.5,0.8,2.5,1.9,3.3,3.4C-1008.2-726-1007.9-724.3-1008-722.3z M-1020.3-721.3c-0.1,1,0,1.7,0.3,2.2
			c0.3,0.5,0.8,0.8,1.4,0.8c0.4,0,0.9-0.2,1.2-0.5c0.4-0.3,0.7-0.8,0.9-1.4l0.5-5.3c-0.4-0.1-0.8-0.2-1.2-0.2
			c-0.9,0-1.6,0.4-2.2,1.1C-1019.8-723.9-1020.2-722.8-1020.3-721.3z"/>
	</g>
</g>
<g id="Map">
</g>
<g id="Grid_View">
</g>
<g id="Launch">
</g>
<g id="Notifications_x0D_W_x2F_Badge">
</g>
<g id="Notifications">
</g>
<g id="Check">
</g>
<g id="Monitoring">
</g>
<g id="Tool">
</g>
<g id="ADD_DATA_x0D__RANGE">
</g>
<g id="Target">
</g>
<g id="Data_Marker">
</g>
<g id="Confidence_rating">
</g>
<g id="Reply">
</g>
<g id="No_Fluid">
</g>
<g id="Well">
</g>
<g id="Rig">
</g>
<g id="Pass">
</g>
<g id="Surface_Location">
</g>
<g id="Marker">
</g>
<g id="Location">
</g>
<g id="Temperature">
</g>
<g id="Dark_Mode">
</g>
<g id="Light_Mode">
</g>
<g id="Graph">
</g>
<g id="Scale">
</g>
<g id="Pressure">
</g>
<g id="Depth">
</g>
<g id="Measurements">
</g>
<g id="Data">
</g>
<g id="No_Signal">
</g>
<g id="Signal">
</g>
<g id="Analysis">
</g>
<g id="Search">
</g>
<g id="Close">
</g>
<g id="Play">
</g>
<g id="View_History">
</g>
<g id="Approved_x2F__x0D_PUBLISHED">
</g>
<g id="Add">
</g>
<g id="Help">
</g>
<g id="Info">
</g>
<g id="Error_x2F_Risk">
</g>
<g id="Settings">
</g>
<g id="Profile_Initials">
</g>
<g id="Profile">
</g>
<g id="Team">
</g>
<g id="Unlocked">
</g>
<g id="LOCKED_x2F__x0D_PASSWORD">
</g>
<g id="New_Screen">
</g>
<g id="Full_Screen">
</g>
<g id="Move">
</g>
<g id="Voice_Control">
</g>
<g id="No_Sound">
</g>
<g id="Sound">
</g>
<g id="Print">
</g>
<g id="Toolkit">
</g>
<g id="Signature">
</g>
<g id="Snapshot">
</g>
<g id="Sort">
</g>
<g id="Controls_x2F_Parameters">
</g>
<g id="Filters">
</g>
<g id="Reset">
</g>
<g id="Refresh_x0D_">
</g>
<g id="Attachment">
</g>
<g id="Flag">
</g>
<g id="Preview">
</g>
<g id="Backup">
</g>
<g id="Delete">
</g>
<g id="Save">
</g>
<g id="Share">
</g>
<g id="Download">
</g>
<g id="Archive">
</g>
<g id="Comments">
</g>
<g id="Add_Text">
</g>
<g id="Text">
</g>
<g id="Edit">
</g>
<g id="Add_to_Report">
</g>
<g id="Report">
</g>
<g id="Documents">
</g>
<g id="New_Document">
</g>
<g id="Document">
</g>
<g id="Image">
</g>
<g id="Tasks">
</g>
<g id="Notes">
</g>
<g id="List">
</g>
<g id="Contacts">
</g>
<g id="E-Mail">
</g>
<g id="Calendar">
</g>
<g id="Calculator">
</g>
<g id="Dashboard">
</g>
<g id="Layer_101">
</g>
</svg>
