<?xml version="1.0" encoding="utf-8"?>
<!-- Generator: Adobe Illustrator 22.0.1, SVG Export Plug-In . SVG Version: 6.00 Build 0)  -->
<svg version="1.1" xmlns="http://www.w3.org/2000/svg" xmlns:xlink="http://www.w3.org/1999/xlink" x="0px" y="0px"
	 viewBox="0 0 22 22" enable-background="new 0 0 22 22" xml:space="preserve">
<g id="Minus">
</g>
<g id="Plus">
</g>
<g id="Arrow_Up">
</g>
<g id="Arrow_Right">
</g>
<g id="Arrow_Left">
</g>
<g id="Arrow_Down">
</g>
<g id="Hashtag">
</g>
<g id="Emoji">
</g>
<g id="Pulsing_x0D__Location_marker">
</g>
<g id="General__x0D_Location_Marker">
</g>
<g id="_x40_Mention">
</g>
<g id="Map">
</g>
<g id="Grid_View">
</g>
<g id="Launch">
</g>
<g id="Notifications_x0D_W_x2F_Badge">
</g>
<g id="Notifications">
</g>
<g id="Check">
</g>
<g id="Monitoring">
</g>
<g id="Tool">
</g>
<g id="ADD_DATA_x0D__RANGE">
</g>
<g id="Target">
</g>
<g id="Data_Marker">
</g>
<g id="Confidence_rating">
</g>
<g id="Reply">
</g>
<g id="No_Fluid">
</g>
<g id="Well">
</g>
<g id="Rig">
</g>
<g id="Pass">
</g>
<g id="Surface_Location">
</g>
<g id="Marker">
</g>
<g id="Location">
</g>
<g id="Temperature">
</g>
<g id="Dark_Mode">
</g>
<g id="Light_Mode">
</g>
<g id="Graph">
</g>
<g id="Scale">
</g>
<g id="Pressure">
</g>
<g id="Depth">
</g>
<g id="Measurements">
</g>
<g id="Data">
</g>
<g id="No_Signal">
</g>
<g id="Signal">
</g>
<g id="Analysis">
</g>
<g id="Search">
</g>
<g id="Close">
</g>
<g id="Play">
</g>
<g id="View_History">
</g>
<g id="Approved_x2F__x0D_PUBLISHED">
</g>
<g id="Add">
</g>
<g id="Help">
</g>
<g id="Info">
</g>
<g id="Error_x2F_Risk">
</g>
<g id="Settings">
	<g id="settings" transform="translate(534.000000, 238.000000)">
		<path id="Shape_275_" fill="#3A414D" d="M-520.6-237h-4.6v2.3c-1.1,0.4-2.1,1-3,1.7l-1.8-1.2l-2.7,3.8l2.1,1.4
			c-0.2,0.7-0.3,1.3-0.3,2c0,0.5,0.1,1.1,0.2,1.6l-2.2,1.5l2.6,3.8l1.8-1.2c0.9,0.9,2,1.6,3.3,2v2.3h4.6v-2.3c1.3-0.4,2.4-1.1,3.3-2
			l1.7,1.2l2.6-3.8l-2.2-1.5c0.1-0.5,0.2-1,0.2-1.5c0-0.7-0.1-1.3-0.2-1.9l2.1-1.5l-2.6-3.8l-1.8,1.3c-0.9-0.8-1.9-1.4-3.1-1.8V-237
			z M-522.1-235.5v0.8v1.1l1.1,0.3c0.9,0.3,1.8,0.8,2.5,1.4l0.8,0.9l1-0.7l0.6-0.4l0.9,1.3l-0.8,0.6l-0.9,0.7l0.2,1
			c0.1,0.5,0.2,1,0.2,1.5c0,0.4,0,0.8-0.1,1.2l-0.2,1l0.8,0.6l1,0.7l-0.9,1.3l-0.5-0.4l-1-0.7l-0.9,0.9c-0.8,0.8-1.7,1.3-2.7,1.6
			l-1.1,0.3v1.1v0.8h-1.6v-0.8v-1.1l-1.1-0.3c-1-0.3-1.9-0.9-2.7-1.6l-0.9-0.9l-1,0.7l-0.5,0.4l-0.9-1.3l1-0.7l0.8-0.6l-0.2-1
			c-0.1-0.4-0.1-0.9-0.1-1.3c0-0.5,0.1-1,0.2-1.5l0.2-1l-0.9-0.5l-0.8-0.6l0.9-1.3l0.5,0.4l1,0.7l0.9-0.8c0.7-0.7,1.5-1.1,2.4-1.4
			l1.1-0.3v-1.3v-0.8H-522.1z"/>
		<path id="Shape_276_" fill="#3A414D" d="M-522.9-230.2c-1,0-2,0.5-2.5,1.3l-0.2,0.2c-0.3,0.5-0.5,1.1-0.5,1.7
			c0,1.8,1.4,3.2,3.2,3.2c1.7,0,3.2-1.4,3.2-3.2C-519.7-228.8-521.2-230.2-522.9-230.2z M-522.9-228.7c0.9,0,1.7,0.8,1.7,1.7
			c0,0.9-0.7,1.7-1.7,1.7c-0.9,0-1.7-0.8-1.7-1.7c0-0.3,0.1-0.6,0.3-0.9l0.1-0.1C-524-228.4-523.5-228.7-522.9-228.7z"/>
	</g>
</g>
<g id="Profile_Initials">
</g>
<g id="Profile">
</g>
<g id="Team">
</g>
<g id="Unlocked">
</g>
<g id="LOCKED_x2F__x0D_PASSWORD">
</g>
<g id="New_Screen">
</g>
<g id="Full_Screen">
</g>
<g id="Move">
</g>
<g id="Voice_Control">
</g>
<g id="No_Sound">
</g>
<g id="Sound">
</g>
<g id="Print">
</g>
<g id="Toolkit">
</g>
<g id="Signature">
</g>
<g id="Snapshot">
</g>
<g id="Sort">
</g>
<g id="Controls_x2F_Parameters">
</g>
<g id="Filters">
</g>
<g id="Reset">
</g>
<g id="Refresh_x0D_">
</g>
<g id="Attachment">
</g>
<g id="Flag">
</g>
<g id="Preview">
</g>
<g id="Backup">
</g>
<g id="Delete">
</g>
<g id="Save">
</g>
<g id="Share">
</g>
<g id="Download">
</g>
<g id="Archive">
</g>
<g id="Comments">
</g>
<g id="Add_Text">
</g>
<g id="Text">
</g>
<g id="Edit">
</g>
<g id="Add_to_Report">
</g>
<g id="Report">
</g>
<g id="Documents">
</g>
<g id="New_Document">
</g>
<g id="Document">
</g>
<g id="Image">
</g>
<g id="Tasks">
</g>
<g id="Notes">
</g>
<g id="List">
</g>
<g id="Contacts">
</g>
<g id="E-Mail">
</g>
<g id="Calendar">
</g>
<g id="Calculator">
</g>
<g id="Dashboard">
</g>
<g id="Layer_101">
</g>
</svg>
