<?xml version="1.0" encoding="utf-8"?>
<!-- Generator: Adobe Illustrator 22.0.1, SVG Export Plug-In . SVG Version: 6.00 Build 0)  -->
<svg version="1.1" xmlns="http://www.w3.org/2000/svg" xmlns:xlink="http://www.w3.org/1999/xlink" x="0px" y="0px"
	 viewBox="0 0 22 22" enable-background="new 0 0 22 22" xml:space="preserve">
<g id="Minus">
</g>
<g id="Plus">
</g>
<g id="Arrow_Up">
</g>
<g id="Arrow_Right">
</g>
<g id="Arrow_Left">
</g>
<g id="Arrow_Down">
</g>
<g id="Hashtag">
</g>
<g id="Emoji">
</g>
<g id="Pulsing_x0D__Location_marker">
</g>
<g id="General__x0D_Location_Marker">
</g>
<g id="_x40_Mention">
</g>
<g id="Map">
</g>
<g id="Grid_View">
</g>
<g id="Launch">
</g>
<g id="Notifications_x0D_W_x2F_Badge">
</g>
<g id="Notifications">
</g>
<g id="Check">
</g>
<g id="Monitoring">
</g>
<g id="Tool">
</g>
<g id="ADD_DATA_x0D__RANGE">
</g>
<g id="Target">
</g>
<g id="Data_Marker">
</g>
<g id="Confidence_rating">
</g>
<g id="Reply">
</g>
<g id="No_Fluid">
</g>
<g id="Well">
</g>
<g id="Rig">
</g>
<g id="Pass">
</g>
<g id="Surface_Location">
</g>
<g id="Marker">
</g>
<g id="Location">
</g>
<g id="Temperature">
</g>
<g id="Dark_Mode">
</g>
<g id="Light_Mode">
</g>
<g id="Graph">
</g>
<g id="Scale">
</g>
<g id="Pressure">
</g>
<g id="Depth">
</g>
<g id="Measurements">
</g>
<g id="Data">
</g>
<g id="No_Signal">
</g>
<g id="Signal">
	<g id="signal" transform="translate(1425.000000, 933.000000)">
		<path id="Oval_13_" fill="#3A414D" d="M-1414-923c0.6,0,1,0.5,1,1c0,0.6-0.5,1-1,1c-0.6,0-1-0.5-1-1
			C-1415-922.5-1414.5-923-1414-923z"/>
		<path id="Shape_142_" fill="#3A414D" d="M-1411.2-919.3l-1.1-1.1c0.9-0.9,0.9-2.4,0-3.3l1.1-1.1
			C-1409.7-923.2-1409.7-920.7-1411.2-919.3z"/>
		<path id="Shape_143_" fill="#3A414D" d="M-1409.1-917.1l-1.1-1.1c2.1-2.1,2.1-5.5,0-7.6l1.1-1.1
			C-1406.4-924.2-1406.4-919.8-1409.1-917.1z"/>
		<path id="Shape_144_" fill="#3A414D" d="M-1406.9-914.9l-1.1-1.1c3.3-3.3,3.3-8.7,0-12l1.1-1.1
			C-1403-925.1-1403-918.8-1406.9-914.9z"/>
		<path id="Oval_14_" fill="#3A414D" d="M-1414-923c0.6,0,1,0.5,1,1c0,0.6-0.5,1-1,1c-0.6,0-1-0.5-1-1
			C-1415-922.5-1414.5-923-1414-923z"/>
		<path id="Shape_145_" fill="#3A414D" d="M-1416.7-919.3c-0.7-0.7-1.1-1.6-1.1-2.8c0-1,0.4-1.9,1.1-2.8l1.1,1.1
			c-0.4,0.4-0.7,1-0.7,1.6c0,0.6,0.2,1.2,0.7,1.6L-1416.7-919.3z"/>
		<path id="Shape_146_" fill="#3A414D" d="M-1418.8-917.1c-2.7-2.7-2.7-7.1,0-9.7l1.1,1.1c-2.1,2.1-2.1,5.5,0,7.6L-1418.8-917.1z"/>
		<path id="Shape_147_" fill="#3A414D" d="M-1421.1-914.9c-3.9-3.9-3.9-10.3,0-14.2l1.1,1.1c-3.3,3.3-3.3,8.7,0,12L-1421.1-914.9z"
			/>
	</g>
</g>
<g id="Analysis">
</g>
<g id="Search">
</g>
<g id="Close">
</g>
<g id="Play">
</g>
<g id="View_History">
</g>
<g id="Approved_x2F__x0D_PUBLISHED">
</g>
<g id="Add">
</g>
<g id="Help">
</g>
<g id="Info">
</g>
<g id="Error_x2F_Risk">
</g>
<g id="Settings">
</g>
<g id="Profile_Initials">
</g>
<g id="Profile">
</g>
<g id="Team">
</g>
<g id="Unlocked">
</g>
<g id="LOCKED_x2F__x0D_PASSWORD">
</g>
<g id="New_Screen">
</g>
<g id="Full_Screen">
</g>
<g id="Move">
</g>
<g id="Voice_Control">
</g>
<g id="No_Sound">
</g>
<g id="Sound">
</g>
<g id="Print">
</g>
<g id="Toolkit">
</g>
<g id="Signature">
</g>
<g id="Snapshot">
</g>
<g id="Sort">
</g>
<g id="Controls_x2F_Parameters">
</g>
<g id="Filters">
</g>
<g id="Reset">
</g>
<g id="Refresh_x0D_">
</g>
<g id="Attachment">
</g>
<g id="Flag">
</g>
<g id="Preview">
</g>
<g id="Backup">
</g>
<g id="Delete">
</g>
<g id="Save">
</g>
<g id="Share">
</g>
<g id="Download">
</g>
<g id="Archive">
</g>
<g id="Comments">
</g>
<g id="Add_Text">
</g>
<g id="Text">
</g>
<g id="Edit">
</g>
<g id="Add_to_Report">
</g>
<g id="Report">
</g>
<g id="Documents">
</g>
<g id="New_Document">
</g>
<g id="Document">
</g>
<g id="Image">
</g>
<g id="Tasks">
</g>
<g id="Notes">
</g>
<g id="List">
</g>
<g id="Contacts">
</g>
<g id="E-Mail">
</g>
<g id="Calendar">
</g>
<g id="Calculator">
</g>
<g id="Dashboard">
</g>
<g id="Layer_101">
</g>
</svg>
