<?xml version="1.0" encoding="utf-8"?>
<!-- Generator: Adobe Illustrator 22.0.1, SVG Export Plug-In . SVG Version: 6.00 Build 0)  -->
<svg version="1.1" xmlns="http://www.w3.org/2000/svg" xmlns:xlink="http://www.w3.org/1999/xlink" x="0px" y="0px"
	 viewBox="0 0 22 22" enable-background="new 0 0 22 22" xml:space="preserve">
<g id="Minus">
</g>
<g id="Plus">
</g>
<g id="Arrow_Up">
</g>
<g id="Arrow_Right">
</g>
<g id="Arrow_Left">
</g>
<g id="Arrow_Down">
</g>
<g id="Hashtag">
</g>
<g id="Emoji">
</g>
<g id="Pulsing_x0D__Location_marker">
</g>
<g id="General__x0D_Location_Marker">
</g>
<g id="_x40_Mention">
</g>
<g id="Map">
</g>
<g id="Grid_View">
</g>
<g id="Launch">
</g>
<g id="Notifications_x0D_W_x2F_Badge">
</g>
<g id="Notifications">
</g>
<g id="Check">
</g>
<g id="Monitoring">
</g>
<g id="Tool">
</g>
<g id="ADD_DATA_x0D__RANGE">
</g>
<g id="Target">
</g>
<g id="Data_Marker">
</g>
<g id="Confidence_rating">
</g>
<g id="Reply">
</g>
<g id="No_Fluid">
</g>
<g id="Well">
</g>
<g id="Rig">
</g>
<g id="Pass">
</g>
<g id="Surface_Location">
</g>
<g id="Marker">
</g>
<g id="Location">
</g>
<g id="Temperature">
</g>
<g id="Dark_Mode">
</g>
<g id="Light_Mode">
	<g id="sun" transform="translate(1029.000000, 1030.000000)">
		<path id="Shape_131_" fill="#3A414D" d="M-1018.1-1023.5c-2.4,0-4.4,2-4.4,4.4c0,2.4,2,4.4,4.4,4.4c2.4,0,4.4-2,4.4-4.4
			C-1013.7-1021.5-1015.6-1023.5-1018.1-1023.5z M-1018.1-1022c1.6,0,2.9,1.3,2.9,2.9c0,1.6-1.3,2.9-2.9,2.9s-2.9-1.3-2.9-2.9
			C-1021-1020.7-1019.7-1022-1018.1-1022z"/>
		<rect id="Rectangle-path_31_" x="-1018.6" y="-1029" fill="#3A414D" width="1.5" height="4"/>
		
			<rect id="Rectangle-path_32_" x="-1010.8" y="-1020.9" transform="matrix(2.390470e-03 -1 1 2.390470e-03 11.2099 -2026.4634)" fill="#3A414D" width="1.5" height="4.1"/>
		<rect id="Rectangle-path_33_" x="-1019" y="-1013.2" fill="#3A414D" width="1.5" height="4.2"/>
		
			<rect id="Rectangle-path_34_" x="-1026.7" y="-1021.2" transform="matrix(2.450605e-03 -1 1 2.450605e-03 -4.2373 -2042.7477)" fill="#3A414D" width="1.5" height="4"/>
		
			<rect id="Rectangle-path_35_" x="-1024.3" y="-1026.8" transform="matrix(0.7081 -0.7061 0.7061 0.7081 424.8229 -1021.9608)" fill="#3A414D" width="1.5" height="4"/>
		
			<rect id="Rectangle-path_36_" x="-1014.4" y="-1025.3" transform="matrix(0.7094 -0.7048 0.7048 0.7094 427.9372 -1011.297)" fill="#3A414D" width="4.1" height="1.5"/>
		
			<rect id="Rectangle-path_37_" x="-1013.3" y="-1015.4" transform="matrix(0.7093 -0.7049 0.7049 0.7093 419.8976 -1008.2956)" fill="#3A414D" width="1.5" height="4.2"/>
		
			<rect id="Rectangle-path_38_" x="-1025.8" y="-1014.3" transform="matrix(0.7087 -0.7055 0.7055 0.7087 416.8688 -1017.4819)" fill="#3A414D" width="4" height="1.5"/>
	</g>
</g>
<g id="Graph">
</g>
<g id="Scale">
</g>
<g id="Pressure">
</g>
<g id="Depth">
</g>
<g id="Measurements">
</g>
<g id="Data">
</g>
<g id="No_Signal">
</g>
<g id="Signal">
</g>
<g id="Analysis">
</g>
<g id="Search">
</g>
<g id="Close">
</g>
<g id="Play">
</g>
<g id="View_History">
</g>
<g id="Approved_x2F__x0D_PUBLISHED">
</g>
<g id="Add">
</g>
<g id="Help">
</g>
<g id="Info">
</g>
<g id="Error_x2F_Risk">
</g>
<g id="Settings">
</g>
<g id="Profile_Initials">
</g>
<g id="Profile">
</g>
<g id="Team">
</g>
<g id="Unlocked">
</g>
<g id="LOCKED_x2F__x0D_PASSWORD">
</g>
<g id="New_Screen">
</g>
<g id="Full_Screen">
</g>
<g id="Move">
</g>
<g id="Voice_Control">
</g>
<g id="No_Sound">
</g>
<g id="Sound">
</g>
<g id="Print">
</g>
<g id="Toolkit">
</g>
<g id="Signature">
</g>
<g id="Snapshot">
</g>
<g id="Sort">
</g>
<g id="Controls_x2F_Parameters">
</g>
<g id="Filters">
</g>
<g id="Reset">
</g>
<g id="Refresh_x0D_">
</g>
<g id="Attachment">
</g>
<g id="Flag">
</g>
<g id="Preview">
</g>
<g id="Backup">
</g>
<g id="Delete">
</g>
<g id="Save">
</g>
<g id="Share">
</g>
<g id="Download">
</g>
<g id="Archive">
</g>
<g id="Comments">
</g>
<g id="Add_Text">
</g>
<g id="Text">
</g>
<g id="Edit">
</g>
<g id="Add_to_Report">
</g>
<g id="Report">
</g>
<g id="Documents">
</g>
<g id="New_Document">
</g>
<g id="Document">
</g>
<g id="Image">
</g>
<g id="Tasks">
</g>
<g id="Notes">
</g>
<g id="List">
</g>
<g id="Contacts">
</g>
<g id="E-Mail">
</g>
<g id="Calendar">
</g>
<g id="Calculator">
</g>
<g id="Dashboard">
</g>
<g id="Layer_101">
</g>
</svg>
