<?xml version="1.0" encoding="utf-8"?>
<!-- Generator: Adobe Illustrator 22.0.1, SVG Export Plug-In . SVG Version: 6.00 Build 0)  -->
<svg version="1.1" xmlns="http://www.w3.org/2000/svg" xmlns:xlink="http://www.w3.org/1999/xlink" x="0px" y="0px"
	 viewBox="0 0 22 22" enable-background="new 0 0 22 22" xml:space="preserve">
<g id="Minus">
</g>
<g id="Plus">
</g>
<g id="Arrow_Up">
</g>
<g id="Arrow_Right">
</g>
<g id="Arrow_Left">
</g>
<g id="Arrow_Down">
</g>
<g id="Hashtag">
</g>
<g id="Emoji">
</g>
<g id="Pulsing_x0D__Location_marker">
</g>
<g id="General__x0D_Location_Marker">
</g>
<g id="_x40_Mention">
</g>
<g id="Map">
</g>
<g id="Grid_View">
</g>
<g id="Launch">
</g>
<g id="Notifications_x0D_W_x2F_Badge">
</g>
<g id="Notifications">
</g>
<g id="Check">
</g>
<g id="Monitoring">
</g>
<g id="Tool">
</g>
<g id="ADD_DATA_x0D__RANGE">
</g>
<g id="Target">
</g>
<g id="Data_Marker">
</g>
<g id="Confidence_rating">
</g>
<g id="Reply">
</g>
<g id="No_Fluid">
</g>
<g id="Well">
</g>
<g id="Rig">
</g>
<g id="Pass">
</g>
<g id="Surface_Location">
</g>
<g id="Marker">
</g>
<g id="Location">
</g>
<g id="Temperature">
	<g id="temperature" transform="translate(834.000000, 931.000000)">
		<path id="Shape_108_" fill="#3A414D" d="M-820.2-928.5v5.7v1.7c0.1,0.1,0.2,0.1,0.3,0.2c1.3,0.9,2.2,2.5,2.2,4.2
			c-0.1,2.9-2.4,5.2-5.3,5.2c-2.9,0-5.2-2.3-5.2-5.2c0-1.7,0.8-3.1,2-4.1c0.1-0.1,0.3-0.2,0.4-0.3v-1.7v-5.7H-820.2L-820.2-928.5z
			 M-818.7-930h-1.5h-5.6h-1.5v1.5v5.7v1c-1.6,1.4-2.4,3.2-2.4,5.1c0,3.8,3,6.7,6.7,6.7c3.7,0,6.7-2.9,6.8-6.7l0,0v0
			c0-2-1-3.9-2.5-5.2v-0.9v-5.7V-930L-818.7-930z"/>
		<path id="Shape_109_" fill="#3A414D" d="M-822.2-920.1v-6.3h-1.5v6.3c-1.6,0.3-2.8,1.7-2.8,3.4c0,1.9,1.6,3.5,3.5,3.5
			c2,0,3.5-1.6,3.5-3.5C-819.5-918.4-820.6-919.8-822.2-920.1z"/>
	</g>
</g>
<g id="Dark_Mode">
</g>
<g id="Light_Mode">
</g>
<g id="Graph">
</g>
<g id="Scale">
</g>
<g id="Pressure">
</g>
<g id="Depth">
</g>
<g id="Measurements">
</g>
<g id="Data">
</g>
<g id="No_Signal">
</g>
<g id="Signal">
</g>
<g id="Analysis">
</g>
<g id="Search">
</g>
<g id="Close">
</g>
<g id="Play">
</g>
<g id="View_History">
</g>
<g id="Approved_x2F__x0D_PUBLISHED">
</g>
<g id="Add">
</g>
<g id="Help">
</g>
<g id="Info">
</g>
<g id="Error_x2F_Risk">
</g>
<g id="Settings">
</g>
<g id="Profile_Initials">
</g>
<g id="Profile">
</g>
<g id="Team">
</g>
<g id="Unlocked">
</g>
<g id="LOCKED_x2F__x0D_PASSWORD">
</g>
<g id="New_Screen">
</g>
<g id="Full_Screen">
</g>
<g id="Move">
</g>
<g id="Voice_Control">
</g>
<g id="No_Sound">
</g>
<g id="Sound">
</g>
<g id="Print">
</g>
<g id="Toolkit">
</g>
<g id="Signature">
</g>
<g id="Snapshot">
</g>
<g id="Sort">
</g>
<g id="Controls_x2F_Parameters">
</g>
<g id="Filters">
</g>
<g id="Reset">
</g>
<g id="Refresh_x0D_">
</g>
<g id="Attachment">
</g>
<g id="Flag">
</g>
<g id="Preview">
</g>
<g id="Backup">
</g>
<g id="Delete">
</g>
<g id="Save">
</g>
<g id="Share">
</g>
<g id="Download">
</g>
<g id="Archive">
</g>
<g id="Comments">
</g>
<g id="Add_Text">
</g>
<g id="Text">
</g>
<g id="Edit">
</g>
<g id="Add_to_Report">
</g>
<g id="Report">
</g>
<g id="Documents">
</g>
<g id="New_Document">
</g>
<g id="Document">
</g>
<g id="Image">
</g>
<g id="Tasks">
</g>
<g id="Notes">
</g>
<g id="List">
</g>
<g id="Contacts">
</g>
<g id="E-Mail">
</g>
<g id="Calendar">
</g>
<g id="Calculator">
</g>
<g id="Dashboard">
</g>
<g id="Layer_101">
</g>
</svg>
