<?xml version="1.0" encoding="utf-8"?>
<!-- Generator: Adobe Illustrator 22.0.1, SVG Export Plug-In . SVG Version: 6.00 Build 0)  -->
<svg version="1.1" xmlns="http://www.w3.org/2000/svg" xmlns:xlink="http://www.w3.org/1999/xlink" x="0px" y="0px"
	 viewBox="0 0 22 22" enable-background="new 0 0 22 22" xml:space="preserve">
<g id="Insert_Below_x0D_Selected_Row">
</g>
<g id="Insert_Above_x0D__Selected_Row">
</g>
<g id="Tool">
</g>
<g id="Day_Off_Range">
</g>
<g id="Inport">
</g>
<g id="Inbox">
</g>
<g id="Discount">
</g>
<g id="Suitability">
</g>
<g id="Day_Off">
</g>
<g id="Day_off_Balance">
</g>
<g id="Reassign_User">
</g>
<g id="User_Managment">
</g>
<g id="Role_Managment">
</g>
<g id="Basket">
</g>
<g id="Planing_View">
</g>
<g id="Tag">
</g>
<g id="Ops_Locaiton">
</g>
<g id="Exchange">
</g>
<g id="Pie_Chart">
</g>
<g id="Travel">
</g>
<g id="Availablity">
</g>
<g id="Corner_Grip">
</g>
<g id="Bar_Chart">
</g>
<g id="Offline">
</g>
<g id="Online">
</g>
<g id="Global">
</g>
<g id="Arrow_Left">
</g>
<g id="Arrow_Right">
</g>
<g id="Arrow_Up">
</g>
<g id="Arrow_Down">
</g>
<g id="Dasktop">
</g>
<g id="Laptop">
</g>
<g id="Tablet">
</g>
<g id="Mobile">
</g>
<g id="Pack">
</g>
<g id="Unpack">
</g>
<g id="Sign_Off">
</g>
<g id="Link">
</g>
<g id="Hole_Section">
</g>
<g id="Export">
</g>
<g id="Column_x0D_Chooser">
</g>
<g id="Quadrant">
</g>
<g id="Utilization">
</g>
<g id="Loading_Limit">
</g>
<g id="Duration">
</g>
<g id="Order">
</g>
<g id="Mobilization">
</g>
<g id="Transportation_x0D_Required">
</g>
<g id="Transportation_x0D_not_required">
</g>
<g id="Transportation_x0D_Customer">
</g>
<g id="Transportation_x0D_SLB">
</g>
<g id="Transportation">
</g>
<g id="Ocean_Rig">
</g>
<g id="Bit">
</g>
<g id="Crude">
</g>
<g id="Competency">
</g>
<g id="User_Add">
</g>
<g id="User_Delete">
</g>
<g id="User_Badge">
</g>
<g id="Crew_Template">
</g>
<g id="Crew">
</g>
<g id="User_Engg">
</g>
<g id="User_Sales">
</g>
<g id="Engg_Drawing">
</g>
<g id="Ticket">
</g>
<g id="Quote">
</g>
<g id="PDF">
</g>
<g id="Document_x0D_Download">
</g>
<g id="Reject_x0D__Document_Job">
</g>
<g id="Approve_Document_Job">
</g>
<g id="Hierarchy">
</g>
<g id="Admin">
	<g>
		<path fill="#3A414D" d="M19.7,12.7c0-0.2,0-0.4,0-0.7c0-3.6-2.2-6.8-5.6-8.1c-0.2-1.5-1.5-2.6-3-2.6c-1.5,0-2.7,1.1-3,2.5
			C4.7,4.9,2.3,8.2,2.3,12c0,0.2,0,0.5,0,0.8C1.5,13.3,1,14.3,1,15.3c0,1.7,1.4,3,3,3c0.3,0,0.6,0,0.9-0.1c1.6,1.6,3.8,2.6,6.1,2.6
			c2.4,0,4.6-1,6.2-2.7c0.2,0.1,0.5,0.1,0.7,0.1c1.7,0,3-1.4,3-3C21,14.1,20.5,13.2,19.7,12.7z M11.2,2.8c0.8,0,1.5,0.7,1.5,1.5
			c0,0.1,0,0.2,0,0.2l0,0c-0.1,0.7-0.7,1.3-1.5,1.3c-0.8,0-1.4-0.6-1.5-1.3l0,0l0-0.2C9.7,3.4,10.4,2.8,11.2,2.8z M2.5,15.3
			c0-0.7,0.5-1.3,1.1-1.5c0.1,0,0.3-0.1,0.4-0.1c0.8,0,1.5,0.7,1.5,1.5c0,0.5-0.2,1-0.6,1.2h0c-0.3,0.2-0.5,0.3-0.9,0.3
			C3.2,16.8,2.5,16.1,2.5,15.3z M6.2,17.4C6.7,16.8,7,16.1,7,15.3c0-1.7-1.4-3-3-3c-0.1,0-0.1,0-0.2,0c0-0.1,0-0.2,0-0.3
			c0-3,1.8-5.6,4.6-6.7c0.4,1.2,1.5,2,2.8,2c1.2,0,2.3-0.8,2.8-1.9c2.6,1.2,4.2,3.7,4.2,6.6c0,0,0,0.1,0,0.1c-0.1,0-0.2,0-0.2,0
			c-1.7,0-3,1.4-3,3c0,0.8,0.3,1.6,0.9,2.2c-1.3,1.2-3.1,1.9-4.9,1.9C9.2,19.2,7.5,18.6,6.2,17.4z M18,16.6c-0.3,0-0.6-0.1-0.8-0.2
			l0,0c-0.4-0.3-0.7-0.8-0.7-1.3c0-0.8,0.7-1.5,1.5-1.5c0.1,0,0.2,0,0.4,0.1l0,0c0.6,0.2,1.1,0.8,1.1,1.4C19.5,16,18.8,16.6,18,16.6
			z"/>
		<path fill="#3A414D" d="M11,8.1c-2.2,0-4,1.8-4,4c0,2.2,1.8,4,4,4c2.2,0,4-1.8,4-4C14.9,9.9,13.2,8.1,11,8.1z M11,14.6
			c-1.3,0-2.4-1.1-2.4-2.5c0-1.4,1.1-2.5,2.4-2.5c1.3,0,2.4,1.1,2.4,2.5C13.4,13.5,12.3,14.6,11,14.6z"/>
	</g>
</g>
<g id="Block">
</g>
<g id="Bank_Document">
</g>
<g id="Home">
</g>
<g id="Scheduler">
</g>
<g id="Zoom_Out">
</g>
<g id="Zoom_In">
</g>
<g id="Group">
</g>
<g id="Comment_Selected">
</g>
<g id="Comment">
</g>
<g id="Grip">
</g>
<g id="Favorite_Selected">
</g>
<g id="Favorite">
</g>
<g id="wellbore_x0D_geometry">
</g>
<g id="Drilling_Fluid">
</g>
<g id="Mud_Test">
</g>
<g id="QHSE_x2F_Safety">
</g>
<g id="Survey">
</g>
<g id="Shallow_Hole_Test">
</g>
<g id="LOGS">
</g>
<g id="Bha_Stroke">
</g>
<g id="Interpretation">
</g>
<g id="Wave_Plot">
</g>
<g id="Polar_Plot">
</g>
<g id="LOG">
</g>
<g id="Focal_Point">
</g>
<g id="Edge_Log">
</g>
<g id="More">
</g>
<g id="Hamburger">
</g>
<g id="Title_Text">
</g>
</svg>
