<?xml version="1.0" encoding="utf-8"?>
<!-- Generator: Adobe Illustrator 22.0.1, SVG Export Plug-In . SVG Version: 6.00 Build 0)  -->
<svg version="1.1" xmlns="http://www.w3.org/2000/svg" xmlns:xlink="http://www.w3.org/1999/xlink" x="0px" y="0px"
	 viewBox="0 0 22 22" enable-background="new 0 0 22 22" xml:space="preserve">
<g id="Insert_Below_x0D_Selected_Row">
</g>
<g id="Insert_Above_x0D__Selected_Row">
</g>
<g id="Tool">
</g>
<g id="Day_Off_Range">
</g>
<g id="Inport">
</g>
<g id="Inbox">
</g>
<g id="Discount">
</g>
<g id="Suitability">
</g>
<g id="Day_Off">
</g>
<g id="Day_off_Balance">
</g>
<g id="Reassign_User">
</g>
<g id="User_Managment">
</g>
<g id="Role_Managment">
</g>
<g id="Basket">
</g>
<g id="Planing_View">
</g>
<g id="Tag">
</g>
<g id="Ops_Locaiton">
</g>
<g id="Exchange">
</g>
<g id="Pie_Chart">
</g>
<g id="Travel">
</g>
<g id="Availablity">
	<g id="availability" transform="translate(1227.000000, 535.000000)">
		<polygon id="Shape_234_" fill="#3A414D" points="-1215.9,-530.2 -1217.4,-530.2 -1217.4,-522.8 -1210.8,-519.7 -1210.2,-521 
			-1215.9,-523.8 		"/>
		<path id="Shape_235_" fill="#3A414D" d="M-1224.5-523.8c0-4.6,3.7-8.3,8.3-8.3c1.5,0,2.8,0.4,4.1,1.1l-1.1,1.6l4.1-0.3l-1-4.3
			l-1.2,1.8c-1.5-0.9-3.2-1.3-4.9-1.3c-5.4,0-9.8,4.4-9.8,9.8s4.4,9.8,9.8,9.8v-1.5C-1220.8-515.5-1224.5-519.2-1224.5-523.8"/>
		<g id="Group_18_" transform="translate(10.000000, 5.000000)">
			<path id="Shape_236_" fill="#3A414D" d="M-1218-531.9c0.5,0,1-0.4,1-1c0-0.5-0.4-1-1-1c-0.5,0-1,0.4-1,1
				C-1218.9-532.4-1218.5-531.9-1218-531.9"/>
			<path id="Shape_237_" fill="#3A414D" d="M-1218.1-530.5c0,0.5,0.4,1,1,1c0.5,0,1-0.4,1-1s-0.4-1-1-1
				C-1217.6-531.4-1218.1-531-1218.1-530.5"/>
			<path id="Shape_238_" fill="#3A414D" d="M-1217-528.6c-0.5,0-1,0.4-1,1c0,0.5,0.4,1,1,1c0.5,0,1-0.4,1-1
				C-1216-528.2-1216.4-528.6-1217-528.6"/>
			<path id="Shape_239_" fill="#3A414D" d="M-1217.7-526c-0.5,0-1,0.4-1,1c0,0.5,0.4,1,1,1s1-0.4,1-1
				C-1216.7-525.6-1217.1-526-1217.7-526"/>
			<path id="Shape_240_" fill="#3A414D" d="M-1219.2-523.7c-0.5,0-1,0.4-1,1c0,0.5,0.4,1,1,1c0.5,0,1-0.4,1-1
				C-1218.2-523.3-1218.6-523.7-1219.2-523.7"/>
			<path id="Shape_241_" fill="#3A414D" d="M-1221.4-521.9c-0.5,0-1,0.4-1,1c0,0.5,0.4,1,1,1s1-0.4,1-1
				C-1220.5-521.5-1220.9-521.9-1221.4-521.9"/>
			<path id="Shape_242_" fill="#3A414D" d="M-1224.3-520.9c-0.5,0-1,0.4-1,1c0,0.5,0.4,1,1,1c0.5,0,1-0.4,1-1
				C-1223.3-520.5-1223.7-520.9-1224.3-520.9"/>
		</g>
	</g>
</g>
<g id="Corner_Grip">
</g>
<g id="Bar_Chart">
</g>
<g id="Offline">
</g>
<g id="Online">
</g>
<g id="Global">
</g>
<g id="Arrow_Left">
</g>
<g id="Arrow_Right">
</g>
<g id="Arrow_Up">
</g>
<g id="Arrow_Down">
</g>
<g id="Dasktop">
</g>
<g id="Laptop">
</g>
<g id="Tablet">
</g>
<g id="Mobile">
</g>
<g id="Pack">
</g>
<g id="Unpack">
</g>
<g id="Sign_Off">
</g>
<g id="Link">
</g>
<g id="Hole_Section">
</g>
<g id="Export">
</g>
<g id="Column_x0D_Chooser">
</g>
<g id="Quadrant">
</g>
<g id="Utilization">
</g>
<g id="Loading_Limit">
</g>
<g id="Duration">
</g>
<g id="Order">
</g>
<g id="Mobilization">
</g>
<g id="Transportation_x0D_Required">
</g>
<g id="Transportation_x0D_not_required">
</g>
<g id="Transportation_x0D_Customer">
</g>
<g id="Transportation_x0D_SLB">
</g>
<g id="Transportation">
</g>
<g id="Ocean_Rig">
</g>
<g id="Bit">
</g>
<g id="Crude">
</g>
<g id="Competency">
</g>
<g id="User_Add">
</g>
<g id="User_Delete">
</g>
<g id="User_Badge">
</g>
<g id="Crew_Template">
</g>
<g id="Crew">
</g>
<g id="User_Engg">
</g>
<g id="User_Sales">
</g>
<g id="Engg_Drawing">
</g>
<g id="Ticket">
</g>
<g id="Quote">
</g>
<g id="PDF">
</g>
<g id="Document_x0D_Download">
</g>
<g id="Reject_x0D__Document_Job">
</g>
<g id="Approve_Document_Job">
</g>
<g id="Hierarchy">
</g>
<g id="Admin">
</g>
<g id="Block">
</g>
<g id="Bank_Document">
</g>
<g id="Home">
</g>
<g id="Scheduler">
</g>
<g id="Zoom_Out">
</g>
<g id="Zoom_In">
</g>
<g id="Group">
</g>
<g id="Comment_Selected">
</g>
<g id="Comment">
</g>
<g id="Grip">
</g>
<g id="Favorite_Selected">
</g>
<g id="Favorite">
</g>
<g id="wellbore_x0D_geometry">
</g>
<g id="Drilling_Fluid">
</g>
<g id="Mud_Test">
</g>
<g id="QHSE_x2F_Safety">
</g>
<g id="Survey">
</g>
<g id="Shallow_Hole_Test">
</g>
<g id="LOGS">
</g>
<g id="Bha_Stroke">
</g>
<g id="Interpretation">
</g>
<g id="Wave_Plot">
</g>
<g id="Polar_Plot">
</g>
<g id="LOG">
</g>
<g id="Focal_Point">
</g>
<g id="Edge_Log">
</g>
<g id="More">
</g>
<g id="Hamburger">
</g>
<g id="Title_Text">
</g>
</svg>
