<?xml version="1.0" encoding="utf-8"?>
<!-- Generator: Adobe Illustrator 22.0.1, SVG Export Plug-In . SVG Version: 6.00 Build 0)  -->
<svg version="1.1" xmlns="http://www.w3.org/2000/svg" xmlns:xlink="http://www.w3.org/1999/xlink" x="0px" y="0px"
	 viewBox="0 0 22 22" enable-background="new 0 0 22 22" xml:space="preserve">
<g id="Insert_Below_x0D_Selected_Row">
</g>
<g id="Insert_Above_x0D__Selected_Row">
</g>
<g id="Tool">
</g>
<g id="Day_Off_Range">
</g>
<g id="Inport">
</g>
<g id="Inbox">
</g>
<g id="Discount">
</g>
<g id="Suitability">
</g>
<g id="Day_Off">
</g>
<g id="Day_off_Balance">
</g>
<g id="Reassign_User">
</g>
<g id="User_Managment">
</g>
<g id="Role_Managment">
</g>
<g id="Basket">
</g>
<g id="Planing_View">
</g>
<g id="Tag">
</g>
<g id="Ops_Locaiton">
</g>
<g id="Exchange">
</g>
<g id="Pie_Chart">
</g>
<g id="Travel">
</g>
<g id="Availablity">
</g>
<g id="Corner_Grip">
</g>
<g id="Bar_Chart">
</g>
<g id="Offline">
</g>
<g id="Online">
</g>
<g id="Global">
</g>
<g id="Arrow_Left">
</g>
<g id="Arrow_Right">
</g>
<g id="Arrow_Up">
</g>
<g id="Arrow_Down">
</g>
<g id="Dasktop">
</g>
<g id="Laptop">
</g>
<g id="Tablet">
</g>
<g id="Mobile">
</g>
<g id="Pack">
</g>
<g id="Unpack">
</g>
<g id="Sign_Off">
</g>
<g id="Link">
</g>
<g id="Hole_Section">
</g>
<g id="Export">
</g>
<g id="Column_x0D_Chooser">
</g>
<g id="Quadrant">
</g>
<g id="Utilization">
</g>
<g id="Loading_Limit">
</g>
<g id="Duration">
</g>
<g id="Order">
</g>
<g id="Mobilization">
</g>
<g id="Transportation_x0D_Required">
</g>
<g id="Transportation_x0D_not_required">
</g>
<g id="Transportation_x0D_Customer">
</g>
<g id="Transportation_x0D_SLB">
</g>
<g id="Transportation">
</g>
<g id="Ocean_Rig">
</g>
<g id="Bit">
</g>
<g id="Crude">
</g>
<g id="Competency">
</g>
<g id="User_Add">
</g>
<g id="User_Delete">
</g>
<g id="User_Badge">
</g>
<g id="Crew_Template">
</g>
<g id="Crew">
	<g id="team" transform="translate(237.000000, 1030.000000)">
		<path id="Shape_165_" fill="#3A414D" d="M-218.8-1023.8c0.5-0.6,0.9-1.3,0.9-2.1c0-1.7-1.4-3.1-3.1-3.1c-1.7,0-3.1,1.4-3.1,3.1
			c0,0.8,0.3,1.6,0.9,2.1c-0.9,0.4-1.6,1.2-2.1,2c-0.8-1-2-1.7-3.4-1.7c-2.4,0-4.3,1.9-4.3,4.3c0,1.4,0.6,2.6,1.6,3.4
			c-2.7,1.1-4.6,3.7-4.6,6.7h1.5c0-3.2,2.6-5.8,5.8-5.8c3.2,0,5.8,2.6,5.8,5.8h1.5c0-3.1-1.9-5.7-4.6-6.7c1-0.8,1.6-2,1.6-3.4
			c0-0.2,0-0.5-0.1-0.7c0.2-1.7,1.7-3,3.5-3c1.9,0,3.5,1.6,3.5,3.5h1.5C-216-1021.3-217.1-1022.9-218.8-1023.8z M-228.7-1016.3
			c-1.6,0-2.8-1.3-2.8-2.8c0-1.6,1.3-2.8,2.8-2.8c1.6,0,2.8,1.3,2.8,2.8C-225.9-1017.5-227.2-1016.3-228.7-1016.3z M-221-1024.3
			c-0.9,0-1.6-0.7-1.6-1.6s0.7-1.6,1.6-1.6c0.9,0,1.6,0.7,1.6,1.6S-220.1-1024.3-221-1024.3z"/>
	</g>
</g>
<g id="User_Engg">
</g>
<g id="User_Sales">
</g>
<g id="Engg_Drawing">
</g>
<g id="Ticket">
</g>
<g id="Quote">
</g>
<g id="PDF">
</g>
<g id="Document_x0D_Download">
</g>
<g id="Reject_x0D__Document_Job">
</g>
<g id="Approve_Document_Job">
</g>
<g id="Hierarchy">
</g>
<g id="Admin">
</g>
<g id="Block">
</g>
<g id="Bank_Document">
</g>
<g id="Home">
</g>
<g id="Scheduler">
</g>
<g id="Zoom_Out">
</g>
<g id="Zoom_In">
</g>
<g id="Group">
</g>
<g id="Comment_Selected">
</g>
<g id="Comment">
</g>
<g id="Grip">
</g>
<g id="Favorite_Selected">
</g>
<g id="Favorite">
</g>
<g id="wellbore_x0D_geometry">
</g>
<g id="Drilling_Fluid">
</g>
<g id="Mud_Test">
</g>
<g id="QHSE_x2F_Safety">
</g>
<g id="Survey">
</g>
<g id="Shallow_Hole_Test">
</g>
<g id="LOGS">
</g>
<g id="Bha_Stroke">
</g>
<g id="Interpretation">
</g>
<g id="Wave_Plot">
</g>
<g id="Polar_Plot">
</g>
<g id="LOG">
</g>
<g id="Focal_Point">
</g>
<g id="Edge_Log">
</g>
<g id="More">
</g>
<g id="Hamburger">
</g>
<g id="Title_Text">
</g>
</svg>
