<?xml version="1.0" encoding="utf-8"?>
<!-- Generator: Adobe Illustrator 22.0.1, SVG Export Plug-In . SVG Version: 6.00 Build 0)  -->
<svg version="1.1" xmlns="http://www.w3.org/2000/svg" xmlns:xlink="http://www.w3.org/1999/xlink" x="0px" y="0px"
	 viewBox="0 0 22 22" enable-background="new 0 0 22 22" xml:space="preserve">
<g id="Insert_Below_x0D_Selected_Row">
</g>
<g id="Insert_Above_x0D__Selected_Row">
</g>
<g id="Tool">
</g>
<g id="Day_Off_Range">
</g>
<g id="Inport">
</g>
<g id="Inbox">
</g>
<g id="Discount">
</g>
<g id="Suitability">
</g>
<g id="Day_Off">
</g>
<g id="Day_off_Balance">
</g>
<g id="Reassign_User">
</g>
<g id="User_Managment">
</g>
<g id="Role_Managment">
</g>
<g id="Basket">
</g>
<g id="Planing_View">
</g>
<g id="Tag">
</g>
<g id="Ops_Locaiton">
</g>
<g id="Exchange">
</g>
<g id="Pie_Chart">
</g>
<g id="Travel">
</g>
<g id="Availablity">
</g>
<g id="Corner_Grip">
</g>
<g id="Bar_Chart">
</g>
<g id="Offline">
</g>
<g id="Online">
</g>
<g id="Global">
</g>
<g id="Arrow_Left">
</g>
<g id="Arrow_Right">
</g>
<g id="Arrow_Up">
</g>
<g id="Arrow_Down">
</g>
<g id="Dasktop">
</g>
<g id="Laptop">
</g>
<g id="Tablet">
</g>
<g id="Mobile">
</g>
<g id="Pack">
</g>
<g id="Unpack">
</g>
<g id="Sign_Off">
</g>
<g id="Link">
</g>
<g id="Hole_Section">
</g>
<g id="Export">
</g>
<g id="Column_x0D_Chooser">
</g>
<g id="Quadrant">
</g>
<g id="Utilization">
</g>
<g id="Loading_Limit">
</g>
<g id="Duration">
</g>
<g id="Order">
</g>
<g id="Mobilization">
</g>
<g id="Transportation_x0D_Required">
</g>
<g id="Transportation_x0D_not_required">
</g>
<g id="Transportation_x0D_Customer">
</g>
<g id="Transportation_x0D_SLB">
</g>
<g id="Transportation">
</g>
<g id="Ocean_Rig">
</g>
<g id="Bit">
</g>
<g id="Crude">
</g>
<g id="Competency">
</g>
<g id="User_Add">
</g>
<g id="User_Delete">
</g>
<g id="User_Badge">
</g>
<g id="Crew_Template">
</g>
<g id="Crew">
</g>
<g id="User_Engg">
</g>
<g id="User_Sales">
</g>
<g id="Engg_Drawing">
</g>
<g id="Ticket">
</g>
<g id="Quote">
</g>
<g id="PDF">
</g>
<g id="Document_x0D_Download">
</g>
<g id="Reject_x0D__Document_Job">
</g>
<g id="Approve_Document_Job">
</g>
<g id="Hierarchy">
</g>
<g id="Admin">
</g>
<g id="Block">
</g>
<g id="Bank_Document">
</g>
<g id="Home">
</g>
<g id="Scheduler">
</g>
<g id="Zoom_Out">
</g>
<g id="Zoom_In">
</g>
<g id="Group">
</g>
<g id="Comment_Selected">
</g>
<g id="Comment">
</g>
<g id="Grip">
</g>
<g id="Favorite_Selected">
</g>
<g id="Favorite">
</g>
<g id="wellbore_x0D_geometry">
</g>
<g id="Drilling_Fluid">
</g>
<g id="Mud_Test">
</g>
<g id="QHSE_x2F_Safety">
</g>
<g id="Survey">
</g>
<g id="Shallow_Hole_Test">
</g>
<g id="LOGS">
</g>
<g id="Bha_Stroke">
</g>
<g id="Interpretation">
</g>
<g id="Wave_Plot">
</g>
<g id="Polar_Plot">
</g>
<g id="LOG">
</g>
<g id="Focal_Point">
</g>
<g id="Edge_Log">
</g>
<g id="More">
</g>
<g id="Hamburger">
</g>
<g id="Title_Text">
	<g id="earth" transform="translate(1227.000000, 1030.000000)">
		<path id="Shape_127_" fill="#3A414D" d="M-1216-1029c-5.5,0-10,4.5-10,10s4.5,10,10,10s10-4.5,10-10S-1210.5-1029-1216-1029z
			 M-1215.2-1022c0.9,0,1.8-0.2,2.6-0.3c0.2,0.8,0.3,1.7,0.3,2.6h-2.9V-1022z M-1215.2-1023.5v-3.8c0.9,0.5,1.7,1.7,2.2,3.5
			C-1213.7-1023.6-1214.5-1023.5-1215.2-1023.5z M-1216.8-1027.3v3.8c-0.8,0-1.5-0.1-2.2-0.3
			C-1218.4-1025.6-1217.6-1026.8-1216.8-1027.3z M-1216.8-1022v2.2h-2.9c0-0.9,0.1-1.8,0.3-2.6
			C-1218.5-1022.1-1217.6-1022-1216.8-1022z M-1221.1-1019.7h-3.3c0.1-1.5,0.6-2.9,1.4-4c0.7,0.4,1.4,0.8,2.2,1
			C-1221-1021.8-1221.1-1020.8-1221.1-1019.7z M-1221.1-1018.2c0,1.1,0.2,2.1,0.4,3c-0.8,0.3-1.5,0.6-2.2,1
			c-0.8-1.2-1.3-2.6-1.5-4.1H-1221.1z M-1219.6-1018.2h2.9v2.3c-0.9,0-1.7,0.2-2.6,0.3C-1219.5-1016.4-1219.6-1017.3-1219.6-1018.2z
			 M-1216.8-1014.5v3.8c-0.8-0.5-1.7-1.7-2.2-3.5C-1218.2-1014.3-1217.5-1014.4-1216.8-1014.5z M-1215.2-1010.7v-3.8
			c0.8,0,1.5,0.1,2.2,0.3C-1213.6-1012.4-1214.4-1011.2-1215.2-1010.7z M-1215.2-1016v-2.3h2.9c0,0.9-0.1,1.8-0.3,2.6
			C-1213.5-1015.8-1214.4-1015.9-1215.2-1016z M-1210.9-1018.2h3.3c-0.1,1.5-0.6,2.9-1.5,4.1c-0.7-0.4-1.4-0.8-2.2-1
			C-1211-1016.2-1210.9-1017.2-1210.9-1018.2z M-1210.9-1019.7c0-1-0.2-2-0.3-3c0.8-0.3,1.5-0.6,2.2-1c0.8,1.2,1.3,2.5,1.4,4
			H-1210.9L-1210.9-1019.7z M-1209.9-1025c-0.5,0.3-1.1,0.5-1.6,0.8c-0.3-1-0.7-1.9-1.2-2.7
			C-1211.7-1026.4-1210.7-1025.8-1209.9-1025z M-1219.2-1026.9c-0.5,0.7-0.9,1.6-1.2,2.7c-0.6-0.2-1.1-0.5-1.6-0.8
			C-1221.3-1025.8-1220.3-1026.4-1219.2-1026.9z M-1222-1013c0.5-0.3,1-0.5,1.6-0.7c0.3,1,0.7,1.9,1.2,2.6
			C-1220.3-1011.6-1221.2-1012.2-1222-1013z M-1212.8-1011.1c0.5-0.7,0.9-1.6,1.2-2.6c0.6,0.2,1.1,0.5,1.6,0.7
			C-1210.8-1012.2-1211.7-1011.6-1212.8-1011.1z"/>
	</g>
</g>
</svg>
