<?xml version="1.0" encoding="utf-8"?>
<!-- Generator: Adobe Illustrator 22.0.1, SVG Export Plug-In . SVG Version: 6.00 Build 0)  -->
<svg version="1.1" xmlns="http://www.w3.org/2000/svg" xmlns:xlink="http://www.w3.org/1999/xlink" x="0px" y="0px"
	 viewBox="0 0 22 22" enable-background="new 0 0 22 22" xml:space="preserve">
<g id="Insert_Below_x0D_Selected_Row">
</g>
<g id="Insert_Above_x0D__Selected_Row">
</g>
<g id="Tool">
</g>
<g id="Day_Off_Range">
</g>
<g id="Inport">
</g>
<g id="Inbox">
</g>
<g id="Discount">
</g>
<g id="Suitability">
</g>
<g id="Day_Off">
</g>
<g id="Day_off_Balance">
</g>
<g id="Reassign_User">
</g>
<g id="User_Managment">
</g>
<g id="Role_Managment">
</g>
<g id="Basket">
</g>
<g id="Planing_View">
</g>
<g id="Tag">
</g>
<g id="Ops_Locaiton">
</g>
<g id="Exchange">
</g>
<g id="Pie_Chart">
</g>
<g id="Travel">
</g>
<g id="Availablity">
</g>
<g id="Corner_Grip">
</g>
<g id="Bar_Chart">
</g>
<g id="Offline">
</g>
<g id="Online">
</g>
<g id="Global">
</g>
<g id="Arrow_Left">
</g>
<g id="Arrow_Right">
</g>
<g id="Arrow_Up">
</g>
<g id="Arrow_Down">
</g>
<g id="Dasktop">
</g>
<g id="Laptop">
</g>
<g id="Tablet">
</g>
<g id="Mobile">
</g>
<g id="Pack">
</g>
<g id="Unpack">
</g>
<g id="Sign_Off">
</g>
<g id="Link">
</g>
<g id="Hole_Section">
</g>
<g id="Export">
</g>
<g id="Column_x0D_Chooser">
</g>
<g id="Quadrant">
</g>
<g id="Utilization">
</g>
<g id="Loading_Limit">
</g>
<g id="Duration">
</g>
<g id="Order">
</g>
<g id="Mobilization">
</g>
<g id="Transportation_x0D_Required">
</g>
<g id="Transportation_x0D_not_required">
</g>
<g id="Transportation_x0D_Customer">
</g>
<g id="Transportation_x0D_SLB">
</g>
<g id="Transportation">
</g>
<g id="Ocean_Rig">
</g>
<g id="Bit">
</g>
<g id="Crude">
</g>
<g id="Competency">
</g>
<g id="User_Add">
</g>
<g id="User_Delete">
</g>
<g id="User_Badge">
</g>
<g id="Crew_Template">
</g>
<g id="Crew">
</g>
<g id="User_Engg">
</g>
<g id="User_Sales">
</g>
<g id="Engg_Drawing">
</g>
<g id="Ticket">
</g>
<g id="Quote">
</g>
<g id="PDF">
</g>
<g id="Document_x0D_Download">
</g>
<g id="Reject_x0D__Document_Job">
</g>
<g id="Approve_Document_Job">
</g>
<g id="Hierarchy">
</g>
<g id="Admin">
</g>
<g id="Block">
</g>
<g id="Bank_Document">
</g>
<g id="Home">
</g>
<g id="Scheduler">
</g>
<g id="Zoom_Out">
</g>
<g id="Zoom_In">
</g>
<g id="Group">
</g>
<g id="Comment_Selected">
</g>
<g id="Comment">
</g>
<g id="Grip">
</g>
<g id="Favorite_Selected">
</g>
<g id="Favorite">
</g>
<g id="wellbore_x0D_geometry">
</g>
<g id="Drilling_Fluid">
</g>
<g id="Mud_Test">
</g>
<g id="QHSE_x2F_Safety">
</g>
<g id="Survey">
</g>
<g id="Shallow_Hole_Test">
</g>
<g id="LOGS">
</g>
<g id="Bha_Stroke">
</g>
<g id="Interpretation">
</g>
<g id="Wave_Plot">
</g>
<g id="Polar_Plot">
</g>
<g id="LOG">
</g>
<g id="Focal_Point">
</g>
<g id="Edge_Log">
</g>
<g id="More">
</g>
<g id="Hamburger">
</g>
<g id="Title_Text">
	<g>
		<path fill="#3A414D" d="M14.1,14.2c-1.7,0-3.1,1.4-3.1,3.1c0,1.7,1.4,3.1,3.1,3.1c1.7,0,3.1-1.4,3.1-3.1
			C17.2,15.6,15.8,14.2,14.1,14.2z M14.1,18.9c-0.9,0-1.6-0.7-1.6-1.6c0-0.9,0.7-1.6,1.6-1.6c0.9,0,1.6,0.7,1.6,1.6
			C15.7,18.2,15,18.9,14.1,18.9z"/>
		<path fill="#3A414D" d="M1,13l9,4c0.1-0.6,0.2-1,0.4-1.5l-8.8-3.9L1,13z"/>
		<polygon fill="#3A414D" points="13.9,6 11.6,5 10.2,8 6.6,6.5 8,3.4 5.7,2.4 2,10.7 10.1,14.3 		"/>
		<path fill="#3A414D" d="M16.9,1.6l-5.5,12.9c0.6-0.5,1.3-0.9,2.1-1l4.2-9.8l2.7,1.2L21,3.4L16.9,1.6z"/>
	</g>
</g>
</svg>
