<?xml version="1.0" encoding="utf-8"?>
<!-- Generator: Adobe Illustrator 22.0.1, SVG Export Plug-In . SVG Version: 6.00 Build 0)  -->
<svg version="1.1" xmlns="http://www.w3.org/2000/svg" xmlns:xlink="http://www.w3.org/1999/xlink" x="0px" y="0px"
	 viewBox="0 0 22 22" enable-background="new 0 0 22 22" xml:space="preserve">
<g id="Insert_Below_x0D_Selected_Row">
</g>
<g id="Insert_Above_x0D__Selected_Row">
</g>
<g id="Tool">
</g>
<g id="Day_Off_Range">
</g>
<g id="Inport">
</g>
<g id="Inbox">
</g>
<g id="Discount">
</g>
<g id="Suitability">
</g>
<g id="Day_Off">
</g>
<g id="Day_off_Balance">
</g>
<g id="Reassign_User">
</g>
<g id="User_Managment">
</g>
<g id="Role_Managment">
</g>
<g id="Basket">
</g>
<g id="Planing_View">
</g>
<g id="Tag">
</g>
<g id="Ops_Locaiton">
</g>
<g id="Exchange">
</g>
<g id="Pie_Chart">
</g>
<g id="Travel">
</g>
<g id="Availablity">
</g>
<g id="Corner_Grip">
</g>
<g id="Bar_Chart">
</g>
<g id="Offline">
</g>
<g id="Online">
</g>
<g id="Global">
</g>
<g id="Arrow_Left">
</g>
<g id="Arrow_Right">
</g>
<g id="Arrow_Up">
</g>
<g id="Arrow_Down">
</g>
<g id="Dasktop">
</g>
<g id="Laptop">
</g>
<g id="Tablet">
</g>
<g id="Mobile">
</g>
<g id="Pack">
</g>
<g id="Unpack">
</g>
<g id="Sign_Off">
</g>
<g id="Link">
</g>
<g id="Hole_Section">
</g>
<g id="Export">
</g>
<g id="Column_x0D_Chooser">
</g>
<g id="Quadrant">
</g>
<g id="Utilization">
</g>
<g id="Loading_Limit">
</g>
<g id="Duration">
</g>
<g id="Order">
</g>
<g id="Mobilization">
</g>
<g id="Transportation_x0D_Required">
</g>
<g id="Transportation_x0D_not_required">
</g>
<g id="Transportation_x0D_Customer">
</g>
<g id="Transportation_x0D_SLB">
</g>
<g id="Transportation">
</g>
<g id="Ocean_Rig">
	<g>
		<path fill="#3A414D" d="M20.7,13.2H19L13.7,1L8.1,13.2H7.7v-3.2H2v3.2H1.3v1.5h19.4V13.2z M3.5,11.6h2.6v1.7H3.5V11.6z M15.9,9.9
			l-1-0.8l0.5-0.4L15.9,9.9z M14.8,7.3l-1.1,0.8l-1.2-0.9l1.2-2.5L14.8,7.3z M12.5,9.1l-1.2,0.9l0.6-1.3L12.5,9.1z M10,12.7l3.7-2.7
			l3.5,2.7l0.2,0.5H9.8L10,12.7z"/>
		<path fill="#3A414D" d="M20.3,19.1c-0.3-0.4-0.7-1-1.5-1c-0.8,0-1.3,0.6-1.5,1c-0.2,0.3-0.3,0.4-0.4,0.4c-0.1,0-0.2,0-0.4-0.4
			c-0.3-0.4-0.7-1-1.5-1c-0.8,0-1.3,0.6-1.5,1c-0.2,0.3-0.3,0.4-0.4,0.4h-0.3c-0.1,0-0.2,0-0.4-0.4c-0.3-0.4-0.7-1-1.5-1
			c-0.8,0-1.3,0.6-1.5,1c-0.2,0.3-0.3,0.4-0.4,0.4c-0.1,0-0.2,0-0.4-0.4c-0.3-0.4-0.7-1-1.5-1c-0.8,0-1.3,0.6-1.5,1
			c-0.2,0.3-0.3,0.4-0.4,0.4c-0.1,0-0.2,0-0.4-0.4c-0.3-0.4-0.7-1-1.5-1c-0.8,0-1.3,0.6-1.5,1c-0.2,0.3-0.3,0.4-0.4,0.4V21
			c0.9,0,1.3-0.6,1.6-1c0.1-0.2,0.2-0.3,0.3-0.3c0.1,0,0.2,0.1,0.3,0.3c0.3,0.4,0.7,1,1.6,1c0.9,0,1.3-0.6,1.6-1
			c0.1-0.2,0.2-0.3,0.3-0.3s0.2,0.1,0.3,0.3c0.3,0.4,0.7,1,1.6,1c0.9,0,1.3-0.6,1.6-1c0.1-0.2,0.2-0.3,0.3-0.3
			c0.1,0,0.2,0.1,0.3,0.3c0.3,0.4,0.7,1,1.6,1H13c0.9,0,1.3-0.6,1.6-1c0.1-0.2,0.2-0.3,0.3-0.3c0.1,0,0.2,0.1,0.3,0.3
			c0.3,0.4,0.7,1,1.6,1c0.9,0,1.3-0.6,1.6-1c0.1-0.2,0.2-0.3,0.3-0.3s0.2,0.1,0.3,0.3c0.3,0.4,0.7,1,1.6,1v-1.5
			C20.6,19.5,20.5,19.4,20.3,19.1z"/>
		<path fill="#3A414D" d="M20.4,16.3c-0.3-0.4-0.7-1-1.5-1c-0.8,0-1.3,0.6-1.5,1c-0.2,0.3-0.3,0.4-0.4,0.4c-0.1,0-0.2,0-0.4-0.4
			c-0.3-0.4-0.7-1-1.5-1c-0.8,0-1.3,0.6-1.5,1c-0.2,0.3-0.3,0.4-0.4,0.4h-0.3c-0.1,0-0.2,0-0.4-0.4c-0.3-0.4-0.7-1-1.5-1
			c-0.8,0-1.3,0.6-1.5,1c-0.2,0.3-0.3,0.4-0.4,0.4c-0.1,0-0.2,0-0.4-0.4c-0.3-0.4-0.7-1-1.5-1c-0.8,0-1.3,0.6-1.5,1
			c-0.2,0.3-0.3,0.4-0.4,0.4c-0.1,0-0.2,0-0.4-0.4c-0.3-0.4-0.7-1-1.5-1c-0.8,0-1.3,0.6-1.5,1c-0.2,0.3-0.3,0.4-0.4,0.4v1.5
			c0.9,0,1.3-0.6,1.6-1C3,17,3.2,16.8,3.2,16.8s0.2,0.1,0.3,0.3c0.3,0.4,0.7,1,1.6,1c0.9,0,1.3-0.6,1.6-1C6.9,17,7,16.8,7.1,16.8
			s0.2,0.1,0.3,0.3c0.3,0.4,0.7,1,1.6,1c0.9,0,1.3-0.6,1.6-1c0.1-0.2,0.2-0.3,0.3-0.3c0.1,0,0.2,0.1,0.3,0.3c0.3,0.4,0.7,1,1.6,1
			h0.3c0.9,0,1.3-0.6,1.6-1c0.1-0.2,0.2-0.3,0.3-0.3c0.1,0,0.2,0.1,0.3,0.3c0.3,0.4,0.7,1,1.6,1c0.9,0,1.3-0.6,1.6-1
			c0.1-0.2,0.2-0.3,0.3-0.3s0.2,0.1,0.3,0.3c0.3,0.4,0.7,1,1.6,1v-1.5C20.7,16.7,20.6,16.6,20.4,16.3z"/>
	</g>
</g>
<g id="Bit">
</g>
<g id="Crude">
</g>
<g id="Competency">
</g>
<g id="User_Add">
</g>
<g id="User_Delete">
</g>
<g id="User_Badge">
</g>
<g id="Crew_Template">
</g>
<g id="Crew">
</g>
<g id="User_Engg">
</g>
<g id="User_Sales">
</g>
<g id="Engg_Drawing">
</g>
<g id="Ticket">
</g>
<g id="Quote">
</g>
<g id="PDF">
</g>
<g id="Document_x0D_Download">
</g>
<g id="Reject_x0D__Document_Job">
</g>
<g id="Approve_Document_Job">
</g>
<g id="Hierarchy">
</g>
<g id="Admin">
</g>
<g id="Block">
</g>
<g id="Bank_Document">
</g>
<g id="Home">
</g>
<g id="Scheduler">
</g>
<g id="Zoom_Out">
</g>
<g id="Zoom_In">
</g>
<g id="Group">
</g>
<g id="Comment_Selected">
</g>
<g id="Comment">
</g>
<g id="Grip">
</g>
<g id="Favorite_Selected">
</g>
<g id="Favorite">
</g>
<g id="wellbore_x0D_geometry">
</g>
<g id="Drilling_Fluid">
</g>
<g id="Mud_Test">
</g>
<g id="QHSE_x2F_Safety">
</g>
<g id="Survey">
</g>
<g id="Shallow_Hole_Test">
</g>
<g id="LOGS">
</g>
<g id="Bha_Stroke">
</g>
<g id="Interpretation">
</g>
<g id="Wave_Plot">
</g>
<g id="Polar_Plot">
</g>
<g id="LOG">
</g>
<g id="Focal_Point">
</g>
<g id="Edge_Log">
</g>
<g id="More">
</g>
<g id="Hamburger">
</g>
<g id="Title_Text">
</g>
</svg>
