<?xml version="1.0" encoding="utf-8"?>
<!-- Generator: Adobe Illustrator 22.0.1, SVG Export Plug-In . SVG Version: 6.00 Build 0)  -->
<svg version="1.1" xmlns="http://www.w3.org/2000/svg" xmlns:xlink="http://www.w3.org/1999/xlink" x="0px" y="0px"
	 viewBox="0 0 22 22" enable-background="new 0 0 22 22" xml:space="preserve">
<g id="Insert_Below_x0D_Selected_Row">
</g>
<g id="Insert_Above_x0D__Selected_Row">
</g>
<g id="Tool">
</g>
<g id="Day_Off_Range">
</g>
<g id="Inport">
</g>
<g id="Inbox">
</g>
<g id="Discount">
</g>
<g id="Suitability">
</g>
<g id="Day_Off">
</g>
<g id="Day_off_Balance">
</g>
<g id="Reassign_User">
</g>
<g id="User_Managment">
</g>
<g id="Role_Managment">
</g>
<g id="Basket">
</g>
<g id="Planing_View">
</g>
<g id="Tag">
</g>
<g id="Ops_Locaiton">
</g>
<g id="Exchange">
</g>
<g id="Pie_Chart">
</g>
<g id="Travel">
</g>
<g id="Availablity">
</g>
<g id="Corner_Grip">
</g>
<g id="Bar_Chart">
</g>
<g id="Offline">
</g>
<g id="Online">
</g>
<g id="Global">
</g>
<g id="Arrow_Left">
</g>
<g id="Arrow_Right">
</g>
<g id="Arrow_Up">
</g>
<g id="Arrow_Down">
</g>
<g id="Dasktop">
</g>
<g id="Laptop">
</g>
<g id="Tablet">
</g>
<g id="Mobile">
</g>
<g id="Pack">
</g>
<g id="Unpack">
</g>
<g id="Sign_Off">
</g>
<g id="Link">
</g>
<g id="Hole_Section">
</g>
<g id="Export">
</g>
<g id="Column_x0D_Chooser">
</g>
<g id="Quadrant">
</g>
<g id="Utilization">
</g>
<g id="Loading_Limit">
</g>
<g id="Duration">
</g>
<g id="Order">
</g>
<g id="Mobilization">
</g>
<g id="Transportation_x0D_Required">
</g>
<g id="Transportation_x0D_not_required">
</g>
<g id="Transportation_x0D_Customer">
</g>
<g id="Transportation_x0D_SLB">
</g>
<g id="Transportation">
</g>
<g id="Ocean_Rig">
</g>
<g id="Bit">
</g>
<g id="Crude">
</g>
<g id="Competency">
</g>
<g id="User_Add">
</g>
<g id="User_Delete">
</g>
<g id="User_Badge">
</g>
<g id="Crew_Template">
</g>
<g id="Crew">
</g>
<g id="User_Engg">
</g>
<g id="User_Sales">
</g>
<g id="Engg_Drawing">
</g>
<g id="Ticket">
</g>
<g id="Quote">
</g>
<g id="PDF">
	<g id="pdf" transform="translate(732.000000, 1129.000000)">
		<g id="Group_6_" transform="translate(0.000000, 6.000000)">
			<path id="Shape_56_" fill="#3A414D" d="M-729.4-1122.8v2.7h-1.6v-7.7h3c0.6,0,1.1,0.1,1.5,0.3c0.4,0.2,0.8,0.5,1,0.9
				s0.4,0.8,0.4,1.3c0,0.8-0.3,1.4-0.8,1.8c-0.5,0.4-1.2,0.7-2.1,0.7H-729.4z M-729.4-1124h1.4c0.4,0,0.7-0.1,1-0.3
				c0.2-0.2,0.3-0.5,0.3-0.8c0-0.4-0.1-0.7-0.3-0.9c-0.2-0.2-0.5-0.4-0.9-0.4h-1.5V-1124z"/>
			<path id="Shape_57_" fill="#3A414D" d="M-724-1120v-7.7h2.4c0.7,0,1.3,0.2,1.8,0.5c0.5,0.3,1,0.7,1.3,1.3
				c0.3,0.6,0.5,1.2,0.5,1.9v0.4c0,0.7-0.1,1.4-0.4,1.9c-0.3,0.6-0.7,1-1.2,1.3c-0.5,0.3-1.1,0.5-1.8,0.5H-724L-724-1120z
				 M-722.4-1126.5v5.2h0.8c0.6,0,1.1-0.2,1.4-0.6s0.5-1,0.5-1.7v-0.4c0-0.8-0.2-1.4-0.5-1.8c-0.3-0.4-0.8-0.6-1.4-0.6H-722.4z"/>
			<polygon id="Shape_58_" fill="#3A414D" points="-711.4,-1123.2 -714.4,-1123.2 -714.4,-1120 -716,-1120 -716,-1127.8 
				-711,-1127.8 -711,-1126.5 -714.4,-1126.5 -714.4,-1124.5 -711.4,-1124.5 			"/>
		</g>
		<polygon id="Shape_59_" fill="#3A414D" points="-711,-1123.8 -712.5,-1123.8 -712.5,-1126.5 -729.5,-1126.5 -729.5,-1123.8 
			-731,-1123.8 -731,-1128 -711,-1128 		"/>
		<polygon id="Shape_60_" fill="#3A414D" points="-711,-1108 -731,-1108 -731,-1112.2 -729.5,-1112.2 -729.5,-1109.5 
			-712.5,-1109.5 -712.5,-1112.2 -711,-1112.2 		"/>
	</g>
</g>
<g id="Document_x0D_Download">
</g>
<g id="Reject_x0D__Document_Job">
</g>
<g id="Approve_Document_Job">
</g>
<g id="Hierarchy">
</g>
<g id="Admin">
</g>
<g id="Block">
</g>
<g id="Bank_Document">
</g>
<g id="Home">
</g>
<g id="Scheduler">
</g>
<g id="Zoom_Out">
</g>
<g id="Zoom_In">
</g>
<g id="Group">
</g>
<g id="Comment_Selected">
</g>
<g id="Comment">
</g>
<g id="Grip">
</g>
<g id="Favorite_Selected">
</g>
<g id="Favorite">
</g>
<g id="wellbore_x0D_geometry">
</g>
<g id="Drilling_Fluid">
</g>
<g id="Mud_Test">
</g>
<g id="QHSE_x2F_Safety">
</g>
<g id="Survey">
</g>
<g id="Shallow_Hole_Test">
</g>
<g id="LOGS">
</g>
<g id="Bha_Stroke">
</g>
<g id="Interpretation">
</g>
<g id="Wave_Plot">
</g>
<g id="Polar_Plot">
</g>
<g id="LOG">
</g>
<g id="Focal_Point">
</g>
<g id="Edge_Log">
</g>
<g id="More">
</g>
<g id="Hamburger">
</g>
<g id="Title_Text">
</g>
</svg>
