<?xml version="1.0" encoding="utf-8"?>
<!-- Generator: Adobe Illustrator 22.0.1, SVG Export Plug-In . SVG Version: 6.00 Build 0)  -->
<svg version="1.1" xmlns="http://www.w3.org/2000/svg" xmlns:xlink="http://www.w3.org/1999/xlink" x="0px" y="0px"
	 viewBox="0 0 22 22" enable-background="new 0 0 22 22" xml:space="preserve">
<g id="Insert_Below_x0D_Selected_Row">
</g>
<g id="Insert_Above_x0D__Selected_Row">
</g>
<g id="Tool">
</g>
<g id="Day_Off_Range">
</g>
<g id="Inport">
</g>
<g id="Inbox">
</g>
<g id="Discount">
</g>
<g id="Suitability">
</g>
<g id="Day_Off">
</g>
<g id="Day_off_Balance">
</g>
<g id="Reassign_User">
</g>
<g id="User_Managment">
</g>
<g id="Role_Managment">
</g>
<g id="Basket">
</g>
<g id="Planing_View">
</g>
<g id="Tag">
</g>
<g id="Ops_Locaiton">
</g>
<g id="Exchange">
</g>
<g id="Pie_Chart">
</g>
<g id="Travel">
</g>
<g id="Availablity">
</g>
<g id="Corner_Grip">
</g>
<g id="Bar_Chart">
</g>
<g id="Offline">
</g>
<g id="Online">
</g>
<g id="Global">
</g>
<g id="Arrow_Left">
</g>
<g id="Arrow_Right">
</g>
<g id="Arrow_Up">
</g>
<g id="Arrow_Down">
</g>
<g id="Dasktop">
</g>
<g id="Laptop">
</g>
<g id="Tablet">
</g>
<g id="Mobile">
</g>
<g id="Pack">
</g>
<g id="Unpack">
</g>
<g id="Sign_Off">
</g>
<g id="Link">
</g>
<g id="Hole_Section">
</g>
<g id="Export">
</g>
<g id="Column_x0D_Chooser">
</g>
<g id="Quadrant">
</g>
<g id="Utilization">
</g>
<g id="Loading_Limit">
</g>
<g id="Duration">
</g>
<g id="Order">
</g>
<g id="Mobilization">
</g>
<g id="Transportation_x0D_Required">
</g>
<g id="Transportation_x0D_not_required">
</g>
<g id="Transportation_x0D_Customer">
</g>
<g id="Transportation_x0D_SLB">
</g>
<g id="Transportation">
</g>
<g id="Ocean_Rig">
</g>
<g id="Bit">
</g>
<g id="Crude">
</g>
<g id="Competency">
</g>
<g id="User_Add">
</g>
<g id="User_Delete">
</g>
<g id="User_Badge">
</g>
<g id="Crew_Template">
</g>
<g id="Crew">
</g>
<g id="User_Engg">
	<g id="engg" transform="translate(138.000000, 1030.000000)">
		<path id="Shape_150_" fill="#3A414D" d="M-123.8-1018.4c0.3-0.2,0.7-0.5,1-0.9c0.8-0.9,1.2-2,1.3-3.2h0.6v-1.5h-0.7
			c-0.5-2.2-2.2-3.9-4.5-4.2c0,0-0.1,0-0.1,0v-0.8h-1.5v0.8c-1.3,0.2-2.5,0.8-3.4,1.8c-0.6,0.7-1,1.5-1.2,2.4h-0.7v1.5h0.6
			c0,0.2,0,0.3,0.1,0.5c0.2,1.5,1,2.7,2.2,3.6c-3.8,1.3-6.8,5.2-6.8,9.4h1.5c0-4.3,3.9-8.4,7.9-8.4h1.1c4.1,0,7.9,4.1,7.9,8.4h1.5
			C-117-1013.2-120-1017.1-123.8-1018.4 M-130-1025.4c0.6-0.7,1.4-1.1,2.3-1.3v0.9h1.5v-0.9c1.4,0.3,2.6,1.3,3,2.7h-7.6
			C-130.6-1024.5-130.4-1025-130-1025.4 M-130.9-1022.2c0-0.1,0-0.2,0-0.3h7.9c-0.1,0.8-0.4,1.6-0.9,2.2c-0.9,1-2.2,1.6-3.6,1.3
			C-129.3-1019.2-130.7-1020.6-130.9-1022.2"/>
	</g>
</g>
<g id="User_Sales">
</g>
<g id="Engg_Drawing">
</g>
<g id="Ticket">
</g>
<g id="Quote">
</g>
<g id="PDF">
</g>
<g id="Document_x0D_Download">
</g>
<g id="Reject_x0D__Document_Job">
</g>
<g id="Approve_Document_Job">
</g>
<g id="Hierarchy">
</g>
<g id="Admin">
</g>
<g id="Block">
</g>
<g id="Bank_Document">
</g>
<g id="Home">
</g>
<g id="Scheduler">
</g>
<g id="Zoom_Out">
</g>
<g id="Zoom_In">
</g>
<g id="Group">
</g>
<g id="Comment_Selected">
</g>
<g id="Comment">
</g>
<g id="Grip">
</g>
<g id="Favorite_Selected">
</g>
<g id="Favorite">
</g>
<g id="wellbore_x0D_geometry">
</g>
<g id="Drilling_Fluid">
</g>
<g id="Mud_Test">
</g>
<g id="QHSE_x2F_Safety">
</g>
<g id="Survey">
</g>
<g id="Shallow_Hole_Test">
</g>
<g id="LOGS">
</g>
<g id="Bha_Stroke">
</g>
<g id="Interpretation">
</g>
<g id="Wave_Plot">
</g>
<g id="Polar_Plot">
</g>
<g id="LOG">
</g>
<g id="Focal_Point">
</g>
<g id="Edge_Log">
</g>
<g id="More">
</g>
<g id="Hamburger">
</g>
<g id="Title_Text">
</g>
</svg>
