<?xml version="1.0" encoding="utf-8"?>
<!-- Generator: Adobe Illustrator 22.0.1, SVG Export Plug-In . SVG Version: 6.00 Build 0)  -->
<svg version="1.1" id="Layer_1" xmlns="http://www.w3.org/2000/svg" xmlns:xlink="http://www.w3.org/1999/xlink" x="0px" y="0px"
	 viewBox="0 0 22 22" enable-background="new 0 0 22 22" xml:space="preserve">
<g>
	<path fill="#333F4B" d="M11,1L2.7,5.1v2.6c0,3.9,1.7,7.7,4.6,10.3l3.7,3l3.7-3c3-2.6,4.6-6.4,4.6-10.3V5.1L11,1z M17.8,7.7
		c0,3.5-1.5,6.9-4.1,9.2L11,19.1l-2.7-2.2c-2.6-2.3-4.1-5.7-4.1-9.2V6L11,2.7L17.8,6V7.7z"/>
	<polygon fill="#333F4B" points="10.3,5.1 10.3,9.2 6,9.2 6,10.7 10.3,10.7 10.3,15.1 11.8,15.1 11.8,10.7 16,10.7 16,9.2 11.8,9.2 
		11.8,5.1 	"/>
</g>
</svg>
