<?xml version="1.0" encoding="utf-8"?>
<!-- Generator: Adobe Illustrator 22.0.1, SVG Export Plug-In . SVG Version: 6.00 Build 0)  -->
<svg version="1.1" id="Layer_1" xmlns="http://www.w3.org/2000/svg" xmlns:xlink="http://www.w3.org/1999/xlink" x="0px" y="0px"
	 viewBox="0 0 22 22" enable-background="new 0 0 22 22" xml:space="preserve">
<g id="dashboard_2" transform="translate(336.000000, 1232.000000)">
	<path id="Shape_49_" fill="#333F4B" d="M-315-1216.7c0-5.5-4.5-10-10-10s-10,4.5-10,10h1.5c0-2,0.7-3.9,1.9-5.4l1.7,1.7l1.1-1.1
		l-1.7-1.7c1.3-1.1,3-1.9,4.8-2v2.4h1.5v-2.4c1.8,0.2,3.5,0.9,4.8,2l-1.7,1.7l1.1,1.1l1.7-1.7c1.2,1.5,1.9,3.3,1.9,5.4H-315z"/>
	<path id="Shape_50_" fill="#333F4B" d="M-323.8-1216.1L-323.8-1216.1L-323.8-1216.1c0-0.1,0.1-0.2,0.1-0.3l1.3-4.7c0,0,0,0,0,0
		c0.1-0.3,0-0.6-0.3-0.7c-0.3-0.1-0.6,0-0.7,0.3c0,0,0,0,0,0v0l-2.6,4.1c-0.1,0.1-0.1,0.2-0.2,0.3l0,0l0,0c0,0,0,0,0,0
		c-0.3,0.7,0,1.4,0.7,1.7C-324.9-1215.1-324.1-1215.4-323.8-1216.1C-323.8-1216.1-323.8-1216.1-323.8-1216.1z"/>
</g>
</svg>
