<?xml version="1.0" encoding="utf-8"?>
<!-- Generator: Adobe Illustrator 22.0.1, SVG Export Plug-In . SVG Version: 6.00 Build 0)  -->
<svg version="1.1" id="Layer_1" xmlns="http://www.w3.org/2000/svg" xmlns:xlink="http://www.w3.org/1999/xlink" x="0px" y="0px"
	 viewBox="0 0 22 22" enable-background="new 0 0 22 22" xml:space="preserve">
<g transform="matrix(1 0 0 -1 0 857)">
	<path fill="#333F4B" d="M17,852c-1.1,1.1-2.4,1.8-3.8,2.2s-2.9,0.4-4.4,0S6.1,853.1,5,852s-1.8-2.4-2.2-3.8s-0.4-2.9,0-4.4
		s1.1-2.7,2.2-3.8s2.4-1.8,3.8-2.2s2.9-0.4,4.4,0s2.7,1.1,3.8,2.2s1.8,2.4,2.2,3.8s0.4,2.9,0,4.4S18.1,850.9,17,852z M18.1,853.1
		c1-1,1.7-2.1,2.2-3.3c0.5-1.2,0.7-2.5,0.7-3.8s-0.2-2.5-0.7-3.8c-0.5-1.2-1.2-2.3-2.2-3.3s-2.1-1.7-3.3-2.2S12.3,836,11,836
		s-2.5,0.2-3.8,0.7s-2.4,1.2-3.3,2.2s-1.7,2.1-2.2,3.3S1,844.7,1,846s0.2,2.5,0.7,3.8s1.2,2.3,2.2,3.3s2.1,1.7,3.3,2.2
		S9.7,856,11,856s2.5-0.2,3.8-0.7S17.1,854,18.1,853.1z M6.9,849L8,850l7.1-7.2l-1.1-1.1L6.9,849z M14,850.1L15,849l-7.1-7.2
		L6.9,843L14,850.1z"/>
</g>
</svg>
