<?xml version="1.0" encoding="utf-8"?>
<!-- Generator: Adobe Illustrator 22.0.1, SVG Export Plug-In . SVG Version: 6.00 Build 0)  -->
<svg version="1.1" id="Layer_1" xmlns="http://www.w3.org/2000/svg" xmlns:xlink="http://www.w3.org/1999/xlink" x="0px" y="0px"
	 viewBox="0 0 22 22" enable-background="new 0 0 22 22" xml:space="preserve">
<path fill="#333F4B" d="M20.4,17.3l-2.6-2.4c0.4-0.7,0.7-1.5,0.9-2.4h2v-1.3v-0.5V9.5h-2c-0.2-1.1-0.6-2.1-1.2-2.9l1.4-1.4l-0.5-0.5
	l1.8-1.8l-1.1-1.1l-1.8,1.8l-0.6-0.6l-1.4,1.4c-0.9-0.6-1.9-1-2.9-1.2v-2h-1.3h-0.5H9.3v2C8.3,3.4,7.3,3.8,6.4,4.4L5,2.9L4.1,3.9
	L3.7,4.2L2.8,5.1l1.4,1.4C3.6,7.4,3.2,8.4,3,9.5H1v1.3v0.5v1.3h2c0.2,1.1,0.6,2.1,1.2,2.9l-1.4,1.4l0.6,0.6l-1.9,1.9l1.1,1.1
	l1.9-1.9L5,19.1l1.4-1.4c0.9,0.6,1.9,1,2.9,1.2v2h1.3h0.5h1.3v-2c1.1-0.2,2-0.6,2.9-1.2l2.6,2.4c0.8,0.7,1.9,0.6,2.6-0.1
	c0.4-0.4,0.5-0.9,0.5-1.3C21,18.1,20.8,17.6,20.4,17.3z M14.9,12.2c0.1-0.4,0.2-0.8,0.1-1.2c0-0.8-0.3-1.6-0.8-2.2L16,7.1
	c0.8,1.1,1.3,2.5,1.3,3.9c0,1-0.2,2-0.7,2.9L14.9,12.2z M7.6,13.3l-1.8,1.8C4.9,14,4.4,12.6,4.4,11c0-3.6,2.9-6.5,6.5-6.5
	c1.6,0,3,0.6,4.1,1.5l-1.8,1.8c-0.7-0.4-1.5-0.7-2.3-0.6c-0.5,0-1,0.1-1.4,0.3l2.1,1.9l-2.4,2.4l-2-1.9C7,10.4,7,10.9,7,11.4
	C7,12.1,7.2,12.8,7.6,13.3z M10.9,17.5c-1.5,0-2.8-0.5-3.9-1.3l1.7-1.7c0.7,0.5,1.6,0.8,2.5,0.8c0.4,0,0.8-0.1,1.2-0.2l1.7,1.6
	C13.2,17.2,12.1,17.5,10.9,17.5z"/>
</svg>
