<?xml version="1.0" encoding="utf-8"?>
<!-- Generator: Adobe Illustrator 22.0.1, SVG Export Plug-In . SVG Version: 6.00 Build 0)  -->
<svg version="1.1" id="Layer_1" xmlns="http://www.w3.org/2000/svg" xmlns:xlink="http://www.w3.org/1999/xlink" x="0px" y="0px"
	 viewBox="0 0 22 22" enable-background="new 0 0 22 22" xml:space="preserve">
<g transform="matrix(1 0 0 -1 0 857)">
	<path fill="#333F4B" d="M11.2,843.1c1.4-0.6,2.5-1.5,3.3-2.8c0.9-1.3,1.3-2.7,1.4-4.3H1c0.1,1.6,0.5,3,1.4,4.3s2,2.2,3.3,2.8
		c-0.5,0.4-0.9,0.9-1.2,1.5c-0.3,0.6-0.4,1.2-0.4,1.9c0.1,1.2,0.5,2.3,1.4,3.1s1.9,1.3,3,1.3c1.2,0,2.2-0.4,3-1.3s1.3-1.9,1.3-3.2
		C12.7,845.1,12.2,844,11.2,843.1z M13.2,846.5c0,0.9-0.3,1.9-1,3.1c0.5,0.5,1,0.9,1.4,1c-0.6,0.6-0.9,1.4-0.9,2.2
		c0.1,0.9,0.4,1.7,1.1,2.3s1.4,0.9,2.2,0.8c0.8-0.1,1.5-0.4,2.1-1c0.6-0.6,0.9-1.3,0.9-2.2c0-0.8-0.3-1.6-0.9-2.2
		c0.9-0.4,1.5-1.1,2-1.9c0.5-0.8,0.8-1.8,0.8-2.9h-7.9C13.2,846,13.2,846.2,13.2,846.5z"/>
</g>
</svg>
