<?xml version="1.0" encoding="utf-8"?>
<!-- Generator: Adobe Illustrator 22.0.1, SVG Export Plug-In . SVG Version: 6.00 Build 0)  -->
<svg version="1.1" id="Layer_1" xmlns="http://www.w3.org/2000/svg" xmlns:xlink="http://www.w3.org/1999/xlink" x="0px" y="0px"
	 viewBox="0 0 22 22" enable-background="new 0 0 22 22" xml:space="preserve">
<g transform="matrix(1 0 0 -1 0 857)">
	<path fill="#333F4B" d="M17.5,846.2c0.4-1,0.6-2,0.6-3c0-2-0.7-3.7-2.1-5.1c-1.4-1.4-3.1-2.1-5.1-2.1s-3.7,0.7-5.1,2.1
		c-1.4,1.4-2.1,3.1-2.1,5.1c0,1,0.2,2,0.6,3L11,856L17.5,846.2z M12.2,842.8c0.1-0.8,0.4-1.3,0.9-1.6c0.5-0.3,1-0.2,1.5,0.1
		s0.7,1,0.7,1.9c-0.3,1-0.7,2.1-1.5,3.3c-0.7,1.3-1.4,2.3-1.9,3.1l-0.9,1.2c0.4-1.9,0.7-3.5,0.9-4.8c0.2-1.4,0.3-2.2,0.3-2.7
		L12.2,842.8z"/>
</g>
</svg>
