<?xml version="1.0" encoding="utf-8"?>
<!-- Generator: Adobe Illustrator 22.0.1, SVG Export Plug-In . SVG Version: 6.00 Build 0)  -->
<svg version="1.1" id="Layer_1" xmlns="http://www.w3.org/2000/svg" xmlns:xlink="http://www.w3.org/1999/xlink" x="0px" y="0px"
	 viewBox="0 0 22 22" enable-background="new 0 0 22 22" xml:space="preserve">
<g id="database" transform="translate(1623.000000, 535.000000)">
	<path id="Shape_84_" fill="#333F4B" d="M-1602-530.6l0-0.1l0-0.1c-0.2-1.6-4.3-3.2-10-3.2s-9.8,1.7-10,3.2l0,0.1l0,0.1
		c0,0.1,0,0.1,0,0.2h-0.1v5v0.4v4v0.4v4.4l0.5,0.2c3.1,1.4,6.3,2.1,9.4,2.1c3.2,0,6.4-0.7,9.6-2.1l0.5-0.2v-4.4v-0.5v-3.9v-0.5
		L-1602-530.6L-1602-530.6C-1602-530.5-1602-530.6-1602-530.6z M-1620.5-524.4c2.8,1.1,5.5,1.6,8.4,1.6c2.8,0,5.7-0.5,8.5-1.6v2.8
		c-5.7,2.3-11.4,2.3-16.9,0V-524.4z M-1620.5-526.1v-2.9c1.7,0.9,4.7,1.6,8.5,1.6s6.7-0.7,8.5-1.6v2.9
		C-1609.3-523.8-1615-523.8-1620.5-526.1z M-1612-532.5c5,0,7.7,1.3,8.3,1.8c-0.7,0.6-3.4,1.8-8.3,1.8c-5,0-7.7-1.3-8.3-1.8
		C-1619.6-531.2-1616.9-532.5-1612-532.5z M-1620.5-517.3v-2.8c2.8,1.1,5.5,1.6,8.4,1.6c2.8,0,5.7-0.5,8.6-1.6v2.8
		C-1609.3-515-1615-515-1620.5-517.3z"/>
</g>
</svg>
