<?xml version="1.0" encoding="utf-8"?>
<!-- Generator: Adobe Illustrator 22.0.1, SVG Export Plug-In . SVG Version: 6.00 Build 0)  -->
<svg version="1.1" id="Layer_1" xmlns="http://www.w3.org/2000/svg" xmlns:xlink="http://www.w3.org/1999/xlink" x="0px" y="0px"
	 viewBox="0 0 22 22" enable-background="new 0 0 22 22" xml:space="preserve">
<g>
	<polygon fill="#333F4B" points="21,2.3 20.2,1 17.4,2.7 1,2.7 1,4.2 2.2,4.2 2.5,12.8 4,12.8 3.6,4.2 15.9,4.2 15.2,19.5 9.3,19.5 
		9.3,21 16.6,21 17.3,4.2 17.8,4.2 	"/>
	<path fill="#333F4B" d="M4.5,15.1c-1.6,0-2.9,1.3-2.9,2.9c0,1.6,1.3,2.9,2.9,2.9s2.9-1.3,2.9-2.9C7.4,16.5,6.1,15.1,4.5,15.1z
		 M4.5,19.5c-0.8,0-1.4-0.7-1.4-1.5c0-0.8,0.6-1.5,1.4-1.5s1.4,0.7,1.4,1.5C5.9,18.9,5.3,19.5,4.5,19.5z"/>
	<rect x="12.1" y="7.1" fill="#333F4B" width="1.5" height="8.8"/>
	<rect x="9.1" y="7.1" fill="#333F4B" width="1.5" height="8.8"/>
	<rect x="6.1" y="7.1" fill="#333F4B" width="1.5" height="5.7"/>
</g>
</svg>
