<?xml version="1.0" encoding="utf-8"?>
<!-- Generator: Adobe Illustrator 22.0.1, SVG Export Plug-In . SVG Version: 6.00 Build 0)  -->
<svg version="1.1" id="Layer_1" xmlns="http://www.w3.org/2000/svg" xmlns:xlink="http://www.w3.org/1999/xlink" x="0px" y="0px"
	 viewBox="0 0 22 22" enable-background="new 0 0 22 22" xml:space="preserve">
<g>
	<path fill-rule="evenodd" clip-rule="evenodd" fill="#333F4B" d="M9.4,3c0.7,0.1,0.9-0.6,0.9-1.3C10.3,1.4,10,1,9.7,1
		c-0.5-0.1-0.9,0.4-1,0.9C8.7,2.2,8.9,3,9.4,3z"/>
	<path fill-rule="evenodd" clip-rule="evenodd" fill="#333F4B" d="M17.8,13.5c-0.5,0-0.9,0.5-0.9,0.8c0,0.4,0.4,0.9,0.8,1
		c0.4,0,0.8-0.3,0.8-0.8C18.6,14.3,18.4,13.5,17.8,13.5z"/>
	<path fill-rule="evenodd" clip-rule="evenodd" fill="#333F4B" d="M10.3,4c0.5,1.2,1.7,3.2,1.6,7.1c0,0.2,0,0.2,0.2,0.2
		c0.4,0,0.6,0,1,0.1c0.2,0,0.2-0.1,0.2-0.1c0.3-4.1-1.6-8-2.2-8.2C10.6,3,10.1,3.7,10.3,4z"/>
	<path fill-rule="evenodd" clip-rule="evenodd" fill="#333F4B" d="M11.7,12.1c-4.5-0.3-8.3,1.4-8.3,5.4c0.1,3.9,7.9,6.9,9.7-4
		c0,0,0-0.1,0-0.1c0.2,0,0.5,0.1,0.5,0.1c1.4,0.2,2.1,0.5,2.3,0.6c0.4,0.1,0.6-0.6,0.4-0.9C16,12.7,13.2,12.1,11.7,12.1z M11.6,13.7
		c-0.8,4.4-3.5,5.5-4.9,3.9c-1.5-1.6,0.6-4.7,5-4.4c0,0,0,0,0,0C11.7,13.4,11.7,13.6,11.6,13.7z"/>
</g>
</svg>
