<?xml version="1.0" encoding="utf-8"?>
<!-- Generator: Adobe Illustrator 22.0.1, SVG Export Plug-In . SVG Version: 6.00 Build 0)  -->
<svg version="1.1" id="Layer_1" xmlns="http://www.w3.org/2000/svg" xmlns:xlink="http://www.w3.org/1999/xlink" x="0px" y="0px"
	 viewBox="0 0 22 22" enable-background="new 0 0 22 22" xml:space="preserve">
<g>
	<path fill="#333F4B" d="M11,1C5.5,1,1,5.5,1,11c0,5.5,4.5,10,10,10c5.5,0,10-4.5,10-10C21,5.5,16.5,1,11,1z M11,19.5
		c-4.7,0-8.5-3.8-8.5-8.5c0-4.7,3.8-8.5,8.5-8.5c4.7,0,8.5,3.8,8.5,8.5C19.5,15.7,15.7,19.5,11,19.5z"/>
	
		<rect x="4.3" y="10.3" transform="matrix(0.7087 -0.7055 0.7055 0.7087 -4.5563 10.9646)" fill="#333F4B" width="13.3" height="1.5"/>
	<path fill="#333F4B" d="M8,10.3c1.4,0,2.5-1.1,2.5-2.5c0-1.4-1.1-2.5-2.5-2.5c-1.4,0-2.5,1.1-2.5,2.5C5.5,9.2,6.6,10.3,8,10.3z
		 M8,6.8c0.5,0,1,0.4,1,1c0,0.5-0.4,1-1,1c-0.5,0-1-0.4-1-1C7,7.3,7.5,6.8,8,6.8z"/>
	<path fill="#333F4B" d="M14.1,11.4c-1.4,0-2.5,1.1-2.5,2.5s1.1,2.5,2.5,2.5c1.4,0,2.5-1.1,2.5-2.5S15.5,11.4,14.1,11.4z M14.1,14.9
		c-0.5,0-1-0.4-1-1s0.4-1,1-1c0.5,0,1,0.4,1,1S14.6,14.9,14.1,14.9z"/>
</g>
</svg>
