<?xml version="1.0" encoding="utf-8"?>
<!-- Generator: Adobe Illustrator 22.0.1, SVG Export Plug-In . SVG Version: 6.00 Build 0)  -->
<svg version="1.1" id="Layer_1" xmlns="http://www.w3.org/2000/svg" xmlns:xlink="http://www.w3.org/1999/xlink" x="0px" y="0px"
	 viewBox="0 0 22 22" enable-background="new 0 0 22 22" xml:space="preserve">
<g>
	<path fill="#333F4B" d="M1,1v20h20V1H1z M15.2,2.5c0.6,0,1,0.5,1,1s-0.5,1-1,1s-1-0.5-1-1S14.6,2.5,15.2,2.5z M11.8,2.5
		c0.6,0,1,0.5,1,1s-0.5,1-1,1s-1-0.5-1-1S11.3,2.5,11.8,2.5z M19.5,19.5h-17V6.2h17V19.5z M18.5,4.5c-0.6,0-1-0.5-1-1s0.5-1,1-1
		s1,0.5,1,1S19.1,4.5,18.5,4.5z"/>
	<polygon fill="#333F4B" points="9.1,15.3 5.5,15.3 5.5,13.3 8.5,13.3 8.5,12.1 5.5,12.1 5.5,10.2 9.1,10.2 9.1,9 4,9 4,16.6 
		9.1,16.6 	"/>
	<polygon fill="#333F4B" points="11.6,14.5 11.4,10.9 13.5,16.6 14.6,16.6 16.6,10.9 16.5,14.5 16.5,16.6 18,16.6 18,9 16,9 
		14,14.5 12.1,9 10,9 10,16.6 11.6,16.6 	"/>
</g>
</svg>
