<?xml version="1.0" encoding="utf-8"?>
<!-- Generator: Adobe Illustrator 22.0.1, SVG Export Plug-In . SVG Version: 6.00 Build 0)  -->
<svg version="1.1" id="Layer_1" xmlns="http://www.w3.org/2000/svg" xmlns:xlink="http://www.w3.org/1999/xlink" x="0px" y="0px"
	 viewBox="0 0 22 22" enable-background="new 0 0 22 22" xml:space="preserve">
<path fill="#333F4B" d="M1,1v20h20V1H1z M9.7,3h2.7l1.9,6l1.9-6H19v9h-2.2V9.6l0.3-4.1L15.1,12h-1.4l-2.1-6.5L12,9.6V12H9.7V3z
	 M7,19H3v-6h1v5h3V19z M8.8,19h-1v-6h1V19z M9,5H5v1.7h3.2v1.5H5V10h4v2H3V3h6V5z M14.2,14h-1.8v5h-1v-5H9.5v-1h4.7V14z M19,14h-3
	v1.5h2.5v1H16V18h3v1h-4v-6h4V14z"/>
</svg>
