<?xml version="1.0" encoding="utf-8"?>
<!-- Generator: Adobe Illustrator 22.0.1, SVG Export Plug-In . SVG Version: 6.00 Build 0)  -->
<svg version="1.1" id="Layer_1" xmlns="http://www.w3.org/2000/svg" xmlns:xlink="http://www.w3.org/1999/xlink" x="0px" y="0px"
	 viewBox="0 0 22 22" enable-background="new 0 0 22 22" xml:space="preserve">
<path fill="#333F4B" d="M17.2,7.2v3H15c-0.3-1.6-1.6-2.8-3.2-3.1V4.8h3L11.1,1L7.3,4.8h3v2.3c-1.6,0.3-2.8,1.6-3.1,3.1H4.8v-3L1,11
	l3.8,3.8v-3h2.4c0.3,1.6,1.5,2.8,3.1,3.1v2.4h-3L11,21l3.8-3.8h-3v-2.4c1.6-0.3,2.9-1.5,3.2-3.1h2.3v3L21,11L17.2,7.2z M11.1,13.4
	c-1.4,0-2.5-1.1-2.5-2.5s1.1-2.5,2.5-2.5s2.5,1.1,2.5,2.5S12.4,13.4,11.1,13.4z"/>
</svg>
