<?xml version="1.0" encoding="utf-8"?>
<!-- Generator: Adobe Illustrator 22.0.1, SVG Export Plug-In . SVG Version: 6.00 Build 0)  -->
<svg version="1.1" id="Layer_1" xmlns="http://www.w3.org/2000/svg" xmlns:xlink="http://www.w3.org/1999/xlink" x="0px" y="0px"
	 viewBox="0 0 22 22" enable-background="new 0 0 22 22" xml:space="preserve">
<g id="xls" transform="translate(930.000000, 1129.000000)">
	<g id="Group_10_">
		<polygon id="Shape_71_" fill="#333F4B" points="-909,-1123.8 -910.5,-1123.8 -910.5,-1126.5 -927.5,-1126.5 -927.5,-1123.8 
			-929,-1123.8 -929,-1128 -909,-1128 		"/>
		<polygon id="Shape_72_" fill="#333F4B" points="-909,-1108 -929,-1108 -929,-1112.2 -927.5,-1112.2 -927.5,-1109.5 
			-910.5,-1109.5 -910.5,-1112.2 -909,-1112.2 		"/>
	</g>
	<g id="Group_11_" transform="translate(0.000000, 6.000000)">
		<polygon id="Shape_73_" fill="#333F4B" points="-925.7,-1125.2 -924.3,-1127.8 -922.5,-1127.8 -924.7,-1124 -922.4,-1120.2 
			-924.3,-1120.2 -925.7,-1122.9 -927.2,-1120.2 -929,-1120.2 -926.7,-1124 -928.9,-1127.8 -927.1,-1127.8 		"/>
		<polygon id="Shape_74_" fill="#333F4B" points="-919.5,-1121.5 -916.1,-1121.5 -916.1,-1120.2 -921,-1120.2 -921,-1127.8 
			-919.5,-1127.8 		"/>
		<path id="Shape_75_" fill="#333F4B" d="M-910.6-1122.2c0-0.3-0.1-0.5-0.3-0.7c-0.2-0.2-0.6-0.3-1.1-0.5c-0.5-0.2-1-0.3-1.3-0.5
			c-0.9-0.5-1.3-1.1-1.3-1.9c0-0.4,0.1-0.8,0.3-1.1c0.2-0.3,0.6-0.6,1-0.8c0.4-0.2,0.9-0.3,1.5-0.3c0.5,0,1,0.1,1.5,0.3
			c0.4,0.2,0.8,0.5,1,0.8c0.2,0.4,0.4,0.8,0.4,1.2h-1.6c0-0.3-0.1-0.6-0.3-0.8c-0.2-0.2-0.5-0.3-0.9-0.3c-0.4,0-0.7,0.1-0.9,0.2
			c-0.2,0.2-0.3,0.4-0.3,0.6c0,0.2,0.1,0.5,0.4,0.6c0.2,0.2,0.6,0.3,1.1,0.5c0.9,0.3,1.5,0.6,1.9,1c0.4,0.4,0.6,0.9,0.6,1.5
			c0,0.7-0.2,1.2-0.7,1.5c-0.5,0.4-1.2,0.6-2,0.6c-0.6,0-1.1-0.1-1.6-0.3c-0.5-0.2-0.8-0.5-1.1-0.9c-0.3-0.4-0.4-0.8-0.4-1.3h1.6
			c0,0.8,0.5,1.3,1.5,1.3c0.4,0,0.7-0.1,0.9-0.2C-910.7-1121.7-910.6-1121.9-910.6-1122.2z"/>
	</g>
</g>
</svg>
