<?xml version="1.0" encoding="utf-8"?>
<!-- Generator: Adobe Illustrator 22.0.1, SVG Export Plug-In . SVG Version: 6.00 Build 0)  -->
<svg version="1.1" id="Layer_1" xmlns="http://www.w3.org/2000/svg" xmlns:xlink="http://www.w3.org/1999/xlink" x="0px" y="0px"
	 viewBox="0 0 22 22" enable-background="new 0 0 22 22" xml:space="preserve">
<path fill="#333F4B" d="M18.6,5c-1.6-2-4-3.3-6.6-3.6c-1.6-0.2-3.2,0.1-4.7,0.7L6.4,1L3.1,6.4L9,4.2L8.3,3.3
	c1.1-0.4,2.3-0.6,3.6-0.4c2.2,0.2,4.2,1.3,5.6,3c1.4,1.7,2.1,3.9,1.8,6.1c-0.1,1.2-0.5,2.4-1.1,3.4L13,10.7c0.1-0.4,0.1-0.8,0.1-1.2
	c-0.1-2.1-1.9-3.8-4-3.7c-0.5,0-0.9,0.1-1.3,0.3l2.6,2.4l-2.2,2.4L5.6,8.4C5.5,8.9,5.4,9.3,5.5,9.8c0.1,2.1,1.9,3.8,4,3.7
	c0.4,0,0.8-0.1,1.2-0.2l5.1,4.8c-1.6,1.2-3.6,1.7-5.6,1.5c-2.2-0.2-4.2-1.3-5.6-3s-2.1-3.9-1.8-6.1l-1.4-0.1
	C0.8,15.6,4.7,20.4,10,20.9c0.3,0,0.7,0.1,1,0.1c4.9,0,9.2-3.8,9.7-8.8C21,9.6,20.2,7,18.6,5z"/>
</svg>
