<?xml version="1.0" encoding="utf-8"?>
<!-- Generator: Adobe Illustrator 22.0.1, SVG Export Plug-In . SVG Version: 6.00 Build 0)  -->
<svg version="1.1" id="Layer_1" xmlns="http://www.w3.org/2000/svg" xmlns:xlink="http://www.w3.org/1999/xlink" x="0px" y="0px"
	 viewBox="0 0 22 22" enable-background="new 0 0 22 22" xml:space="preserve">
<g transform="matrix(1 0 0 -1 0 857)">
	<path fill="#333F4B" d="M10.1,847.6c0.4,0,0.6-0.2,0.8-0.5s0.2-0.8,0.2-1.5c0-0.6-0.1-1.1-0.2-1.4s-0.4-0.5-0.7-0.5
		s-0.6,0.2-0.7,0.5c-0.1,0.3-0.2,0.8-0.2,1.5c0,0.7,0.1,1.2,0.2,1.5S9.7,847.6,10.1,847.6z M14.7,847.6c0.2,0,0.4-0.1,0.6-0.2
		c0.1-0.2,0.2-0.4,0.3-0.7c0-0.3,0.1-0.6,0.1-1c0-0.7-0.1-1.2-0.2-1.5c-0.1-0.3-0.4-0.4-0.7-0.4c-0.4,0-0.6,0.2-0.7,0.5
		s-0.2,0.8-0.2,1.5c0,0.6,0.1,1.1,0.2,1.4C14.1,847.4,14.4,847.6,14.7,847.6z M1,856h20v-20H1V856z M7.9,849.3v0.8c0,0-0.2,0-0.5,0
		c-0.5,0-0.8-0.1-1-0.3c-0.2-0.2-0.3-0.5-0.3-1v-0.5H5.3v-0.7h0.9v-4.5h1v4.5h0.7v0.7H7.2v0.5c0,0.3,0.2,0.5,0.5,0.5H7.9z M12,843.1
		v7.1h-1v-2.4h-0.1c0,0.1-0.1,0.2-0.2,0.3c-0.1,0.1-0.2,0.2-0.3,0.2c-0.1,0.1-0.2,0.1-0.3,0.2c-0.1,0-0.3,0.1-0.4,0.1
		c-0.2,0-0.4,0-0.6-0.1s-0.3-0.2-0.5-0.4s-0.3-0.5-0.4-0.8c-0.1-0.4-0.1-0.8-0.1-1.4c0-1.9,0.6-2.9,1.7-2.9c0.1,0,0.2,0,0.3,0
		c0.1,0,0.2,0.1,0.2,0.1c0.1,0,0.1,0.1,0.2,0.1c0.1,0,0.1,0.1,0.2,0.1c0,0.1,0.1,0.1,0.1,0.1c0,0,0.1,0.1,0.1,0.1
		c0,0.1,0.1,0.1,0.1,0.1v-0.5H12z M15.1,842.9c0.2,0,0.4,0,0.6,0.1c0.2,0.1,0.3,0.2,0.5,0.4c0.2,0.2,0.3,0.5,0.4,0.8
		c0.1,0.4,0.1,0.8,0.1,1.4c0,1.9-0.6,2.9-1.7,2.9c-0.5,0-0.9-0.3-1.2-0.8h0.1v0.5h-1v-6.9h1v2.3h0C14.1,843.1,14.5,842.9,15.1,842.9
		z"/>
</g>
</svg>
