<?xml version="1.0" encoding="utf-8"?>
<!-- Generator: Adobe Illustrator 22.0.1, SVG Export Plug-In . SVG Version: 6.00 Build 0)  -->
<svg version="1.1" id="Layer_1" xmlns="http://www.w3.org/2000/svg" xmlns:xlink="http://www.w3.org/1999/xlink" x="0px" y="0px"
	 viewBox="0 0 22 22" enable-background="new 0 0 22 22" xml:space="preserve">
<g>
	<path fill="#333F4B" d="M17.1,9.4h-1v1.7h0.9c0.3,0,0.5-0.1,0.6-0.2c0.1-0.1,0.2-0.3,0.2-0.6c0-0.3-0.1-0.5-0.2-0.7
		C17.6,9.5,17.4,9.4,17.1,9.4z"/>
	<path fill="#333F4B" d="M1,1v20h20V1H1z M6.7,9.4H4.2v1.4h2.3v1.1H4.2v2.4H2.7v-6h4V9.4z M13.8,14.3h-1.5v-1.4l0.1-2.9L11,14.3h-1
		L8.6,10l0.1,2.9v1.4H7.3v-6h1.9l1.3,4.2l1.3-4.2h1.9V14.3z M18.8,11.7c-0.4,0.3-1,0.5-1.7,0.5h-0.9v2h-1.4v-6h2.4
		c0.5,0,0.9,0.1,1.2,0.3C18.7,8.7,19,9,19.2,9.3c0.2,0.3,0.3,0.7,0.3,1.1C19.5,10.9,19.2,11.4,18.8,11.7z"/>
</g>
</svg>
