<?xml version="1.0" encoding="utf-8"?>
<!-- Generator: Adobe Illustrator 22.0.1, SVG Export Plug-In . SVG Version: 6.00 Build 0)  -->
<svg version="1.1" id="Layer_1" xmlns="http://www.w3.org/2000/svg" xmlns:xlink="http://www.w3.org/1999/xlink" x="0px" y="0px"
	 viewBox="0 0 22 22" enable-background="new 0 0 22 22" xml:space="preserve">
<g id="checklist" transform="translate(1623.000000, 337.000000)">
	<path id="Shape_304_" fill="#333F4B" d="M-1622-336v20h20v-20H-1622z M-1603.7-317.5h-16.6v-17h16.6V-317.5z"/>
	<polygon id="Shape_305_" fill="#333F4B" points="-1606.7,-332.4 -1607.7,-333.4 -1610.2,-330.9 -1611.2,-331.8 -1612.2,-330.8 
		-1610.2,-328.9 	"/>
	<polygon id="Shape_306_" fill="#333F4B" points="-1606.7,-327.3 -1607.7,-328.3 -1610.2,-325.7 -1611.2,-326.7 -1612.2,-325.7 
		-1610.2,-323.7 	"/>
	<rect id="Rectangle-path_144_" x="-1617.7" y="-331.9" fill="#333F4B" width="3.5" height="1.5"/>
	<polygon id="Shape_307_" fill="#333F4B" points="-1606.7,-322.1 -1607.7,-323.1 -1610.2,-320.6 -1611.2,-321.6 -1612.2,-320.6 
		-1610.2,-318.6 	"/>
	<rect id="Rectangle-path_145_" x="-1617.7" y="-326.8" fill="#333F4B" width="3.5" height="1.5"/>
	<rect id="Rectangle-path_146_" x="-1617.7" y="-321.6" fill="#333F4B" width="3.5" height="1.5"/>
</g>
</svg>
