<?xml version="1.0" encoding="utf-8"?>
<!-- Generator: Adobe Illustrator 22.0.1, SVG Export Plug-In . SVG Version: 6.00 Build 0)  -->
<svg version="1.1" id="Layer_1" xmlns="http://www.w3.org/2000/svg" xmlns:xlink="http://www.w3.org/1999/xlink" x="0px" y="0px"
	 viewBox="0 0 22 22" enable-background="new 0 0 22 22" xml:space="preserve">
<g>
	<circle fill="#333F4B" cx="16" cy="5" r="4"/>
	<circle fill="#333F4B" cx="5.7" cy="10.9" r="4"/>
	<circle fill="#333F4B" cx="16" cy="17" r="4"/>
	<g>
		<path fill="#333F4B" d="M7.9,6.7c0.9-0.9,2-1.6,3.3-1.9c0,0,0-0.1,0-0.1c0-0.5,0.2-1,0.4-1.5C9.5,3.5,7.6,4.6,6.4,6.1
			C6.9,6.2,7.4,6.4,7.9,6.7z"/>
		<path fill="#333F4B" d="M18.6,9.1c0.2,0.6,0.3,1.2,0.3,1.9c0,0.7-0.1,1.3-0.3,1.9c0,0,0.1,0,0.1,0c0.4,0.3,0.8,0.7,1.1,1.1
			c0.4-0.9,0.6-2,0.6-3c0-1-0.2-2-0.6-2.9C19.5,8.5,19.1,8.8,18.6,9.1z"/>
		<path fill="#333F4B" d="M11.1,17.2c-1.3-0.3-2.4-1-3.3-1.9c0,0-0.1,0-0.1,0.1c-0.5,0.2-1,0.3-1.5,0.4c1.2,1.6,3,2.7,5.1,3
			C11.2,18.2,11.1,17.7,11.1,17.2z"/>
	</g>
</g>
</svg>
