<?xml version="1.0" encoding="utf-8"?>
<!-- Generator: Adobe Illustrator 22.0.1, SVG Export Plug-In . SVG Version: 6.00 Build 0)  -->
<svg version="1.1" id="Layer_1" xmlns="http://www.w3.org/2000/svg" xmlns:xlink="http://www.w3.org/1999/xlink" x="0px" y="0px"
	 viewBox="0 0 22 22" enable-background="new 0 0 22 22" xml:space="preserve">
<g transform="matrix(1 0 0 -1 0 857)">
	<path fill="#333F4B" d="M16.5,844.6v2.7c0,0.2,0.1,0.4,0.2,0.6s0.3,0.2,0.6,0.2h2.8c0.2,0,0.4-0.1,0.6-0.2s0.2-0.3,0.2-0.6v-2.7
		c0-0.2-0.1-0.4-0.2-0.6s-0.4-0.2-0.6-0.2h-2.8c-0.2,0-0.4,0.1-0.6,0.2C16.6,844.2,16.5,844.4,16.5,844.6z M8.7,844.6v2.7
		c0,0.2,0.1,0.4,0.2,0.6s0.4,0.2,0.6,0.2h2.8c0.2,0,0.4-0.1,0.6-0.2s0.2-0.3,0.2-0.6v-2.7c0-0.2-0.1-0.4-0.2-0.6s-0.3-0.2-0.6-0.2
		H9.5c-0.2,0-0.4,0.1-0.6,0.2C8.8,844.2,8.7,844.4,8.7,844.6z M1,844.6v2.7c0,0.2,0.1,0.4,0.2,0.6s0.3,0.2,0.6,0.2h2.8
		c0.2,0,0.4-0.1,0.6-0.2c0.2-0.2,0.2-0.3,0.2-0.6v-2.7c0-0.2-0.1-0.4-0.2-0.6c-0.2-0.2-0.4-0.2-0.6-0.2H1.8c-0.2,0-0.4,0.1-0.6,0.2
		C1.1,844.2,1,844.4,1,844.6z"/>
</g>
</svg>
