<?xml version="1.0" encoding="utf-8"?>
<!-- Generator: Adobe Illustrator 22.0.1, SVG Export Plug-In . SVG Version: 6.00 Build 0)  -->
<svg version="1.1" id="Layer_1" xmlns="http://www.w3.org/2000/svg" xmlns:xlink="http://www.w3.org/1999/xlink" x="0px" y="0px"
	 viewBox="0 0 22 22" enable-background="new 0 0 22 22" xml:space="preserve">
<polygon fill="#333F4B" points="7.3,12.1 10.7,8.7 7.3,5.2 7.3,7.8 3.4,7.8 3.4,9.4 7.3,9.4 "/>
<g id="inbound_shipment" transform="translate(1623.000000, 238.000000)">
	<polygon id="Shape_193_" fill="#333F4B" points="-1615.7,-224.9 -1612.2,-228.3 -1615.7,-231.7 -1615.7,-229.1 -1619.5,-229.1 
		-1619.5,-227.5 -1615.7,-227.5 	"/>
	<path id="Shape_194_" fill="#333F4B" d="M-1602-228.6l-3.7-4.3h-4.3v-3.2h-12v15.4h2.1c0,0,0,0,0,0c0,1.5,1.2,2.7,2.7,2.7
		c1.5,0,2.7-1.2,2.7-2.7c0,0,0,0,0,0h5.5c0,0,0,0,0,0c0,1.5,1.2,2.7,2.7,2.7c1.5,0,2.7-1.2,2.7-2.7c0,0,0,0,0,0h1.6V-228.6z
		 M-1607.4-231.4h0.9l2.5,2.9h-3.5V-231.4z M-1617.1-219.4c-0.7,0-1.2-0.5-1.2-1.2c0-0.7,0.6-1.2,1.2-1.2s1.2,0.5,1.2,1.2
		C-1615.9-219.9-1616.5-219.4-1617.1-219.4z M-1611.5-222.1h-3h-0.4c-0.5-0.7-1.3-1.2-2.2-1.2c-0.9,0-1.8,0.5-2.2,1.2h-1.1v-12.5h9
		V-222.1z M-1606.3-219.4c-0.7,0-1.2-0.5-1.2-1.2c0-0.7,0.5-1.2,1.2-1.2c0.7,0,1.2,0.5,1.2,1.2
		C-1605.1-219.9-1605.7-219.4-1606.3-219.4z M-1603.5-222.1h-0.2h-0.4c-0.5-0.7-1.3-1.2-2.2-1.2c-0.9,0-1.8,0.5-2.2,1.2h-0.3h-1.1
		v-9.3h1.1v4.4h5.4V-222.1z"/>
</g>
</svg>
