<?xml version="1.0" encoding="utf-8"?>
<!-- Generator: Adobe Illustrator 22.0.1, SVG Export Plug-In . SVG Version: 6.00 Build 0)  -->
<svg version="1.1" id="Layer_1" xmlns="http://www.w3.org/2000/svg" xmlns:xlink="http://www.w3.org/1999/xlink" x="0px" y="0px"
	 viewBox="0 0 22 22" enable-background="new 0 0 22 22" xml:space="preserve">
<path fill="#333F4B" d="M13.7,1c-3.1,0-5.7,2.5-5.7,5.7c0,1.4,0.5,2.7,1.4,3.7l-6.9,8.3l1.2,1l0.8-0.9L7.2,21l0.9-1.1l-1.4-1.2
	l1-1.2l1.4,1.2l0.9-1.1l-2.7-2.3l3.2-3.9c0.9,0.6,2,0.9,3.1,0.9c3.1,0,5.7-2.5,5.7-5.7S16.9,1,13.7,1z M13.7,10.8
	c-2.3,0-4.1-1.9-4.1-4.1s1.9-4.1,4.1-4.1s4.1,1.9,4.1,4.1S16,10.8,13.7,10.8z"/>
</svg>
