<?xml version="1.0" encoding="utf-8"?>
<!-- Generator: Adobe Illustrator 22.0.1, SVG Export Plug-In . SVG Version: 6.00 Build 0)  -->
<svg version="1.1" id="Layer_1" xmlns="http://www.w3.org/2000/svg" xmlns:xlink="http://www.w3.org/1999/xlink" x="0px" y="0px"
	 viewBox="0 0 22 22" enable-background="new 0 0 22 22" xml:space="preserve">
<g id="test" transform="translate(1128.000000, 931.000000)">
	<circle id="Oval_10_" fill="#333F4B" cx="-1117" cy="-918.6" r="1.7"/>
	<path id="Shape_110_" fill="#333F4B" d="M-1108-912.2l-5.3-11.1c0-0.1-0.1-0.1-0.1-0.2v-5.1v-1.5h-1.5h-4.2h-1.5v1.5v5.1
		c0,0.1-0.1,0.2-0.1,0.3l-5.3,11l-1,2.2h2.4h15.2h2.4L-1108-912.2z M-1119.3-922.6c0.1-0.3,0.2-0.6,0.2-0.8v-5.1h4.2v5.1
		c0,0.3,0.1,0.6,0.2,0.8l3.6,7.5h-11.8L-1119.3-922.6z M-1124.6-911.5l1-2h13.2l1,2H-1124.6z"/>
</g>
</svg>
