<?xml version="1.0" encoding="utf-8"?>
<!-- Generator: Adobe Illustrator 22.0.1, SVG Export Plug-In . SVG Version: 6.00 Build 0)  -->
<svg version="1.1" id="Layer_1" xmlns="http://www.w3.org/2000/svg" xmlns:xlink="http://www.w3.org/1999/xlink" x="0px" y="0px"
	 viewBox="0 0 22 22" enable-background="new 0 0 22 22" xml:space="preserve">
<g>
	<rect x="10.2" y="1" fill="#333F4B" width="1.5" height="2.2"/>
	<polygon fill="#333F4B" points="6.7,4.7 5.1,3.1 4.1,4.2 5.6,5.7 	"/>
	<rect x="2" y="9.2" fill="#333F4B" width="2.2" height="1.5"/>
	<polygon fill="#333F4B" points="4.1,15.7 5.2,16.8 6.8,15.2 5.7,14.1 	"/>
	<polygon fill="#333F4B" points="15.3,15.1 16.9,16.7 17.9,15.6 16.4,14 	"/>
	<rect x="17.8" y="9.1" fill="#333F4B" width="2.2" height="1.5"/>
	<polygon fill="#333F4B" points="17.9,4.1 16.8,3 15.2,4.6 16.3,5.7 	"/>
	<path fill="#333F4B" d="M16.6,9.7c0-3.2-2.4-5.6-5.7-5.6h-0.1c-3.3,0-5.7,2.3-5.7,5.6c0,1,0.3,2,0.8,2.9c0.2,0.3,0.4,0.6,0.6,0.8
		c0.8,1,1.2,1.8,1.3,2.9L8.1,17h5.7l0.1-0.7c0.1-1.1,0.5-1.9,1.3-2.8c0.2-0.3,0.5-0.6,0.7-0.9C16.3,11.7,16.6,10.7,16.6,9.7z
		 M14.5,11.8c-0.1,0.2-0.3,0.4-0.5,0.7c-0.8,1-1.3,1.9-1.5,3H9.4c-0.2-1.1-0.7-2-1.5-3c-0.2-0.2-0.3-0.4-0.5-0.6
		c-0.4-0.7-0.6-1.4-0.6-2.1c0-2.4,1.7-4.1,4.1-4.1H11c2.4,0,4.1,1.7,4.1,4.1C15.1,10.4,14.9,11.2,14.5,11.8z"/>
	<path fill="#333F4B" d="M8.2,18.4c0,0.4,0,0.9,0,1.3c0,0,0,0,0,0h0c0.6,0.8,1.6,1.3,2.7,1.3c1.1,0,2.1-0.5,2.7-1.3h0c0,0,0,0,0,0
		c0-0.5,0-0.9,0-1.3H8.2z"/>
</g>
</svg>
