<?xml version="1.0" encoding="utf-8"?>
<!-- Generator: Adobe Illustrator 22.0.1, SVG Export Plug-In . SVG Version: 6.00 Build 0)  -->
<svg version="1.1" id="Layer_1" xmlns="http://www.w3.org/2000/svg" xmlns:xlink="http://www.w3.org/1999/xlink" x="0px" y="0px"
	 viewBox="0 0 22 22" enable-background="new 0 0 22 22" xml:space="preserve">
<g>
	<path fill="#333F4B" d="M16.8,6.8C16.8,3.6,14.2,1,11,1S5.2,3.6,5.2,6.8c0,0.8,0.2,1.5,0.4,2.2h0L11,21l5.3-12h0
		C16.6,8.3,16.8,7.6,16.8,6.8z M15,8.4l-0.3,0.7L11,17.4L7.5,9.5L7,8.4C6.8,7.9,6.7,7.4,6.7,6.8c0-2.4,1.9-4.3,4.3-4.3
		c2.4,0,4.3,1.9,4.3,4.3C15.3,7.4,15.2,7.9,15,8.4z"/>
	<ellipse fill="#333F4B" cx="11" cy="6.7" rx="2.2" ry="2.2"/>
</g>
</svg>
