<?xml version="1.0" encoding="utf-8"?>
<!-- Generator: Adobe Illustrator 22.0.1, SVG Export Plug-In . SVG Version: 6.00 Build 0)  -->
<svg version="1.1" id="Layer_1" xmlns="http://www.w3.org/2000/svg" xmlns:xlink="http://www.w3.org/1999/xlink" x="0px" y="0px"
	 viewBox="0 0 22 22" enable-background="new 0 0 22 22" xml:space="preserve">
<g transform="matrix(1 0 0 -1 0 857)">
	<path fill="#333F4B" d="M11,856c1.4,0,2.6-0.3,3.9-0.8c1.2-0.5,2.3-1.2,3.2-2.1c0.9-0.9,1.6-2,2.1-3.2c0.5-1.2,0.8-2.5,0.8-3.9
		s-0.3-2.6-0.8-3.9s-1.2-2.3-2.1-3.2c-0.9-0.9-2-1.6-3.2-2.1c-1.2-0.5-2.5-0.8-3.9-0.8s-2.6,0.3-3.9,0.8s-2.3,1.2-3.2,2.1
		c-0.9,0.9-1.6,2-2.1,3.2C1.3,843.4,1,844.6,1,846s0.3,2.6,0.8,3.9s1.2,2.3,2.1,3.2s2,1.6,3.2,2.1C8.4,855.7,9.6,856,11,856z
		 M11,837.5c1.2,0,2.3,0.2,3.3,0.7c1,0.4,2,1.1,2.7,1.8c0.8,0.8,1.4,1.7,1.8,2.7c0.4,1,0.7,2.2,0.7,3.3c0,1.2-0.2,2.3-0.7,3.3
		c-0.4,1-1.1,2-1.8,2.7c-0.8,0.8-1.7,1.4-2.7,1.8c-1,0.4-2.2,0.7-3.3,0.7c-1.5,0-3-0.4-4.3-1.1c-1.3-0.8-2.3-1.8-3.1-3.1
		c-0.8-1.3-1.1-2.7-1.1-4.3c0-1.5,0.4-3,1.1-4.3c0.8-1.3,1.8-2.3,3.1-3.1C8,837.9,9.5,837.5,11,837.5L11,837.5z M10.2,850.3l1,1.1
		l5.4-5.4l-5.4-5.4l-1,1.1l3.5,3.5H5.1v1.5h8.7L10.2,850.3z"/>
</g>
</svg>
