<?xml version="1.0" encoding="utf-8"?>
<!-- Generator: Adobe Illustrator 22.0.1, SVG Export Plug-In . SVG Version: 6.00 Build 0)  -->
<svg version="1.1" id="Layer_1" xmlns="http://www.w3.org/2000/svg" xmlns:xlink="http://www.w3.org/1999/xlink" x="0px" y="0px"
	 viewBox="0 0 22 22" enable-background="new 0 0 22 22" xml:space="preserve">
<polygon fill="#333F4B" points="14.6,12.1 11.1,8.7 14.6,5.2 14.6,7.8 18.5,7.8 18.5,9.4 14.6,9.4 "/>
<g id="outbound_shipment" transform="translate(1722.000000, 238.000000)">
	<polygon id="Shape_196_" fill="#333F4B" points="-1707.3,-224.9 -1710.8,-228.3 -1707.3,-231.7 -1707.3,-229.1 -1703.5,-229.1 
		-1703.5,-227.5 -1707.3,-227.5 	"/>
	<path id="Shape_197_" fill="#333F4B" d="M-1721-220.6h1.6c0,0,0,0,0,0c0,1.5,1.2,2.7,2.7,2.7c1.5,0,2.7-1.2,2.7-2.7c0,0,0,0,0,0
		h5.5c0,0,0,0,0,0c0,1.5,1.2,2.7,2.7,2.7c1.5,0,2.7-1.2,2.7-2.7c0,0,0,0,0,0h2.1v-15.4h-12v3.2h-4.3l-3.7,4.3V-220.6z
		 M-1715.6-228.5h-3.5l2.5-2.9h0.9V-228.5z M-1707.1-220.6c0-0.7,0.6-1.2,1.2-1.2c0.7,0,1.2,0.5,1.2,1.2c0,0.7-0.5,1.2-1.2,1.2
		C-1706.5-219.4-1707.1-219.9-1707.1-220.6z M-1711.5-234.6h9v12.5h-1.1c-0.5-0.7-1.3-1.2-2.2-1.2c-0.9,0-1.8,0.5-2.2,1.2h-0.4h-3
		V-234.6z M-1717.9-220.6c0-0.7,0.6-1.2,1.2-1.2c0.7,0,1.2,0.5,1.2,1.2c0,0.7-0.6,1.2-1.2,1.2
		C-1717.3-219.4-1717.9-219.9-1717.9-220.6z M-1719.5-227h5.4v-4.4h1.1v9.3h-1.1h-0.3c-0.5-0.7-1.3-1.2-2.2-1.2
		c-0.9,0-1.8,0.5-2.2,1.2h-0.4h-0.2V-227z"/>
</g>
</svg>
