<?xml version="1.0" encoding="utf-8"?>
<!-- Generator: Adobe Illustrator 22.0.1, SVG Export Plug-In . SVG Version: 6.00 Build 0)  -->
<svg version="1.1" id="Layer_1" xmlns="http://www.w3.org/2000/svg" xmlns:xlink="http://www.w3.org/1999/xlink" x="0px" y="0px"
	 viewBox="0 0 22 22" enable-background="new 0 0 22 22" xml:space="preserve">
<g>
	<path fill="#333F4B" d="M11,6.1c-1.4,0-2.6,1.1-2.6,2.6s1.1,2.6,2.6,2.6s2.6-1.1,2.6-2.6S12.4,6.1,11,6.1z"/>
	<path fill="#333F4B" d="M11,1C5.5,1,1,5.5,1,11c0,5.5,4.5,10,10,10s10-4.5,10-10C21,5.5,16.5,1,11,1z M16.5,17.8
		c-0.5-2.9-2.8-4.9-5.5-4.9c-2.7,0-5,2.1-5.5,4.9L4,17.5c0.4-2.7,2.1-4.8,4.4-5.7C7.5,11,6.9,9.9,6.9,8.6c0-2.3,1.9-4.1,4.1-4.1
		s4.1,1.9,4.1,4.1c0,1.3-0.6,2.4-1.5,3.2c2.3,0.9,4,3.1,4.4,5.7L16.5,17.8z"/>
</g>
</svg>
