<?xml version="1.0" encoding="utf-8"?>
<!-- Generator: Adobe Illustrator 22.0.1, SVG Export Plug-In . SVG Version: 6.00 Build 0)  -->
<svg version="1.1" id="Layer_1" xmlns="http://www.w3.org/2000/svg" xmlns:xlink="http://www.w3.org/1999/xlink" x="0px" y="0px"
	 viewBox="0 0 22 22" enable-background="new 0 0 22 22" xml:space="preserve">
<path fill="#333F4B" d="M11,1C5.5,1,1,5.5,1,11s4.5,10,10,10s10-4.5,10-10S16.5,1,11,1z M5.6,17.5c0.6-2.7,2.8-4.7,5.4-4.7
	s4.9,2,5.4,4.7c-1.5,1.2-3.4,2-5.4,2S7,18.8,5.6,17.5z M11,11.2c-1.4,0-2.6-1.2-2.6-2.6S9.6,6,11,6s2.6,1.2,2.6,2.6
	S12.4,11.2,11,11.2z M17.7,16.2c-0.7-2.1-2.2-3.7-4.1-4.4c0.9-0.8,1.5-1.9,1.5-3.2c0-2.3-1.8-4.1-4.1-4.1S6.9,6.4,6.9,8.6
	c0,1.3,0.6,2.4,1.5,3.2c-1.9,0.8-3.4,2.4-4.1,4.4C3.2,14.8,2.5,13,2.5,11c0-4.7,3.8-8.5,8.5-8.5s8.5,3.8,8.5,8.5
	C19.5,13,18.8,14.8,17.7,16.2z"/>
</svg>
