<?xml version="1.0" encoding="utf-8"?>
<!-- Generator: Adobe Illustrator 22.0.1, SVG Export Plug-In . SVG Version: 6.00 Build 0)  -->
<svg version="1.1" id="Layer_1" xmlns="http://www.w3.org/2000/svg" xmlns:xlink="http://www.w3.org/1999/xlink" x="0px" y="0px"
	 viewBox="0 0 22 22" enable-background="new 0 0 22 22" xml:space="preserve">
<g>
	<path fill="#333F4B" d="M16.9,12.3l-3.3-2c0,0-1.2-0.6-1.9,0.5V8.7V8.1V6.6c0-0.8-0.7-1.5-1.5-1.5h0c-0.8,0-1.5,0.7-1.5,1.5v1.8
		l0,3.9l0,2.1l-0.9-0.7c0,0-1.6-1.1-3.2,0c0,0-0.6,0.5,0,1l5.3,5.2c0,0,2.6,2.4,5.8,0.2c0,0,1.5-0.9,2.1-3v-3.7
		C17.7,13.4,17.7,12.8,16.9,12.3z"/>
	<path fill="#333F4B" d="M10.2,3C8.4,3,6.9,4.4,6.8,6.1H8c0.1-1.1,1-2,2.2-2c1.2,0,2.1,0.9,2.2,2h1.2C13.4,4.4,12,3,10.2,3z"/>
	<path fill="#333F4B" d="M10.2,2.5c2.1,0,3.8,1.6,4,3.7h1.5C15.5,3.3,13.1,1,10.2,1S4.9,3.3,4.7,6.1h1.5C6.3,4.1,8.1,2.5,10.2,2.5z"
		/>
</g>
</svg>
