<?xml version="1.0" encoding="utf-8"?>
<!-- Generator: Adobe Illustrator 22.0.1, SVG Export Plug-In . SVG Version: 6.00 Build 0)  -->
<svg version="1.1" id="Layer_1" xmlns="http://www.w3.org/2000/svg" xmlns:xlink="http://www.w3.org/1999/xlink" x="0px" y="0px"
	 viewBox="0 0 22 22" enable-background="new 0 0 22 22" xml:space="preserve">
<g>
	<path fill="#333F4B" d="M8.1,4.6C7.7,4.6,7.3,4.7,7,4.8l2.1,2L7.3,8.8l-2.1-2C5.1,7.1,5,7.5,5,7.9c0.1,1.8,1.6,3.1,3.3,3
		c0.3,0,0.7-0.1,1-0.2l4.3,3.9c0.6,0.5,1.5,0.5,2.1-0.1c0.3-0.3,0.4-0.7,0.4-1.1c0-0.4-0.2-0.7-0.5-1l-4.3-3.9
		c0.1-0.3,0.1-0.6,0.1-1C11.3,5.9,9.8,4.5,8.1,4.6z"/>
	<path fill="#333F4B" d="M11,1L2,5.1v2.6c0,3.9,1.8,7.7,5,10.3l4,3l4-3c3.2-2.6,5-6.4,5-10.3V5.1L11,1z M18.5,7.7
		c0,3.5-1.6,6.8-4.5,9.2l-3,2.3l-3-2.3c-2.8-2.3-4.5-5.7-4.5-9.2V6L11,2.6L18.5,6V7.7z"/>
</g>
</svg>
