<?xml version="1.0" encoding="utf-8"?>
<!-- Generator: Adobe Illustrator 22.0.1, SVG Export Plug-In . SVG Version: 6.00 Build 0)  -->
<svg version="1.1" id="Layer_1" xmlns="http://www.w3.org/2000/svg" xmlns:xlink="http://www.w3.org/1999/xlink" x="0px" y="0px"
	 viewBox="0 0 22 22" enable-background="new 0 0 22 22" xml:space="preserve">
<path fill="#333F4B" d="M20.8,2.5L20.2,2l-0.4-0.4l0,0l-0.2-0.2L17.1,4l-6.8-3L1.2,5.1v2.6c0,3.2,1.2,6.2,3.4,8.7l-2.8,2.8l1.1,1.1
	l2.8-2.8c0.2,0.2,0.4,0.4,0.7,0.6l4,3l4-3c3.2-2.6,5.1-6.4,5.1-10.3V5.1l-0.8-0.4L20.8,2.5z M2.8,7.7V6l7.5-3.4l5.6,2.5l-4.4,4.3
	l-1-0.9c0.1-0.3,0.1-0.6,0.1-1c-0.1-1.7-1.6-3.1-3.3-3C7,4.6,6.6,4.7,6.3,4.9l2.2,2L6.6,8.8l-2.2-2C4.3,7.2,4.3,7.5,4.3,7.9
	c0.1,1.7,1.6,3.1,3.3,3c0.3,0,0.7-0.1,1-0.2l0.9,0.8l-3.8,3.7C3.8,13.1,2.8,10.5,2.8,7.7z M17.9,7.7c0,3.5-1.6,6.8-4.5,9.2l-3.1,2.3
	l-3.1-2.3c-0.2-0.2-0.3-0.3-0.5-0.5l3.8-3.8l2.3,2.1c0.6,0.5,1.5,0.5,2.1-0.1c0.3-0.3,0.4-0.7,0.4-1c0-0.4-0.2-0.7-0.5-1l-2.2-2
	l4.7-4.7L17.9,6V7.7z"/>
</svg>
