<?xml version="1.0" encoding="utf-8"?>
<!-- Generator: Adobe Illustrator 22.0.1, SVG Export Plug-In . SVG Version: 6.00 Build 0)  -->
<svg version="1.1" id="Layer_1" xmlns="http://www.w3.org/2000/svg" xmlns:xlink="http://www.w3.org/1999/xlink" x="0px" y="0px"
	 viewBox="0 0 22 22" enable-background="new 0 0 22 22" xml:space="preserve">
<g>
	<path fill="#333F4B" d="M11.8,15.5v-0.9c0.3,0,0.7-0.1,0.9-0.2c0.4-0.2,0.7-0.4,1-0.8c0.2-0.4,0.3-0.7,0.3-1.2
		c0-0.5-0.1-0.8-0.3-1.1c-0.2-0.3-0.5-0.5-0.8-0.7c-0.3-0.1-0.6-0.3-1.1-0.4V8.7c0,0,0.1,0,0.1,0c0.2,0.2,0.3,0.4,0.4,0.8l1.5-0.1
		c0-0.7-0.3-1.2-0.7-1.6c-0.3-0.3-0.7-0.4-1.2-0.5V5.9h-1.4v1.5c-0.3,0-0.6,0.1-0.9,0.2C9.1,7.7,8.8,8,8.6,8.3
		c-0.2,0.3-0.3,0.7-0.3,1c0,0.6,0.2,1,0.7,1.4c0.3,0.2,0.8,0.4,1.4,0.6v2c-0.1,0-0.2-0.1-0.3-0.2c-0.3-0.2-0.4-0.6-0.5-1l-1.4,0.2
		C8.2,13,8.5,13.6,9,14c0.4,0.3,0.8,0.5,1.4,0.6v0.9H11.8z M11.8,11.7C11.8,11.7,11.8,11.7,11.8,11.7c0.3,0.1,0.5,0.2,0.6,0.3
		c0.1,0.1,0.2,0.3,0.2,0.4c0,0.3-0.1,0.5-0.3,0.7c-0.1,0.1-0.2,0.2-0.4,0.2V11.7z M10,9.6C9.8,9.5,9.7,9.3,9.7,9.2
		C9.7,9,9.8,8.8,10,8.7c0.1-0.1,0.3-0.2,0.5-0.2v1.3C10.2,9.8,10,9.7,10,9.6z"/>
	<path fill="#333F4B" d="M11,3.5c3.3,0,6.1,2.2,7.1,5.3h-1.8l2.6,4.2l2.6-4.2h-1.8C18.6,4.8,15.1,2,11,2C7.2,2,3.8,4.4,2.6,8h1.6
		C5.4,5.3,8,3.5,11,3.5z"/>
	<path fill="#333F4B" d="M11,18.5c-3.3,0-6.1-2.2-7.1-5.3h1.8L3.2,9.1l-2.6,4.2h1.8C3.4,17.2,6.9,20,11,20c3.8,0,7.2-2.4,8.4-6h-1.6
		C16.6,16.7,14,18.5,11,18.5z"/>
</g>
</svg>
