<?xml version="1.0" encoding="utf-8"?>
<!-- Generator: Adobe Illustrator 22.0.1, SVG Export Plug-In . SVG Version: 6.00 Build 0)  -->
<svg version="1.1" id="Layer_1" xmlns="http://www.w3.org/2000/svg" xmlns:xlink="http://www.w3.org/1999/xlink" x="0px" y="0px"
	 viewBox="0 0 22 22" enable-background="new 0 0 22 22" xml:space="preserve">
<g>
	<path fill="#333F4B" d="M1,1v20h20V1H1z M19.5,19.5h-17v-17h17V19.5z"/>
	<g>
		<path fill="#333F4B" d="M15.2,8.1V12h-2l2.8,3.1l2.8-3.1h-2V8.1c0-1.5-1.2-2.8-2.8-2.8H7.5l1.3,1.5H14C14.7,6.9,15.2,7.5,15.2,8.1
			z"/>
		<path fill="#333F4B" d="M6.8,13.9V10h2L6,6.9L3.3,10h2v3.9c0,1.5,1.2,2.8,2.8,2.8h6.5l-1.3-1.5H8C7.3,15.1,6.8,14.5,6.8,13.9z"/>
	</g>
</g>
</svg>
