<?xml version="1.0" encoding="utf-8"?>
<!-- Generator: Adobe Illustrator 22.0.1, SVG Export Plug-In . SVG Version: 6.00 Build 0)  -->
<svg version="1.1" id="Layer_1" xmlns="http://www.w3.org/2000/svg" xmlns:xlink="http://www.w3.org/1999/xlink" x="0px" y="0px"
	 viewBox="0 0 22 22" enable-background="new 0 0 22 22" xml:space="preserve">
<path fill="#333F4B" d="M16,2.8h-5.7l0,7.5H6V8.5H1v5h5v-1.8h4.3v7.5H16V21h5v-5h-5v1.8h-4.2l0-6H16v1.8h5v-5h-5v1.8h-4.2v-6H16V6h5
	V1h-5V2.8z M2.5,12v-2h2v2H2.5z M19.5,17.5v2h-2v-2H19.5z M19.5,10v2h-2v-2H19.5z M19.5,2.5v2h-2v-2H19.5z"/>
</svg>
