<?xml version="1.0" encoding="utf-8"?>
<!-- Generator: Adobe Illustrator 22.0.1, SVG Export Plug-In . SVG Version: 6.00 Build 0)  -->
<svg version="1.1" id="Layer_1" xmlns="http://www.w3.org/2000/svg" xmlns:xlink="http://www.w3.org/1999/xlink" x="0px" y="0px"
	 viewBox="0 0 22 22" enable-background="new 0 0 22 22" xml:space="preserve">
<g transform="matrix(1 0 0 -1 0 857)">
	<path fill="#333F4B" d="M6.2,844.6v3.7h0.6v-3.7H6.2z M4.3,846.4H3.7v0.5c0,0.1,0,0.1-0.1,0.1s-0.1,0-0.1-0.1v-1.8
		c0-0.1,0-0.1,0.1-0.1s0.1,0,0.1,0.1v0.6h0.6v-0.5c0-0.1,0-0.3-0.1-0.4c-0.1-0.1-0.2-0.2-0.3-0.2c-0.1,0-0.2-0.1-0.4-0.1
		c-0.2,0-0.4,0.1-0.5,0.2c-0.1,0.1-0.2,0.3-0.2,0.5v1.7c0,0.2,0.1,0.4,0.2,0.5c0.1,0.1,0.3,0.2,0.5,0.2c0.2,0,0.4-0.1,0.5-0.2
		c0.1-0.1,0.2-0.3,0.2-0.5V846.4z M14.3,846.9v-0.9h-0.8v-0.8c0-0.1,0-0.1,0.1-0.1s0.1,0,0.1,0.1v0.6h0.6v-0.5
		c0-0.2-0.1-0.4-0.2-0.5c-0.1-0.1-0.3-0.2-0.5-0.2s-0.4,0.1-0.5,0.2c-0.1,0.1-0.2,0.3-0.2,0.5v1.7c0,0.1,0,0.2,0.1,0.3
		c0,0.1,0.1,0.1,0.2,0.2c0.1,0.1,0.2,0.1,0.2,0.1c0.1,0,0.2,0,0.3,0c0.2,0,0.4-0.1,0.5-0.2C14.3,847.2,14.3,847.1,14.3,846.9z
		 M13.7,846.4L13.7,846.4l0,0.6c0,0.1,0,0.1-0.1,0.1s-0.1,0-0.1-0.1v-0.6H13.7z M19.3,846.9v-0.9h-0.8v-0.8c0-0.1,0-0.1,0.1-0.1
		c0.1,0,0.1,0,0.1,0.1v0.6h0.6v-0.5c0-0.2-0.1-0.4-0.2-0.5c-0.1-0.1-0.3-0.2-0.5-0.2c-0.2,0-0.4,0.1-0.5,0.2
		c-0.1,0.1-0.2,0.3-0.2,0.5v1.7c0,0.1,0,0.3,0.1,0.4c0.1,0.1,0.2,0.2,0.3,0.2s0.2,0.1,0.4,0.1c0.2,0,0.4-0.1,0.5-0.2
		C19.3,847.2,19.3,847.1,19.3,846.9z M18.7,846.4v0.6c0,0.1,0,0.1-0.1,0.1s-0.1,0-0.1-0.1v-0.6H18.7z M7.8,847.5h0.6v-2.9H7.9v0.2h0
		c-0.1-0.2-0.2-0.2-0.4-0.2c-0.1,0-0.2,0.1-0.3,0.2c-0.1,0.1-0.1,0.2-0.1,0.4v2.4h0.6v-2.3c0-0.1,0-0.1,0.1-0.1s0.1,0,0.1,0.1V847.5
		z M15.6,847.5c0.1,0,0.2,0,0.3-0.1s0.1-0.2,0.1-0.4v-1.1h-0.6v0.9c0,0.1,0,0.1-0.1,0.1s-0.1,0-0.1-0.1v-2.3h-0.6v2.9h0.6l0-0.2h0
		C15.3,847.4,15.4,847.5,15.6,847.5z M20.6,847.5c0.1,0,0.2,0,0.3-0.1c0.1-0.1,0.1-0.2,0.1-0.4v-1.1h-0.6v0.9c0,0.1,0,0.1-0.1,0.1
		c-0.1,0-0.1,0-0.1-0.1v-2.3h-0.6v2.9h0.6l0-0.2C20.3,847.4,20.4,847.5,20.6,847.5z M17.1,847.5h0.6v-3.1c0-0.4-0.2-0.7-0.7-0.7
		c-0.5,0-0.7,0.2-0.7,0.7v0.2h0.6v-0.3c0-0.1,0-0.1,0.1-0.1c0.1,0,0.1,0,0.1,0.1v0.7h0c-0.1-0.2-0.2-0.2-0.4-0.2
		c-0.1,0-0.2,0-0.3,0.1c-0.1,0.1-0.1,0.2-0.1,0.4v1.7c0,0.2,0,0.3,0.1,0.4c0.1,0.1,0.2,0.1,0.3,0.1c0.2,0,0.3-0.1,0.4-0.2
		L17.1,847.5z M17.1,845.4v1.5c0,0.1,0,0.1-0.1,0.1s-0.1,0-0.1-0.1v-1.5c0-0.1,0-0.1,0.1-0.1S17.1,845.3,17.1,845.4z M5.6,847.5
		c0.1,0,0.1,0,0.2-0.1c0.1,0,0.1-0.1,0.2-0.2S6,847.1,6,847v-2.4H5.3v2.3c0,0.1,0,0.1-0.1,0.1c-0.1,0-0.1,0-0.1-0.1v-2.3H4.5v3.7
		h0.6v-1h0C5.2,847.4,5.3,847.5,5.6,847.5z M10.1,847.2c0.1,0.2,0.2,0.3,0.5,0.3c0.3,0,0.4-0.2,0.4-0.6v-2.4h-0.6v2.3
		c0,0.1,0,0.1-0.1,0.1c-0.1,0-0.1,0-0.1-0.1v-2.3H9.6v2.3c0,0.1,0,0.1-0.1,0.1s-0.1,0-0.1-0.1v-2.3H8.7v2.9h0.6v-0.2h0
		c0.1,0.2,0.2,0.2,0.4,0.2C9.9,847.5,10.1,847.4,10.1,847.2z M12.2,847.5c0.1,0,0.3-0.1,0.3-0.2c0.1-0.1,0.1-0.2,0.1-0.4v-1.9
		c0-0.2,0-0.3-0.1-0.4s-0.2-0.2-0.3-0.2c-0.2,0-0.3,0.1-0.4,0.2v-0.2h-0.6v3.7h0.6v-1h0C11.9,847.4,12,847.5,12.2,847.5z
		 M12.1,845.2v1.7c0,0.1,0,0.1-0.1,0.1c-0.1,0-0.1,0-0.1-0.1v-1.7c0-0.1,0-0.1,0.1-0.1C12,845.1,12.1,845.1,12.1,845.2z M2.3,846.4
		c0.2-0.2,0.3-0.4,0.3-0.7v-0.5c0-0.5-0.3-0.7-0.8-0.7S1,844.7,1,845.2v0.7h0.7v-0.7c0-0.1,0-0.1,0.1-0.1s0.1,0,0.1,0.1v0.3
		c0,0.2-0.1,0.4-0.3,0.6c-0.2,0.2-0.3,0.3-0.4,0.4c-0.2,0.2-0.3,0.4-0.3,0.7v0.4c0,0.2,0.1,0.4,0.2,0.5s0.4,0.2,0.6,0.2
		c0.5,0,0.8-0.2,0.8-0.7V847H1.9v0.6c0,0.1,0,0.1-0.1,0.1s-0.1,0-0.1-0.1v-0.3c0-0.2,0.1-0.4,0.2-0.5C2,846.7,2.1,846.6,2.3,846.4z"
		/>
</g>
</svg>
