<?xml version="1.0" encoding="utf-8"?>
<!-- Generator: Adobe Illustrator 22.0.1, SVG Export Plug-In . SVG Version: 6.00 Build 0)  -->
<svg version="1.1" id="Layer_1" xmlns="http://www.w3.org/2000/svg" xmlns:xlink="http://www.w3.org/1999/xlink" x="0px" y="0px"
	 viewBox="0 0 22 22" enable-background="new 0 0 22 22" xml:space="preserve">
<g transform="matrix(1 0 0 -1 0 857)">
	<path fill="#333F4B" d="M21,846.1c0-1.8-0.4-3.5-1.3-5c-0.9-1.5-2.1-2.8-3.6-3.6s-3.2-1.3-5-1.3s-3.5,0.4-5,1.3s-2.7,2.1-3.6,3.6
		c-0.9,1.5-1.3,3.2-1.3,5c0,2.5,0.8,4.7,2.4,6.6s3.7,3,6.1,3.3v-2.6c-1.7-0.3-3.1-1.2-4.2-2.6s-1.7-2.9-1.7-4.7
		c0-2.1,0.7-3.8,2.2-5.2s3.2-2.2,5.2-2.2s3.8,0.7,5.2,2.2s2.2,3.2,2.2,5.2c0,1.8-0.6,3.3-1.7,4.7s-2.5,2.2-4.2,2.6v2.6
		c2.4-0.3,4.4-1.5,6.1-3.3C20.2,850.7,21,848.5,21,846.1z"/>
</g>
</svg>
