<?xml version="1.0" encoding="utf-8"?>
<!-- Generator: Adobe Illustrator 22.0.1, SVG Export Plug-In . SVG Version: 6.00 Build 0)  -->
<svg version="1.1" id="Layer_1" xmlns="http://www.w3.org/2000/svg" xmlns:xlink="http://www.w3.org/1999/xlink" x="0px" y="0px"
	 viewBox="0 0 22 22" enable-background="new 0 0 22 22" xml:space="preserve">
<g transform="matrix(1 0 0 -1 0 857)">
	<path fill="#333F4B" d="M6.6,839.6c0-0.4-0.2-0.8-0.5-1.1c-0.3-0.3-0.7-0.5-1.1-0.5c-0.4,0-0.8,0.2-1.1,0.5
		c-0.3,0.3-0.5,0.7-0.5,1.1c0,0.4,0.2,0.8,0.5,1.1c0.3,0.3,0.7,0.5,1.1,0.5c0.4,0,0.8-0.2,1.1-0.5C6.4,840.4,6.6,840.1,6.6,839.6z
		 M12.5,837.1c0-0.4-0.1-0.8-0.4-1.1c-0.3-0.3-0.7-0.4-1.1-0.4s-0.8,0.1-1.1,0.4c-0.3,0.3-0.4,0.7-0.4,1.1c0,0.4,0.1,0.8,0.4,1.1
		c0.3,0.3,0.7,0.5,1.1,0.5s0.8-0.2,1.1-0.5C12.4,837.9,12.5,837.6,12.5,837.1z M4.1,845.6c0-0.4-0.2-0.8-0.5-1.1
		c-0.3-0.3-0.7-0.4-1.1-0.4s-0.8,0.1-1.1,0.4c-0.3,0.3-0.4,0.7-0.4,1.1s0.1,0.8,0.4,1.1c0.3,0.3,0.7,0.5,1.1,0.5s0.8-0.2,1.1-0.5
		C3.9,846.4,4.1,846,4.1,845.6z M18.5,839.6c0-0.4-0.2-0.8-0.5-1.1c-0.3-0.3-0.7-0.5-1.1-0.5c-0.4,0-0.8,0.2-1.1,0.5
		c-0.3,0.3-0.5,0.7-0.5,1.1c0,0.4,0.2,0.8,0.5,1.1c0.3,0.3,0.7,0.5,1.1,0.5c0.4,0,0.8-0.2,1.1-0.5C18.4,840.4,18.5,840.1,18.5,839.6
		z M6.9,851.6c0-0.5-0.2-1-0.6-1.4c-0.4-0.4-0.8-0.6-1.4-0.6s-1,0.2-1.4,0.6c-0.4,0.4-0.6,0.8-0.6,1.4s0.2,1,0.6,1.4
		c0.4,0.4,0.8,0.6,1.4,0.6s1-0.2,1.4-0.6C6.7,852.6,6.9,852.1,6.9,851.6z M21,845.6c0-0.4-0.1-0.8-0.4-1.1c-0.3-0.3-0.7-0.4-1.1-0.4
		s-0.8,0.1-1.1,0.4c-0.3,0.3-0.5,0.7-0.5,1.1s0.2,0.8,0.5,1.1c0.3,0.3,0.7,0.5,1.1,0.5s0.8-0.2,1.1-0.5C20.9,846.4,21,846,21,845.6z
		 M13.3,854.1c0-0.6-0.2-1.2-0.7-1.6c-0.5-0.5-1-0.7-1.6-0.7c-0.6,0-1.2,0.2-1.6,0.7c-0.5,0.5-0.7,1-0.7,1.6c0,0.6,0.2,1.2,0.7,1.6
		s1,0.7,1.6,0.7c0.6,0,1.2-0.2,1.6-0.7S13.3,854.7,13.3,854.1z M19.7,851.6c0-0.7-0.3-1.4-0.8-1.9c-0.5-0.5-1.2-0.8-1.9-0.8
		c-0.7,0-1.4,0.3-1.9,0.8c-0.5,0.5-0.8,1.2-0.8,1.9s0.3,1.4,0.8,1.9c0.5,0.5,1.2,0.8,1.9,0.8c0.7,0,1.4-0.3,1.9-0.8
		C19.4,853,19.7,852.4,19.7,851.6z"/>
</g>
</svg>
