<?xml version="1.0" encoding="utf-8"?>
<!-- Generator: Adobe Illustrator 22.0.1, SVG Export Plug-In . SVG Version: 6.00 Build 0)  -->
<svg version="1.1" id="Layer_1" xmlns="http://www.w3.org/2000/svg" xmlns:xlink="http://www.w3.org/1999/xlink" x="0px" y="0px"
	 viewBox="0 0 22 22" enable-background="new 0 0 22 22" xml:space="preserve">
<g>
	<polygon fill="#333F4B" points="10.2,5.3 10.2,11.5 14.3,16.6 15.4,15.8 11.6,11 11.6,5.3 	"/>
	<path fill="#333F4B" d="M19.6,11c-0.1,4.8-4,8.6-8.7,8.6c-4.7,0-8.6-3.9-8.6-8.6c0-4.7,3.9-8.6,8.6-8.6c1.5,0,3,0.4,4.2,1.1
		l-0.9,0.8l5.9,3.1l-2.7-6l-1.2,1.1C14.7,1.5,12.9,1,11,1C5.5,1,1,5.5,1,11s4.5,10,10,10s10-4.5,10-10H19.6z"/>
</g>
</svg>
