<?xml version="1.0" encoding="utf-8"?>
<!-- Generator: Adobe Illustrator 22.0.1, SVG Export Plug-In . SVG Version: 6.00 Build 0)  -->
<svg version="1.1" id="Layer_1" xmlns="http://www.w3.org/2000/svg" xmlns:xlink="http://www.w3.org/1999/xlink" x="0px" y="0px"
	 viewBox="0 0 22 22" enable-background="new 0 0 22 22" xml:space="preserve">
<g>
	<polygon fill="#333F4B" points="2.5,2.5 19.4,2.5 19.4,10.1 20.9,10.1 20.9,1 1,1 1,20.7 9.8,20.7 9.8,19.3 2.5,19.3 	"/>
	<rect x="5" y="6.4" fill="#333F4B" width="11.9" height="1.5"/>
	<rect x="5" y="10.1" fill="#333F4B" width="4.8" height="1.5"/>
	<path fill="#333F4B" d="M19.4,13.9v-2.5h-2.5l-1.8-1.8l-1.8,1.8h-2.2v2.2l-1.6,1.6l1.6,1.6v2.5h2.5l1.8,1.8l1.8-1.8h2.2V17l1.6-1.6
		L19.4,13.9z M14.4,17.4l-2-1.9l0.7-0.7l1.3,1.2l2.7-2.6l0.7,0.7L14.4,17.4z"/>
</g>
</svg>
