<?xml version="1.0" encoding="utf-8"?>
<!-- Generator: Adobe Illustrator 22.0.1, SVG Export Plug-In . SVG Version: 6.00 Build 0)  -->
<svg version="1.1" id="Layer_1" xmlns="http://www.w3.org/2000/svg" xmlns:xlink="http://www.w3.org/1999/xlink" x="0px" y="0px"
	 viewBox="0 0 22 22" enable-background="new 0 0 22 22" xml:space="preserve">
<g id="table_view" transform="translate(237.000000, 436.000000)">
	<path id="Shape_281_" fill="#333F4B" d="M-236-435v20h20v-20H-236z M-234.5-433.5h17v1.5h-17V-433.5z M-228.3-421.7v-3.7h4.6v3.7
		H-228.3z M-223.7-420.2v3.7h-4.6v-3.7H-223.7z M-229.8-421.7h-4.7v-3.7h4.7V-421.7z M-223.7-430.5v3.7h-4.6v-3.7H-223.7z
		 M-222.2-425.3h4.7v3.7h-4.7V-425.3L-222.2-425.3z M-222.2-426.8v-3.7h4.7v3.7H-222.2z M-229.8-430.5v3.7h-4.7v-3.7H-229.8z
		 M-234.5-420.2h4.7v3.7h-4.7V-420.2z M-222.2-416.5v-3.7h4.7v3.7H-222.2z"/>
</g>
</svg>
