<?xml version="1.0" encoding="utf-8"?>
<!-- Generator: Adobe Illustrator 22.0.1, SVG Export Plug-In . SVG Version: 6.00 Build 0)  -->
<svg version="1.1" id="Layer_1" xmlns="http://www.w3.org/2000/svg" xmlns:xlink="http://www.w3.org/1999/xlink" x="0px" y="0px"
	 viewBox="0 0 22 22" enable-background="new 0 0 22 22" xml:space="preserve">
<g>
	<polygon fill="#333F4B" points="2.5,2.5 19.5,2.5 19.5,9.8 21,9.8 21,1 1,1 1,20.7 11.9,20.7 11.9,19.2 2.5,19.2 	"/>
	<rect x="4.3" y="4.8" fill="#333F4B" width="7.6" height="1.5"/>
	<rect x="14.3" y="4.8" fill="#333F4B" width="3.3" height="1.5"/>
	<rect x="14.3" y="8.3" fill="#333F4B" width="3.3" height="1.5"/>
	<rect x="4.3" y="8.2" fill="#333F4B" width="7.6" height="1.5"/>
	<rect x="4.3" y="11.7" fill="#333F4B" width="7.6" height="1.5"/>
	<rect x="4.3" y="15.2" fill="#333F4B" width="7.6" height="1.5"/>
	<path fill="#333F4B" d="M19.5,15.8c-0.3-0.1-0.7-0.3-1.2-0.4v-1.6c0,0,0.1,0,0.1,0c0.2,0.2,0.4,0.4,0.4,0.8l1.5-0.1
		c0-0.7-0.3-1.2-0.8-1.6c-0.3-0.3-0.8-0.4-1.3-0.5v-1.6h-1.5v1.5c-0.3,0-0.7,0.1-0.9,0.2c-0.4,0.2-0.7,0.4-0.9,0.8
		c-0.2,0.3-0.3,0.7-0.3,1.1c0,0.6,0.2,1.1,0.7,1.5c0.3,0.3,0.8,0.5,1.5,0.6v2.1c-0.1-0.1-0.3-0.1-0.4-0.2c-0.3-0.2-0.5-0.6-0.6-1.1
		l-1.5,0.2c0.1,0.8,0.4,1.5,1,1.9c0.4,0.3,0.9,0.5,1.5,0.6v1h1.5v-1c0.4,0,0.7-0.1,1-0.2c0.4-0.2,0.8-0.5,1-0.9
		c0.2-0.4,0.4-0.8,0.3-1.2c0-0.5-0.1-0.9-0.3-1.2C20.1,16.2,19.9,15.9,19.5,15.8z M16.9,15c-0.2-0.1-0.4-0.2-0.5-0.2
		c-0.2-0.1-0.2-0.3-0.2-0.5c0-0.2,0.1-0.4,0.2-0.5c0.1-0.1,0.3-0.2,0.5-0.2V15z M18.8,18.5c-0.1,0.1-0.3,0.2-0.4,0.2v-1.7
		c0,0,0,0,0.1,0c0.3,0.1,0.5,0.2,0.6,0.3c0.1,0.1,0.2,0.3,0.2,0.5C19.1,18,19,18.3,18.8,18.5z"/>
</g>
</svg>
