<?xml version="1.0" encoding="utf-8"?>
<!-- Generator: Adobe Illustrator 22.0.1, SVG Export Plug-In . SVG Version: 6.00 Build 0)  -->
<svg version="1.1" id="Layer_1" xmlns="http://www.w3.org/2000/svg" xmlns:xlink="http://www.w3.org/1999/xlink" x="0px" y="0px"
	 viewBox="0 0 22 22" enable-background="new 0 0 22 22" xml:space="preserve">
<g>
	<g>
		<path fill="#333F4B" d="M11.1,18.6L7,14.7c0.1-0.3,0.1-0.6,0.1-0.9c-0.1-1.7-1.5-3-3.2-2.9c-0.4,0-0.7,0.1-1.1,0.2L5,13l-1.7,1.9
			L1.2,13C1.1,13.3,1,13.7,1,14.1c0.1,1.7,1.5,3,3.2,2.9c0.3,0,0.6-0.1,0.9-0.2l4.1,3.8c0.6,0.5,1.5,0.5,2-0.1
			c0.3-0.3,0.4-0.7,0.4-1C11.6,19.2,11.4,18.8,11.1,18.6z"/>
	</g>
	<g>
		<path fill="#333F4B" d="M14.5,11.2c0.3-0.2,0.6-0.5,0.9-0.8c0.7-0.9,1.2-2,1.2-3.1h0.5V5.8h-0.7c-0.5-2.1-2.2-3.7-4.3-4
			c0,0-0.1,0-0.1,0V1h-1.4v0.7C9.4,1.9,8.2,2.5,7.4,3.5C6.8,4.2,6.5,5,6.3,5.8H5.6v1.4h0.5c0,0.2,0,0.3,0,0.5c0.2,1.4,1,2.6,2.1,3.4
			c-0.4,0.1-0.8,0.3-1.1,0.5c0.3,0.4,0.5,0.8,0.5,1.3c0,0,0,0,0,0.1c1-0.5,2-0.8,3.1-0.8h1.1c3.9,0,7.6,3.9,7.6,8H21
			C21,16.1,18.1,12.4,14.5,11.2z M8.5,4.4c0.6-0.7,1.3-1.1,2.2-1.2v0.9h1.4V3.2c1.4,0.3,2.5,1.3,2.9,2.6H7.8
			C7.9,5.3,8.2,4.8,8.5,4.4z M10.8,10.7c-1.6-0.2-2.9-1.6-3.1-3.1c0-0.1,0-0.2,0-0.3h7.5c-0.1,0.8-0.4,1.5-0.9,2.2
			C13.4,10.4,12.1,10.9,10.8,10.7z"/>
	</g>
</g>
</svg>
