<?xml version="1.0" encoding="utf-8"?>
<!-- Generator: Adobe Illustrator 22.0.1, SVG Export Plug-In . SVG Version: 6.00 Build 0)  -->
<svg version="1.1" id="Layer_1" xmlns="http://www.w3.org/2000/svg" xmlns:xlink="http://www.w3.org/1999/xlink" x="0px" y="0px"
	 viewBox="0 0 22 22" enable-background="new 0 0 22 22" xml:space="preserve">
<path fill="#333F4B" d="M20.2,10.2c0,0-0.1,0-0.1,0c-0.8,0-6.3,0.6-6,1.2c0.3,0.6,3.7,0.8,6.1,0.8c0.5-0.1,0.9-0.5,0.8-1.1
	C21,10.6,20.6,10.3,20.2,10.2 M18.3,16c-2.1-1.2-5.2-2.6-5.8-2.2c-0.5,0.4,4,3.6,4.7,3.9c0,0,0.1,0,0.1,0.1c0.4,0.1,0.9,0,1.1-0.4
	C18.8,16.9,18.7,16.3,18.3,16 M18.3,6.4c0.4-0.3,0.5-0.9,0.2-1.3c-0.3-0.4-0.7-0.6-1.1-0.4c0,0-0.1,0-0.1,0.1
	c-0.7,0.4-5.2,3.6-4.7,3.9C13.1,9,16.2,7.6,18.3,6.4L18.3,6.4z M5.6,15c-0.6,1.8-1.2,2.6-2.6,2.6c-0.1,0-0.6,0-0.6,0
	c-0.4,0-0.8,0.3-1,0.7c-0.1,0.5,0.2,1,0.7,1.1c0.4,0.1,0.7,0.1,1.1,0.1c2.5,0,3.3-1.4,4.1-3.5l4.8-12.1c0.2-0.5-0.1-1.1-0.7-1.3
	c-0.5-0.2-1.1,0.1-1.3,0.6l-3.4,9H6.7L3.1,3.1C2.9,2.6,2.3,2.4,1.7,2.6C1.2,2.8,0.9,3.4,1.1,4L5.6,15L5.6,15z"/>
</svg>
