<?xml version="1.0" encoding="utf-8"?>
<!-- Generator: Adobe Illustrator 22.0.1, SVG Export Plug-In . SVG Version: 6.00 Build 0)  -->
<svg version="1.1" id="Layer_1" xmlns="http://www.w3.org/2000/svg" xmlns:xlink="http://www.w3.org/1999/xlink" x="0px" y="0px"
	 viewBox="0 0 22 22" enable-background="new 0 0 22 22" xml:space="preserve">
<g id="advanced_search" transform="translate(1623.000000, 832.000000)">
	<path id="Shape_167_" fill="#333F4B" d="M-1602-812l-6.7-6.7c1.1-1.3,1.7-2.9,1.7-4.7c0-4.1-3.4-7.5-7.5-7.5
		c-4.1,0-7.5,3.4-7.5,7.5c0,4.1,3.4,7.5,7.5,7.5c1.8,0,3.4-0.6,4.7-1.7l6.7,6.7L-1602-812z M-1614.5-817.5c-3.3,0-6-2.7-6-6
		c0-3.3,2.7-6,6-6c3.3,0,6,2.7,6,6C-1608.5-820.2-1611.2-817.5-1614.5-817.5z"/>
	<path id="Shape_168_" fill="#333F4B" d="M-1611.1-822.8c0-0.2,0.1-0.4,0.1-0.7c0-0.3,0-0.6-0.1-0.8l0.9-0.7l-1.2-1.7l-0.8,0.6
		c-0.4-0.4-0.8-0.6-1.4-0.8v-1.1h-2v1c-0.5,0.2-0.9,0.4-1.3,0.8l-0.8-0.5l-1.2,1.7l0.9,0.6c-0.1,0.3-0.1,0.6-0.1,0.9
		c0,0.2,0,0.5,0.1,0.7l-1,0.7l1.2,1.7l0.8-0.5c0.4,0.4,0.9,0.7,1.5,0.9v1h2v-1c0.6-0.2,1.1-0.5,1.5-0.9l0.8,0.5l1.2-1.7
		L-1611.1-822.8z M-1614.5-821c-1.4,0-2.5-1.1-2.5-2.5c0-1.4,1.1-2.5,2.5-2.5c1.4,0,2.5,1.1,2.5,2.5
		C-1612-822.2-1613.2-821-1614.5-821z"/>
</g>
</svg>
