<?xml version="1.0" encoding="utf-8"?>
<!-- Generator: Adobe Illustrator 22.0.1, SVG Export Plug-In . SVG Version: 6.00 Build 0)  -->
<svg version="1.1" id="Layer_1" xmlns="http://www.w3.org/2000/svg" xmlns:xlink="http://www.w3.org/1999/xlink" x="0px" y="0px"
	 viewBox="0 0 22 22" enable-background="new 0 0 22 22" xml:space="preserve">
<g id="call" transform="translate(237.000000, 733.000000)">
	<path id="Shape_10_" fill="#333F4B" d="M-221.2-712c-1.1,0-5.1-0.4-9.7-5c-4.7-4.7-5-8.6-5-9.7c0-2,2.4-5.2,3.9-5.2h1.1
		c0.8,0,1.6,0.5,1.8,1.3l1.3,4.1c0.2,0.7,0,1.4-0.5,1.9l-1.1,1.1c0.6,1,1.4,1.9,2.3,2.8c0.9,0.9,1.8,1.6,2.8,2.3l1.1-1.1
		c0.5-0.5,1.2-0.7,1.9-0.5l4.1,1.3c0.8,0.3,1.3,1,1.3,1.8v1C-216-714.4-219.2-712-221.2-712z M-231-730.5h-1.1
		c-0.6,0.1-2.4,2.4-2.4,3.7c0,1,0.3,4.4,4.6,8.7c4.3,4.2,7.7,4.6,8.7,4.6c1.4,0,3.6-1.8,3.7-2.4l0-1c0-0.2-0.1-0.3-0.2-0.4l-4.1-1.3
		c-0.1,0-0.3,0-0.4,0.1l-2,1.9l-0.5-0.3c-1.3-0.8-2.5-1.7-3.6-2.8c-1.1-1.1-2-2.3-2.8-3.6l-0.3-0.5l1.9-1.9c0.1-0.1,0.1-0.2,0.1-0.4
		l-1.3-4.1C-230.7-730.4-230.9-730.5-231-730.5z"/>
</g>
</svg>
