<?xml version="1.0" encoding="utf-8"?>
<!-- Generator: Adobe Illustrator 22.0.1, SVG Export Plug-In . SVG Version: 6.00 Build 0)  -->
<svg version="1.1" id="Layer_1" xmlns="http://www.w3.org/2000/svg" xmlns:xlink="http://www.w3.org/1999/xlink" x="0px" y="0px"
	 viewBox="0 0 22 22" enable-background="new 0 0 22 22" xml:space="preserve">
<g id="cloud" transform="translate(1326.000000, 1033.000000)">
	<path id="Shape_126_" fill="#333F4B" d="M-1321.4-1022.7c-1.1,0-2.1,1-2.1,2.3c0,1.3,0.9,2.3,2.1,2.3h12.8c1.2,0,2.1-1,2.1-2.3
		c0-1.1-0.7-2.1-1.7-2.3l-0.6-0.1l0-0.6c0-2.3-1.8-4.2-4-4.2c-1.4,0-2.7,0.8-3.4,2.1l-0.4,0.7l-0.7-0.5c-0.3-0.2-0.7-0.4-1.1-0.4
		c-1.1,0-2,1-2,2.2v0.8L-1321.4-1022.7L-1321.4-1022.7z M-1308.6-1016.7h-12.8c-2,0-3.6-1.7-3.6-3.8c0-1.9,1.4-3.5,3.1-3.7
		c0.3-1.7,1.7-2.9,3.4-2.9c0.4,0,0.9,0.1,1.3,0.3c1-1.4,2.6-2.3,4.4-2.3c2.8,0,5.1,2.3,5.4,5.1c1.4,0.5,2.4,1.9,2.4,3.6
		C-1305-1018.4-1306.6-1016.7-1308.6-1016.7z"/>
</g>
</svg>
