<?xml version="1.0" encoding="utf-8"?>
<!-- Generator: Adobe Illustrator 22.0.1, SVG Export Plug-In . SVG Version: 6.00 Build 0)  -->
<svg version="1.1" id="Layer_1" xmlns="http://www.w3.org/2000/svg" xmlns:xlink="http://www.w3.org/1999/xlink" x="0px" y="0px"
	 viewBox="0 0 22 22" enable-background="new 0 0 22 22" xml:space="preserve">
<g>
	<path fill="#333F4B" d="M10.5,1C5,1,0.5,5.5,0.5,11c0,5.5,4.5,10,10,10c5.5,0,10-4.5,10-10C20.5,5.5,16,1,10.5,1z M10.5,19.5
		C5.8,19.5,2,15.7,2,11c0-4.7,3.8-8.5,8.5-8.5c4.7,0,8.5,3.8,8.5,8.5C19,15.7,15.2,19.5,10.5,19.5z"/>
	<polygon fill="#333F4B" points="11.7,5.6 6.3,11 11.7,16.4 12.7,15.3 8.4,11 12.7,6.7 	"/>
</g>
</svg>
