<?xml version="1.0" encoding="utf-8"?>
<!-- Generator: Adobe Illustrator 22.0.1, SVG Export Plug-In . SVG Version: 6.00 Build 0)  -->
<svg version="1.1" id="Layer_1" xmlns="http://www.w3.org/2000/svg" xmlns:xlink="http://www.w3.org/1999/xlink" x="0px" y="0px"
	 viewBox="0 0 22 22" enable-background="new 0 0 22 22" xml:space="preserve">
<g id="donut_chart" transform="translate(138.000000, 1129.000000)">
	<path id="Shape_81_" fill="#333F4B" d="M-127-1128c-5.5,0-10,4.5-10,10s4.5,10,10,10c5.5,0,10-4.5,10-10S-121.4-1128-127-1128z
		 M-118.6-1119.1h-3.5c-0.4-2.1-2.2-3.7-4.4-4v-3.4C-122.4-1126.2-119.1-1123.1-118.6-1119.1z M-127-1121.6c1.9,0,3.5,1.6,3.5,3.5
		c0,1.9-1.6,3.5-3.5,3.5c-1.9,0-3.5-1.6-3.5-3.5C-130.5-1120-128.9-1121.6-127-1121.6z M-135.5-1118c0-4.4,3.4-8,7.5-8.4v3.4
		c-2.3,0.5-4,2.5-4,4.9c0,2.8,2.2,5,5,5c0.8,0,1.6-0.2,2.3-0.6l2.6,2.6c-1.4,1-3.1,1.6-5,1.6C-131.7-1109.5-135.5-1113.3-135.5-1118
		z M-120.9-1112.1l-2.5-2.5c0.8-0.8,1.3-1.8,1.4-3h3.5C-118.6-1115.5-119.5-1113.5-120.9-1112.1z"/>
</g>
</svg>
