<?xml version="1.0" encoding="utf-8"?>
<!-- Generator: Adobe Illustrator 22.0.1, SVG Export Plug-In . SVG Version: 6.00 Build 0)  -->
<svg version="1.1" id="Layer_1" xmlns="http://www.w3.org/2000/svg" xmlns:xlink="http://www.w3.org/1999/xlink" x="0px" y="0px"
	 viewBox="0 0 22 22" enable-background="new 0 0 22 22" xml:space="preserve">
<g id="doc" transform="translate(831.000000, 1129.000000)">
	<g id="Group_4_">
		<polygon id="Shape_51_" fill="#333F4B" points="-810,-1124.2 -811.5,-1124.2 -811.5,-1126.9 -828.5,-1126.9 -828.5,-1124.2 
			-830,-1124.2 -830,-1128.4 -810,-1128.4 		"/>
		<polygon id="Shape_52_" fill="#333F4B" points="-810,-1108.4 -830,-1108.4 -830,-1112.7 -828.5,-1112.7 -828.5,-1109.9 
			-811.5,-1109.9 -811.5,-1112.7 -810,-1112.7 		"/>
	</g>
	<g id="Group_5_" transform="translate(0.000000, 6.000000)">
		<path id="Shape_53_" fill="#333F4B" d="M-830-1120.6v-7.6h2.3c0.7,0,1.3,0.2,1.8,0.5c0.5,0.3,0.9,0.7,1.2,1.3
			c0.3,0.6,0.4,1.2,0.4,1.9v0.3c0,0.7-0.1,1.3-0.4,1.9c-0.3,0.5-0.7,1-1.2,1.3c-0.5,0.3-1.1,0.5-1.8,0.5H-830L-830-1120.6z
			 M-828.5-1127v5.1h0.8c0.6,0,1.1-0.2,1.4-0.6c0.3-0.4,0.5-1,0.5-1.7v-0.4c0-0.8-0.2-1.4-0.5-1.8c-0.3-0.4-0.8-0.6-1.4-0.6H-828.5z
			"/>
		<path id="Shape_54_" fill="#333F4B" d="M-817-1124.3c0,0.7-0.1,1.4-0.4,2c-0.3,0.6-0.6,1-1.1,1.3c-0.5,0.3-1.1,0.5-1.7,0.5
			c-0.6,0-1.2-0.2-1.7-0.5c-0.5-0.3-0.9-0.7-1.1-1.3c-0.3-0.6-0.4-1.2-0.4-1.9v-0.4c0-0.7,0.1-1.4,0.4-2c0.3-0.6,0.7-1,1.1-1.3
			c0.5-0.3,1.1-0.5,1.7-0.5c0.6,0,1.2,0.2,1.7,0.5c0.5,0.3,0.9,0.7,1.1,1.3c0.3,0.6,0.4,1.2,0.4,2V-1124.3L-817-1124.3z
			 M-818.6-1124.6c0-0.8-0.1-1.4-0.4-1.8c-0.3-0.4-0.7-0.6-1.2-0.6c-0.5,0-0.9,0.2-1.2,0.6c-0.3,0.4-0.4,1-0.4,1.8v0.4
			c0,0.8,0.1,1.4,0.4,1.8c0.3,0.4,0.7,0.6,1.2,0.6c0.5,0,0.9-0.2,1.2-0.6c0.3-0.4,0.4-1,0.4-1.8V-1124.6L-818.6-1124.6z"/>
		<path id="Shape_55_" fill="#333F4B" d="M-810.1-1123.2c-0.1,0.8-0.4,1.5-0.9,1.9c-0.5,0.5-1.3,0.7-2.2,0.7c-1,0-1.7-0.3-2.3-1
			c-0.6-0.7-0.8-1.6-0.8-2.7v-0.5c0-0.7,0.1-1.4,0.4-1.9c0.3-0.6,0.6-1,1.1-1.3c0.5-0.3,1-0.4,1.7-0.4c0.9,0,1.6,0.2,2.1,0.7
			c0.5,0.5,0.8,1.1,0.9,2h-1.6c0-0.5-0.2-0.8-0.4-1.1s-0.6-0.3-1.1-0.3c-0.5,0-0.9,0.2-1.2,0.6c-0.3,0.4-0.4,1-0.4,1.7v0.6
			c0,0.8,0.1,1.4,0.4,1.8c0.2,0.4,0.6,0.6,1.2,0.6c0.5,0,0.8-0.1,1.1-0.3c0.2-0.2,0.4-0.6,0.4-1H-810.1L-810.1-1123.2z"/>
	</g>
</g>
</svg>
