<?xml version="1.0" encoding="utf-8"?>
<!-- Generator: Adobe Illustrator 22.0.1, SVG Export Plug-In . SVG Version: 6.00 Build 0)  -->
<svg version="1.1" id="Layer_1" xmlns="http://www.w3.org/2000/svg" xmlns:xlink="http://www.w3.org/1999/xlink" x="0px" y="0px"
	 viewBox="0 0 22 22" enable-background="new 0 0 22 22" xml:space="preserve">
<g>
	<path fill="#333F4B" d="M11,1C5.5,1,1,5.5,1,11c0,5.5,4.5,10,10,10c5.5,0,10-4.5,10-10C21,5.5,16.5,1,11,1z M11,19.5
		c-4.7,0-8.5-3.8-8.5-8.5S6.3,2.5,11,2.5c4.7,0,8.5,3.8,8.5,8.5S15.7,19.5,11,19.5z"/>
	<polygon fill="#333F4B" points="8.8,6.7 13.1,11 8.8,15.3 9.8,16.4 15.2,11 9.8,5.6 	"/>
</g>
</svg>
