<?xml version="1.0" encoding="utf-8"?>
<!-- Generator: Adobe Illustrator 22.0.1, SVG Export Plug-In . SVG Version: 6.00 Build 0)  -->
<svg version="1.1" id="Layer_1" xmlns="http://www.w3.org/2000/svg" xmlns:xlink="http://www.w3.org/1999/xlink" x="0px" y="0px"
	 viewBox="0 0 22 22" enable-background="new 0 0 22 22" xml:space="preserve">
<g id="duplicate" transform="translate(930.000000, 832.000000)">
	<path id="Shape_15_" fill="#333F4B" d="M-914.5-825.4v13h-13v-13H-914.5L-914.5-825.4z M-913-826.9h-16v16h16V-826.9L-913-826.9z"
		/>
	<polygon id="Shape_16_" fill="#333F4B" points="-925,-830.9 -925,-828.1 -923.5,-828.1 -923.5,-829.4 -910.5,-829.4 -910.5,-816.4 
		-911.8,-816.4 -911.8,-814.9 -909,-814.9 -909,-830.9 	"/>
	<polygon id="Shape_17_" fill="#333F4B" points="-917.5,-819.6 -920.2,-819.6 -920.2,-822.4 -921.8,-822.4 -921.8,-819.6 
		-924.5,-819.6 -924.5,-818.1 -921.8,-818.1 -921.8,-815.4 -920.2,-815.4 -920.2,-818.1 -917.5,-818.1 	"/>
</g>
</svg>
