<?xml version="1.0" encoding="utf-8"?>
<!-- Generator: Adobe Illustrator 22.0.1, SVG Export Plug-In . SVG Version: 6.00 Build 0)  -->
<svg version="1.1" id="Layer_1" xmlns="http://www.w3.org/2000/svg" xmlns:xlink="http://www.w3.org/1999/xlink" x="0px" y="0px"
	 viewBox="0 0 22 22" enable-background="new 0 0 22 22" xml:space="preserve">
<g id="duration" transform="translate(40.000000, 535.000000)">
	<path id="Shape_248_" fill="#333F4B" d="M-21-528.4l1.1-1.1l-3-2.9l-1.1,1.1l1,0.9l-1.2,1.2c-1.3-1-2.9-1.7-4.6-1.8v-1.4h2.7v-1.5
		h-6.6v1.5h2.5v1.4c-4.4,0.4-7.8,4-7.8,8.5c0,4.7,3.8,8.5,8.5,8.5c4.7,0,8.5-3.8,8.5-8.5c0-2.2-0.8-4.1-2.1-5.6l1.2-1.2L-21-528.4z
		 M-29.6-515.5c-3.9,0-7-3.2-7-7s3.2-7,7-7c3.9,0,7,3.2,7,7S-25.7-515.5-29.6-515.5z"/>
	<path id="Shape_249_" fill="#333F4B" d="M-24.7-524.3l-0.7-1.3l-3.4,1.8v-4.4h-1.5v4.9c-0.4,0.4-0.4,1,0,1.5c0.4,0.4,1.1,0.4,1.5,0
		c0.1-0.1,0.2-0.3,0.3-0.4L-24.7-524.3z"/>
</g>
</svg>
