<?xml version="1.0" encoding="utf-8"?>
<!-- Generator: Adobe Illustrator 22.0.1, SVG Export Plug-In . SVG Version: 6.00 Build 0)  -->
<svg version="1.1" id="Layer_1" xmlns="http://www.w3.org/2000/svg" xmlns:xlink="http://www.w3.org/1999/xlink" x="0px" y="0px"
	 viewBox="0 0 22 22" enable-background="new 0 0 22 22" xml:space="preserve">
<g id="fluid" transform="translate(1527.000000, 1030.000000)">
	<path id="Shape_128_" fill="#333F4B" d="M-1516-1010.3c-3,0-5.5-2.5-5.5-5.5c0-4.5,4.1-9.7,5.5-11.3c1.4,1.6,5.5,6.8,5.5,11.3
		C-1510.5-1012.8-1513-1010.3-1516-1010.3z M-1515.5-1028.5l-0.5-0.5l-0.5,0.5c-0.3,0.3-6.3,6.8-6.3,12.7c0,3.7,3,6.8,6.8,6.8
		c3.7,0,6.8-3,6.8-6.8C-1509.2-1021.7-1515.3-1028.2-1515.5-1028.5z"/>
</g>
</svg>
