<?xml version="1.0" encoding="utf-8"?>
<!-- Generator: Adobe Illustrator 22.0.1, SVG Export Plug-In . SVG Version: 6.00 Build 0)  -->
<svg version="1.1" id="Layer_1" xmlns="http://www.w3.org/2000/svg" xmlns:xlink="http://www.w3.org/1999/xlink" x="0px" y="0px"
	 viewBox="0 0 22 22" enable-background="new 0 0 22 22" xml:space="preserve">
<g id="like" transform="translate(1326.000000, 733.000000)">
	<path id="Shape_29_" fill="#333F4B" d="M-1319.7-730.4c-2.5,0-4.3,2-4.3,4.6c0,3.3,2.8,6.1,7.7,10.7l0.8,0.8l0.7-0.8
		c4.9-4.6,7.7-7.4,7.7-10.7c0-2.6-1.9-4.6-4.3-4.6c-1.3,0-2.9,2-3.6,2.9l-0.6,0.7l-0.6-0.7C-1316.8-728.4-1318.4-730.4-1319.7-730.4
		z M-1315.5-712l-1.8-1.9c-4.7-4.4-8.2-7.7-8.2-11.8c0-3.5,2.6-6.2,5.8-6.2c1.5,0,2.9,1.2,4.2,2.7c1.3-1.5,2.6-2.7,4.2-2.7
		c3.3,0,5.8,2.7,5.8,6.2c0,4.2-3.4,7.4-8.2,11.9L-1315.5-712z"/>
</g>
</svg>
