<?xml version="1.0" encoding="utf-8"?>
<!-- Generator: Adobe Illustrator 22.0.1, SVG Export Plug-In . SVG Version: 6.00 Build 0)  -->
<svg version="1.1" id="Layer_1" xmlns="http://www.w3.org/2000/svg" xmlns:xlink="http://www.w3.org/1999/xlink" x="0px" y="0px"
	 viewBox="0 0 22 22" enable-background="new 0 0 22 22" xml:space="preserve">
<g id="maintenance" transform="translate(1623.000000, 139.000000)">
	<path id="Shape_274_" fill="#333F4B" d="M-1619.8-118c-0.7,0-1.4-0.3-1.9-0.8c-1.1-1.1-1.1-2.8,0-3.9l7.7-7.7
		c-0.6-2.1-0.1-4.3,1.5-5.9c1.6-1.6,4.1-2.1,6.3-1.3l1.1,0.4l-3.4,3.4l0.5,1.4l1.4,0.5l3.4-3.4l0.4,1.1c0.8,2.2,0.3,4.6-1.3,6.3
		c-1.1,1.1-2.6,1.7-4.1,1.7l0,0c-0.6,0-1.2-0.1-1.7-0.3l-7.7,7.7C-1618.3-118.3-1619-118-1619.8-118z M-1608.4-136.5
		c-1.2,0-2.3,0.5-3.1,1.3c-1.2,1.2-1.6,3.1-1,4.7l0.2,0.5l-8.4,8.4c-0.5,0.5-0.5,1.3,0,1.8c0.5,0.5,1.3,0.5,1.8,0l8.4-8.4l0.5,0.2
		c0.5,0.2,1.1,0.3,1.6,0.3l0,0c1.2,0,2.3-0.5,3.1-1.3c0.9-0.9,1.4-2.2,1.3-3.5l-2.3,2.4l-3-1.1l-1-2.9l2.3-2.3
		C-1608.1-136.5-1608.3-136.5-1608.4-136.5z"/>
</g>
</svg>
