<?xml version="1.0" encoding="utf-8"?>
<!-- Generator: Adobe Illustrator 22.0.1, SVG Export Plug-In . SVG Version: 6.00 Build 0)  -->
<svg version="1.1" id="Layer_1" xmlns="http://www.w3.org/2000/svg" xmlns:xlink="http://www.w3.org/1999/xlink" x="0px" y="0px"
	 viewBox="0 0 22 22" enable-background="new 0 0 22 22" xml:space="preserve">
<g>
	<path id="Shape_86_" fill="#333F4B" d="M4.8,17.2v-5.5c0-3.2,2.6-5.8,5.8-5.8c3.2,0,5.8,2.6,5.8,5.8v5.5H4.8z M10.6,2.5
		c0.4,0,0.7,0.3,0.7,0.7S11,3.9,10.6,3.9c-0.4,0-0.7-0.3-0.7-0.7S10.2,2.5,10.6,2.5z M18,17.2v-5.5c0-3.4-2.4-6.3-5.6-7.1
		c0.3-0.4,0.5-0.9,0.5-1.4C12.8,2,11.8,1,10.6,1C9.4,1,8.4,2,8.4,3.2c0,0.5,0.2,1,0.5,1.4c-3.3,0.8-5.7,3.7-5.7,7.1v5.5H1.4v1.5H8
		C8.2,20,9.3,21,10.6,21c1.3,0,2.4-1,2.7-2.2h6.6v-1.6H18L18,17.2z"/>
	<circle id="Oval_9_" fill="#333F4B" cx="15.6" cy="6" r="5"/>
	<path id="Shape_87_" fill="#333F4B" d="M14.9,5.6h0.6c0.3,0,0.6-0.1,0.8-0.2c0.2-0.2,0.3-0.4,0.3-0.7c0-0.3-0.1-0.5-0.2-0.7
		c-0.2-0.2-0.4-0.2-0.7-0.2c-0.3,0-0.5,0.1-0.7,0.2c-0.2,0.2-0.3,0.4-0.3,0.6h-1c0-0.3,0.1-0.6,0.3-0.9C14,3.4,14.3,3.2,14.6,3
		c0.3-0.1,0.6-0.2,1-0.2c0.6,0,1.1,0.2,1.5,0.5c0.4,0.3,0.5,0.7,0.5,1.3c0,0.3-0.1,0.5-0.3,0.8c-0.2,0.2-0.4,0.4-0.7,0.6
		c0.3,0.1,0.6,0.3,0.8,0.6c0.2,0.3,0.3,0.6,0.3,0.9c0,0.6-0.2,1-0.6,1.3c-0.4,0.3-0.9,0.5-1.5,0.5c-0.6,0-1.1-0.2-1.5-0.5
		c-0.4-0.3-0.6-0.7-0.6-1.3h1c0,0.3,0.1,0.5,0.3,0.7c0.2,0.2,0.4,0.3,0.7,0.3c0.3,0,0.6-0.1,0.8-0.3c0.2-0.2,0.3-0.4,0.3-0.7
		c0-0.3-0.1-0.6-0.3-0.8c-0.2-0.2-0.5-0.3-0.9-0.3h-0.6V5.6L14.9,5.6z"/>
</g>
</svg>
