<?xml version="1.0" encoding="utf-8"?>
<!-- Generator: Adobe Illustrator 22.0.1, SVG Export Plug-In . SVG Version: 6.00 Build 0)  -->
<svg version="1.1" id="Layer_1" xmlns="http://www.w3.org/2000/svg" xmlns:xlink="http://www.w3.org/1999/xlink" x="0px" y="0px"
	 viewBox="0 0 22 22" enable-background="new 0 0 22 22" xml:space="preserve">
<g id="no_preview" transform="translate(732.000000, 238.000000)">
	<path id="Shape_215_" fill="#333F4B" d="M-714.7-232.3l3.7-3.7l-1.1-1.1l-3.9,3.9c-1.5-0.9-3.2-1.4-5.1-1.4c-4.4,0-8.4,2.9-9.9,7.3
		l-0.1,0.2l0.1,0.2c0.7,2.1,2,3.8,3.6,5l-3.7,3.7l1.1,1.1l3.9-3.9c1.5,0.9,3.3,1.4,5,1.4c4.4,0,8.3-2.9,9.9-7.3l0.1-0.2l-0.1-0.2
		C-711.9-229.3-713.1-231-714.7-232.3z M-729.4-227c1.4-3.6,4.8-6,8.4-6c1.4,0,2.8,0.3,4,1l-1.7,1.7c-0.7-0.4-1.5-0.6-2.3-0.6
		c-2.4,0-4.3,1.8-4.3,4c0,0.9,0.3,1.7,0.9,2.4l-1.8,1.8C-727.6-223.9-728.8-225.3-729.4-227z M-718.2-227c0,1.4-1.3,2.5-2.8,2.5
		c-0.4,0-0.8-0.1-1.2-0.3l3.6-3.6C-718.4-227.9-718.2-227.5-718.2-227z M-723.8-227c0-1.4,1.2-2.5,2.8-2.5c0.4,0,0.8,0.1,1.2,0.3
		l-3.6,3.6C-723.7-226.1-723.8-226.5-723.8-227z M-721-221c-1.4,0-2.7-0.4-3.9-1l1.6-1.6c0.7,0.4,1.5,0.6,2.3,0.6
		c2.4,0,4.3-1.8,4.3-4c0-0.9-0.3-1.7-0.9-2.4l1.8-1.8c1.4,1,2.5,2.5,3.1,4.2C-714-223.3-717.3-221-721-221z"/>
</g>
</svg>
