<?xml version="1.0" encoding="utf-8"?>
<!-- Generator: Adobe Illustrator 22.0.1, SVG Export Plug-In . SVG Version: 6.00 Build 0)  -->
<svg version="1.1" id="Layer_1" xmlns="http://www.w3.org/2000/svg" xmlns:xlink="http://www.w3.org/1999/xlink" x="0px" y="0px"
	 viewBox="0 0 22 22" enable-background="new 0 0 22 22" xml:space="preserve">
<g>
	<polygon fill="#333F4B" points="7,15.1 2.6,15.1 2.6,3.6 4.7,3.6 4.7,4.7 6.2,4.7 6.2,3.6 11.7,3.6 11.7,4.7 13.1,4.7 13.1,3.6 
		15.3,3.6 15.3,5.8 16.8,5.8 16.8,2.1 13.1,2.1 13.1,0.9 11.7,0.9 11.7,2.1 6.2,2.1 6.2,0.9 4.7,0.9 4.7,2.1 1.1,2.1 1.1,16.6 
		7,16.6 	"/>
	<rect x="4.4" y="9" fill="#333F4B" width="1.5" height="1.5"/>
	<rect x="6.7" y="9" fill="#333F4B" width="1.5" height="1.5"/>
	<rect x="4.4" y="6.7" fill="#333F4B" width="1.5" height="1.5"/>
	<rect x="6.7" y="6.7" fill="#333F4B" width="1.5" height="1.5"/>
	<rect x="4.4" y="11.3" fill="#333F4B" width="1.5" height="1.5"/>
	<polygon fill="#333F4B" points="8.2,12.8 8.2,11.4 6.7,11.4 6.7,12.8 	"/>
	<rect x="9" y="6.7" fill="#333F4B" width="1.5" height="1.5"/>
	<path fill="#333F4B" d="M16.6,14.5c0.9-0.7,1.5-1.8,1.5-3.1c0-2.2-1.9-4-4.2-4c-2.3,0-4.2,1.8-4.2,4c0,1.2,0.6,2.3,1.5,3.1
		c-2.6,1-4.5,3.5-4.5,6.4h1.4c0-3,2.5-5.4,5.5-5.5c0,0,0.1,0,0.1,0c0,0,0.1,0,0.1,0c3.1,0.1,5.5,2.5,5.5,5.5h1.4
		C21.1,18,19.3,15.5,16.6,14.5z M14.1,14c0,0-0.1,0-0.1,0c0,0-0.1,0-0.1,0c-1.4-0.1-2.6-1.2-2.6-2.6c0-1.4,1.2-2.6,2.7-2.6
		c1.5,0,2.7,1.2,2.7,2.6C16.7,12.8,15.6,13.9,14.1,14z"/>
</g>
</svg>
