<?xml version="1.0" encoding="utf-8"?>
<!-- Generator: Adobe Illustrator 22.0.1, SVG Export Plug-In . SVG Version: 6.00 Build 0)  -->
<svg version="1.1" id="Layer_1" xmlns="http://www.w3.org/2000/svg" xmlns:xlink="http://www.w3.org/1999/xlink" x="0px" y="0px"
	 viewBox="0 0 22 22" enable-background="new 0 0 22 22" xml:space="preserve">
<g id="logout" transform="translate(1425.000000, 238.000000)">
	<path id="Shape_204_" fill="#333F4B" d="M-1419.3-235.5L-1419.3-235.5l0.7,1.3c-0.2,0.1-0.4,0.3-0.6,0.4c-2,1.6-3.3,4-3.3,6.7
		c0,4.7,3.8,8.5,8.5,8.5s8.5-3.8,8.5-8.5c0-2.7-1.4-5.2-3.3-6.7c-0.2-0.2-0.4-0.3-0.6-0.4l0.7-1.4c0.3,0.2,0.6,0.4,0.8,0.6
		c2.3,1.8,3.9,4.8,3.9,7.9c0,5.5-4.5,10-10,10s-10-4.5-10-10c0-3.2,1.5-6.1,3.9-7.9C-1419.8-235.1-1419.5-235.3-1419.3-235.5z"/>
	<rect id="Rectangle-path_54_" x="-1414.8" y="-237" fill="#333F4B" width="1.5" height="10"/>
</g>
</svg>
