<?xml version="1.0" encoding="utf-8"?>
<!-- Generator: Adobe Illustrator 22.0.1, SVG Export Plug-In . SVG Version: 6.00 Build 0)  -->
<svg version="1.1" id="Layer_1" xmlns="http://www.w3.org/2000/svg" xmlns:xlink="http://www.w3.org/1999/xlink" x="0px" y="0px"
	 viewBox="0 0 22 22" enable-background="new 0 0 22 22" xml:space="preserve">
<g id="polar_chart" transform="translate(237.000000, 1129.000000)">
	<path id="Shape_77_" fill="#333F4B" d="M-226-1128c-5.5,0-10,4.5-10,10s4.5,10,10,10s10-4.5,10-10S-220.4-1128-226-1128z
		 M-221.3-1114.3c0.8-1,1.3-2.3,1.3-3.7c0-1.3-0.5-2.6-1.2-3.6l1.8-1.8c1.2,1.5,1.9,3.3,1.9,5.4c0,2.1-0.7,4-2,5.5L-221.3-1114.3z
		 M-230.4-1118c0-1,0.3-1.8,0.8-2.6l2.6,2.6l-2.6,2.6C-230.1-1116.1-230.4-1117-230.4-1118z M-228.6-1121.6c0.7-0.5,1.6-0.8,2.6-0.8
		c1,0,1.9,0.3,2.6,0.9l-2.6,2.6L-228.6-1121.6z M-225.9-1116.9l2.5,2.5c-0.7,0.5-1.6,0.8-2.6,0.8c-0.9,0-1.8-0.3-2.5-0.8
		L-225.9-1116.9z M-224.9-1117.9l2.5-2.5c0.5,0.7,0.8,1.6,0.8,2.5c0,1-0.3,1.8-0.8,2.6L-224.9-1117.9z M-220.5-1124.5l-1.8,1.8
		c-1-0.8-2.3-1.3-3.8-1.3c-1.4,0-2.7,0.5-3.7,1.3l-1.8-1.8c1.5-1.2,3.4-2,5.4-2C-223.9-1126.5-222-1125.7-220.5-1124.5z
		 M-234.5-1118c0-2.1,0.8-4,2-5.4l1.8,1.8c-0.8,1-1.3,2.3-1.3,3.7c0,1.4,0.5,2.7,1.3,3.8l-1.8,1.8
		C-233.7-1114-234.5-1115.9-234.5-1118z M-231.4-1111.4l1.8-1.8c1,0.8,2.2,1.2,3.6,1.2c1.4,0,2.7-0.5,3.7-1.3l1.8,1.8
		c-1.5,1.2-3.4,2-5.5,2C-228-1109.5-229.9-1110.2-231.4-1111.4z"/>
</g>
</svg>
