<?xml version="1.0" encoding="utf-8"?>
<!-- Generator: Adobe Illustrator 22.0.1, SVG Export Plug-In . SVG Version: 6.00 Build 0)  -->
<svg version="1.1" id="Layer_1" xmlns="http://www.w3.org/2000/svg" xmlns:xlink="http://www.w3.org/1999/xlink" x="0px" y="0px"
	 viewBox="0 0 22 22" enable-background="new 0 0 22 22" xml:space="preserve">
<g id="ptx" transform="translate(1029.000000, 1129.000000)">
	<g id="Group_7_">
		<polygon id="Shape_61_" fill="#333F4B" points="-1008.1,-1123.8 -1009.6,-1123.8 -1009.6,-1126.6 -1026.6,-1126.6 
			-1026.6,-1123.8 -1028.1,-1123.8 -1028.1,-1128.1 -1008.1,-1128.1 		"/>
		<polygon id="Shape_62_" fill="#333F4B" points="-1008.1,-1108.1 -1028.1,-1108.1 -1028.1,-1112.3 -1026.6,-1112.3 
			-1026.6,-1109.6 -1009.6,-1109.6 -1009.6,-1112.3 -1008.1,-1112.3 		"/>
	</g>
	<g id="Group_8_" transform="translate(0.000000, 6.000000)">
		<path id="Shape_63_" fill="#333F4B" d="M-1026.6-1122.9v2.7h-1.6v-7.6h3c0.6,0,1.1,0.1,1.5,0.3c0.4,0.2,0.8,0.5,1,0.9
			c0.2,0.4,0.3,0.8,0.3,1.3c0,0.7-0.3,1.3-0.8,1.8c-0.5,0.4-1.2,0.6-2.1,0.6H-1026.6L-1026.6-1122.9z M-1026.6-1124.2h1.4
			c0.4,0,0.7-0.1,0.9-0.3c0.2-0.2,0.3-0.5,0.3-0.8c0-0.4-0.1-0.7-0.3-0.9c-0.2-0.2-0.5-0.3-0.9-0.4h-1.4V-1124.2z"/>
		<polygon id="Shape_64_" fill="#333F4B" points="-1015.3,-1126.6 -1017.6,-1126.6 -1017.6,-1120.3 -1019.2,-1120.3 
			-1019.2,-1126.6 -1021.5,-1126.6 -1021.5,-1127.9 -1015.3,-1127.9 		"/>
		<polygon id="Shape_65_" fill="#333F4B" points="-1011.4,-1125.2 -1010,-1127.9 -1008.2,-1127.9 -1010.4,-1124.1 -1008.1,-1120.3 
			-1010,-1120.3 -1011.4,-1122.9 -1012.9,-1120.3 -1014.7,-1120.3 -1012.4,-1124.1 -1014.6,-1127.9 -1012.8,-1127.9 		"/>
	</g>
</g>
</svg>
