<?xml version="1.0" encoding="utf-8"?>
<!-- Generator: Adobe Illustrator 22.0.1, SVG Export Plug-In . SVG Version: 6.00 Build 0)  -->
<svg version="1.1" id="Layer_1" xmlns="http://www.w3.org/2000/svg" xmlns:xlink="http://www.w3.org/1999/xlink" x="0px" y="0px"
	 viewBox="0 0 22 22" enable-background="new 0 0 22 22" xml:space="preserve">
<g id="rotate_right" transform="translate(534.000000, 139.000000)">
	<path id="Shape_353_" fill="#333F4B" d="M-523-118c-0.4,0-0.9,0-1.3-0.1c-0.6-0.1-1.3-0.2-1.9-0.4l0.5-1.4c0.5,0.2,1,0.3,1.6,0.4
		c0.4,0,0.7,0.1,1.1,0.1L-523-118z M-528.1-119.4c-0.9-0.5-1.7-1.2-2.4-2l1.1-1c0.6,0.7,1.3,1.3,2.1,1.7L-528.1-119.4z
		 M-531.7-123.2c-0.5-0.9-0.9-1.9-1.1-3l1.5-0.3c0.2,0.9,0.5,1.7,0.9,2.5L-531.7-123.2z M-531.5-128.2l-1.5,0c0-0.3,0-0.7,0.1-1
		c0.1-0.7,0.3-1.4,0.5-2.1l1.4,0.5c-0.2,0.6-0.3,1.2-0.4,1.8C-531.5-128.8-531.5-128.5-531.5-128.2z"/>
	<path id="Shape_354_" fill="#333F4B" d="M-515.9-135.1c-1.8-1.8-4.4-2.9-7-2.9c-2.7,0-5.2,1-7.1,2.9c-0.5,0.5-1,1.1-1.4,1.8
		l1.3,0.8c0.3-0.5,0.7-1.1,1.2-1.5c1.6-1.6,3.7-2.5,6-2.5c2.3,0,4.4,0.9,6,2.5l-3,3h5.2h1.8v-1.7v-5.3L-515.9-135.1z"/>
</g>
</svg>
