<?xml version="1.0" encoding="utf-8"?>
<!-- Generator: Adobe Illustrator 22.0.1, SVG Export Plug-In . SVG Version: 6.00 Build 0)  -->
<svg version="1.1" id="Layer_1" xmlns="http://www.w3.org/2000/svg" xmlns:xlink="http://www.w3.org/1999/xlink" x="0px" y="0px"
	 viewBox="0 0 22 22" enable-background="new 0 0 22 22" xml:space="preserve">
<g id="rotate_left" transform="translate(633.000000, 139.000000)">
	<path id="Shape_351_" fill="#333F4B" d="M-622-119.5c0.4,0,0.7,0,1.1-0.1c0.5-0.1,1.1-0.2,1.6-0.4l0.5,1.4
		c-0.6,0.2-1.2,0.3-1.9,0.4c-0.4,0.1-0.8,0.1-1.3,0.1L-622-119.5z M-617.7-120.7c0.8-0.5,1.5-1,2.1-1.7l1.1,1
		c-0.7,0.8-1.5,1.5-2.4,2L-617.7-120.7z M-614.6-123.9c0.4-0.8,0.8-1.6,0.9-2.5l1.5,0.3c-0.2,1-0.6,2.1-1.1,3L-614.6-123.9z
		 M-613.6-129.1c-0.1-0.6-0.2-1.2-0.4-1.8l1.4-0.5c0.2,0.7,0.4,1.4,0.5,2.1c0,0.3,0.1,0.7,0.1,1l-1.5,0
		C-613.5-128.5-613.5-128.8-613.6-129.1z"/>
	<path id="Shape_352_" fill="#333F4B" d="M-629.1-135.1c1.8-1.8,4.4-2.9,7-2.9c2.7,0,5.2,1,7.1,2.9c0.5,0.5,1,1.1,1.4,1.8l-1.3,0.8
		c-0.3-0.5-0.7-1.1-1.2-1.5c-1.6-1.6-3.7-2.5-6-2.5c-2.3,0-4.4,0.9-6,2.5l3,3h-5.2h-1.8v-1.7v-5.3L-629.1-135.1z"/>
</g>
</svg>
