<?xml version="1.0" encoding="utf-8"?>
<!-- Generator: Adobe Illustrator 22.0.1, SVG Export Plug-In . SVG Version: 6.00 Build 0)  -->
<svg version="1.1" id="Layer_1" xmlns="http://www.w3.org/2000/svg" xmlns:xlink="http://www.w3.org/1999/xlink" x="0px" y="0px"
	 viewBox="0 0 22 22" enable-background="new 0 0 22 22" xml:space="preserve">
<g id="save_as" transform="translate(732.000000, 733.000000)">
	<path id="Shape_38_" fill="#333F4B" d="M-718.4-713.3h0.8l4.6-4.6l-0.8-0.8l-4.7,4.6V-713.3L-718.4-713.3z M-717-712h-2.7v-2.7
		l6-5.9l2.8,2.7L-717-712z"/>
	<path id="Shape_39_" fill="#333F4B" d="M-720.9-723.1c1.2,0,2.3,1,2.3,2.3c0,1.3-1,2.3-2.3,2.3c-1.3,0-2.3-1-2.3-2.3
		C-723.2-722.1-722.1-723.1-720.9-723.1z M-720.9-724.6c-2.1,0-3.8,1.7-3.8,3.8c0,2.1,1.7,3.8,3.8,3.8c2.1,0,3.8-1.7,3.8-3.8
		C-717.1-722.9-718.8-724.6-720.9-724.6z"/>
	<path id="Shape_40_" fill="#333F4B" d="M-721-713.5h-8.5v-13.4l3.6-3.6h0.5v3.2h8.9v-3.2h3.9v9.4h1.6V-732h-15.5l-4.5,4.5v15.5h10
		V-713.5z M-723.9-730.5h6v1.7h-6V-730.5z"/>
</g>
</svg>
