<?xml version="1.0" encoding="utf-8"?>
<!-- Generator: Adobe Illustrator 22.0.1, SVG Export Plug-In . SVG Version: 6.00 Build 0)  -->
<svg version="1.1" id="Layer_1" xmlns="http://www.w3.org/2000/svg" xmlns:xlink="http://www.w3.org/1999/xlink" x="0px" y="0px"
	 viewBox="0 0 22 22" enable-background="new 0 0 22 22" xml:space="preserve">
<g id="sensor_management" transform="translate(1723.000000, 1032.000000)">
	<path id="Shape_132_" fill="#333F4B" d="M-1705.9-1024l-1.4,2.1l-2.7-5.7l-3.1,7.5l-3.2-10.9l-3.2,7h-3v1.5h3.9l1.9-4.2l3.2,11.1
		l3.5-8.3l1.4,2.9c0.5-0.2,1.1-0.3,1.7-0.3c0.3,0,0.6,0,1,0.1l0.8-1.3h2.6v-1.5H-1705.9L-1705.9-1024z"/>
	<path id="Shape_133_" fill="#333F4B" d="M-1703.4-1015.4c0-0.3,0-0.6-0.1-0.8l0.9-0.7l-1.2-1.7l-0.8,0.6c-0.4-0.4-0.8-0.6-1.4-0.8
		v-1.1h-2v1c-0.5,0.2-0.9,0.4-1.3,0.8l-0.8-0.5l-1.2,1.7l0.9,0.6c-0.1,0.3-0.1,0.6-0.1,0.9c0,0.2,0,0.5,0.1,0.7l-1,0.7l1.2,1.7
		l0.8-0.5c0.4,0.4,0.9,0.7,1.5,0.9v1h2v-1c0.6-0.2,1.1-0.5,1.5-0.9l0.8,0.5l1.2-1.7l-1-0.7
		C-1703.5-1014.9-1703.4-1015.2-1703.4-1015.4z M-1706.9-1013c-1.4,0-2.5-1.1-2.5-2.5c0-1.4,1.1-2.5,2.5-2.5c1.4,0,2.5,1.1,2.5,2.5
		C-1704.5-1014.1-1705.6-1013-1706.9-1013z"/>
</g>
</svg>
