<?xml version="1.0" encoding="utf-8"?>
<!-- Generator: Adobe Illustrator 22.0.1, SVG Export Plug-In . SVG Version: 6.00 Build 0)  -->
<svg version="1.1" id="Layer_1" xmlns="http://www.w3.org/2000/svg" xmlns:xlink="http://www.w3.org/1999/xlink" x="0px" y="0px"
	 viewBox="0 0 22 22" enable-background="new 0 0 22 22" xml:space="preserve">
<g id="share" transform="translate(1227.000000, 832.000000)">
	<path id="Shape_43_" fill="#FFFFFF" d="M-1209.8-818.5c-1.2,0-2.3,0.6-3,1.6l-5.9-3.1c0.1-0.3,0.1-0.6,0.1-1s-0.1-0.7-0.1-1
		l5.9-3.1c0.7,0.9,1.8,1.6,3,1.6c2.1,0,3.8-1.7,3.8-3.8s-1.7-3.8-3.8-3.8s-3.8,1.7-3.8,3.8c0,0.3,0,0.6,0.1,0.8l-5.9,3.1
		c-0.7-0.9-1.7-1.4-2.9-1.4c-2.1,0-3.8,1.7-3.8,3.8s1.7,3.8,3.8,3.8c1.2,0,2.2-0.6,2.9-1.4l5.9,3.1c-0.1,0.3-0.1,0.5-0.1,0.8
		c0,2.1,1.7,3.8,3.8,3.8s3.8-1.7,3.8-3.8S-1207.7-818.5-1209.8-818.5z M-1209.8-829.5c1.2,0,2.2,1,2.2,2.2s-1,2.2-2.2,2.2
		s-2.2-1-2.2-2.2S-1211-829.5-1209.8-829.5z M-1222.2-818.8c-1.2,0-2.2-1-2.2-2.2s1-2.2,2.2-2.2s2.2,1,2.2,2.2
		S-1221-818.8-1222.2-818.8z M-1209.8-812.5c-1.2,0-2.2-1-2.2-2.2s1-2.2,2.2-2.2s2.2,1,2.2,2.2S-1208.5-812.5-1209.8-812.5z"/>
</g>
</svg>
