<?xml version="1.0" encoding="utf-8"?>
<!-- Generator: Adobe Illustrator 22.0.1, SVG Export Plug-In . SVG Version: 6.00 Build 0)  -->
<svg version="1.1" id="Layer_1" xmlns="http://www.w3.org/2000/svg" xmlns:xlink="http://www.w3.org/1999/xlink" x="0px" y="0px"
	 viewBox="0 0 22 22" enable-background="new 0 0 22 22" xml:space="preserve">
<g id="sync" transform="translate(39.000000, 139.000000)">
	<path id="Shape_355_" fill="#333F4B" d="M-20.9-135.1c-1.8-1.8-4.4-2.9-7.1-2.9c-5.5,0-10,4.5-10,10h1.5c0-4.7,3.8-8.5,8.5-8.5
		c2.3,0,4.4,0.9,6,2.5l-3,3h5.2h1.8v-1.7v-5.3L-20.9-135.1z"/>
	<path id="Shape_356_" fill="#333F4B" d="M-28-119.5c-2.3,0-4.4-0.9-6-2.5l3-3h-5.2H-38v1.7v5.3l2.9-2.9c1.8,1.8,4.4,2.9,7.1,2.9
		c5.5,0,10-4.5,10-10h-1.5C-19.5-123.3-23.3-119.5-28-119.5z"/>
</g>
</svg>
