<?xml version="1.0" encoding="utf-8"?>
<!-- Generator: Adobe Illustrator 22.0.1, SVG Export Plug-In . SVG Version: 6.00 Build 0)  -->
<svg version="1.1" id="Layer_1" xmlns="http://www.w3.org/2000/svg" xmlns:xlink="http://www.w3.org/1999/xlink" x="0px" y="0px"
	 viewBox="0 0 22 22" enable-background="new 0 0 22 22" xml:space="preserve">
<g id="txt" transform="translate(1128.000000, 1129.000000)">
	<polygon id="Shape_66_" fill="#333F4B" points="-1107.2,-1123.7 -1108.7,-1123.7 -1108.7,-1126.5 -1125.7,-1126.5 -1125.7,-1123.7 
		-1127.2,-1123.7 -1127.2,-1128 -1107.2,-1128 	"/>
	<polygon id="Shape_67_" fill="#333F4B" points="-1107.2,-1108 -1127.2,-1108 -1127.2,-1112.2 -1125.7,-1112.2 -1125.7,-1109.5 
		-1108.7,-1109.5 -1108.7,-1112.2 -1107.2,-1112.2 	"/>
	<g id="Group_9_" transform="translate(0.000000, 6.000000)">
		<polygon id="Shape_68_" fill="#333F4B" points="-1121,-1126.5 -1123.4,-1126.5 -1123.4,-1120.2 -1124.9,-1120.2 -1124.9,-1126.5 
			-1127.2,-1126.5 -1127.2,-1127.8 -1121,-1127.8 		"/>
		<polygon id="Shape_69_" fill="#333F4B" points="-1117.2,-1125.1 -1115.8,-1127.8 -1114,-1127.8 -1116.2,-1124 -1113.9,-1120.2 
			-1115.7,-1120.2 -1117.2,-1122.8 -1118.6,-1120.2 -1120.5,-1120.2 -1118.2,-1124 -1120.4,-1127.8 -1118.6,-1127.8 		"/>
		<polygon id="Shape_70_" fill="#333F4B" points="-1107.2,-1126.5 -1109.6,-1126.5 -1109.6,-1120.2 -1111.1,-1120.2 
			-1111.1,-1126.5 -1113.4,-1126.5 -1113.4,-1127.8 -1107.2,-1127.8 		"/>
	</g>
</g>
</svg>
