<?xml version="1.0" encoding="utf-8"?>
<!-- Generator: Adobe Illustrator 22.0.1, SVG Export Plug-In . SVG Version: 6.00 Build 0)  -->
<svg version="1.1" id="Layer_1" xmlns="http://www.w3.org/2000/svg" xmlns:xlink="http://www.w3.org/1999/xlink" x="0px" y="0px"
	 viewBox="0 0 22 22" enable-background="new 0 0 22 22" xml:space="preserve">
<g id="user" transform="translate(336.000000, 1030.000000)">
	<path id="Shape_166_" fill="#333F4B" d="M-321.9-1018.6c1.5-1,2.6-2.8,2.6-4.8c0-3.1-2.5-5.7-5.6-5.7s-5.6,2.5-5.6,5.7
		c0,2,1,3.7,2.6,4.8c-4,1.3-6.9,5.1-6.9,9.6h1.5c0-4.7,3.8-8.6,8.5-8.6c4.7,0,8.5,3.8,8.5,8.6h1.5
		C-315-1013.5-317.9-1017.3-321.9-1018.6z M-329.2-1023.4c0-2.3,1.9-4.2,4.2-4.2c2.3,0,4.2,1.9,4.2,4.2c0,2.3-1.9,4.2-4.2,4.2
		C-327.3-1019.2-329.2-1021.1-329.2-1023.4z"/>
</g>
</svg>
