<?xml version="1.0" encoding="utf-8"?>
<!-- Generator: Adobe Illustrator 22.0.1, SVG Export Plug-In . SVG Version: 6.00 Build 0)  -->
<svg version="1.1" id="Layer_1" xmlns="http://www.w3.org/2000/svg" xmlns:xlink="http://www.w3.org/1999/xlink" x="0px" y="0px"
	 viewBox="0 0 22 22" enable-background="new 0 0 22 22" xml:space="preserve">
<g id="viewer" transform="translate(831.000000, 238.000000)">
	<polygon id="Shape_218_" fill="#333F4B" points="-810,-232.1 -811.5,-232.1 -811.5,-235.4 -828.5,-235.4 -828.5,-232.1 
		-830,-232.1 -830,-237 -810,-237 	"/>
	<polygon id="Shape_219_" fill="#333F4B" points="-810,-217 -830,-217 -830,-221.9 -828.5,-221.9 -828.5,-218.6 -811.5,-218.6 
		-811.5,-221.9 -810,-221.9 	"/>
	<g id="Group_14_" transform="translate(0.000000, 2.000000)">
		<path id="Shape_220_" fill="#333F4B" d="M-820-223c-3.6,0-7-2.4-8.4-6c1.4-3.6,4.8-6,8.4-6c3.7,0,7,2.3,8.4,6
			C-813-225.3-816.3-223-820-223z M-810.1-229.2c-1.6-4.4-5.5-7.3-9.9-7.3c-4.4,0-8.4,2.9-9.9,7.3l-0.1,0.2l0.1,0.2
			c1.6,4.4,5.6,7.3,9.9,7.3c4.4,0,8.3-2.9,9.9-7.3l0.1-0.2L-810.1-229.2z"/>
		<path id="Shape_221_" fill="#333F4B" d="M-820-226.5c-1.5,0-2.8-1.1-2.8-2.5c0-1.4,1.2-2.5,2.8-2.5c1.5,0,2.8,1.1,2.8,2.5
			C-817.2-227.6-818.5-226.5-820-226.5z M-820-233c-2.4,0-4.3,1.8-4.3,4c0,2.2,1.9,4,4.3,4c2.4,0,4.3-1.8,4.3-4
			C-815.7-231.2-817.6-233-820-233z"/>
	</g>
</g>
</svg>
