<?xml version="1.0" encoding="UTF-8"?>
<svg width="20px" height="25px" viewBox="0 0 20 25" version="1.1" xmlns="http://www.w3.org/2000/svg" xmlns:xlink="http://www.w3.org/1999/xlink">
    <!-- Generator: Sketch 54.1 (76490) - https://sketchapp.com -->
    <title>duplicate</title>
    <desc>Created with Sketch.</desc>
    <g id="WEDNESDAY" stroke="none" stroke-width="1" fill="none" fill-rule="evenodd">
        <g id="TOOLBAR_CHART" transform="translate(-603.000000, -510.000000)" fill="#FFFFFF" fill-rule="nonzero">
            <g id="duplicate" transform="translate(603.000000, 510.500000)">
                <path d="M19.1623775,4.45367433 C19.1581099,4.38555909 19.144565,4.32000731 19.1217427,4.25555419 C19.1133931,4.23156741 19.1070845,4.20794677 19.0963228,4.18505859 C19.0595845,4.10742188 19.0133833,4.0338135 18.9499263,3.97082522 C18.9495552,3.97045898 18.9493696,3.96990966 18.948813,3.96954347 L15.1493696,0.219909656 C15.1489986,0.219543469 15.1484419,0.219360375 15.1478853,0.218811047 C15.0838716,0.155822766 15.0089107,0.110229469 14.9300533,0.0737915156 C14.9079732,0.0637207031 14.8849654,0.0578613281 14.861772,0.0498046875 C14.794604,0.0263671875 14.7261372,0.0128174063 14.6550728,0.00860596875 C14.6400435,0.00769040625 14.6272408,0 14.6118404,0 L3.97184035,0 C3.5521333,0 3.21184035,0.335815406 3.21184035,0.75 L3.21184035,3.75 L0.931840355,3.75 C0.5121333,3.75 0.171840355,4.08581541 0.171840355,4.5 L0.171840355,23.25 C0.171840355,23.6641846 0.5121333,24 0.931840355,24 L14.6118404,24 C15.0315474,24 15.3718404,23.6641846 15.3718404,23.25 C15.3718404,22.8358154 15.0315474,22.5 14.6118404,22.5 L1.69184035,22.5 L1.69184035,5.25 L3.21184035,5.25 L3.21184035,20.25 C3.21184035,20.6641846 3.5521333,21 3.97184035,21 L18.4118404,21 C18.8315474,21 19.1718404,20.6641846 19.1718404,20.25 L19.1718404,4.5 C19.1718404,4.48352053 19.1634908,4.4699707 19.1623775,4.45367433 L19.1623775,4.45367433 Z M15.3718404,2.56054688 L16.5771529,3.75 L15.3718404,3.75 L15.3718404,2.56054688 Z M4.73184035,19.5 L4.73184035,1.5 L13.8518404,1.5 L13.8518404,4.5 C13.8518404,4.91418459 14.1921333,5.25 14.6118404,5.25 L17.6518404,5.25 L17.6518404,19.5 L4.73184035,19.5 Z" id="Shape"></path>
                <path d="M15.3536585,10 L7.99002217,10 C7.53818443,10 7.17184035,9.55224612 7.17184035,9 C7.17184035,8.44775388 7.53818443,8 7.99002217,8 L15.3536585,8 C15.8054963,8 16.1718404,8.44775388 16.1718404,9 C16.1718404,9.55224612 15.8054963,10 15.3536585,10 Z" id="Path"></path>
                <path d="M15.3536585,13 L7.99002217,13 C7.53818443,13 7.17184035,12.5522461 7.17184035,12 C7.17184035,11.4477539 7.53818443,11 7.99002217,11 L15.3536585,11 C15.8054963,11 16.1718404,11.4477539 16.1718404,12 C16.1718404,12.5522461 15.8054963,13 15.3536585,13 Z" id="Path"></path>
                <path d="M15.3536585,16 L7.99002217,16 C7.53818443,16 7.17184035,15.5522461 7.17184035,15 C7.17184035,14.4477539 7.53818443,14 7.99002217,14 L15.3536585,14 C15.8054963,14 16.1718404,14.4477539 16.1718404,15 C16.1718404,15.5522461 15.8054963,16 15.3536585,16 Z" id="Path"></path>
            </g>
        </g>
    </g>
</svg>