<?xml version="1.0" encoding="UTF-8"?>
<svg width="18px" height="23px" viewBox="0 0 18 23" version="1.1" xmlns="http://www.w3.org/2000/svg" xmlns:xlink="http://www.w3.org/1999/xlink">
    <!-- Generator: Sketch 54.1 (76490) - https://sketchapp.com -->
    <title>rubbish-bin</title>
    <desc>Created with Sketch.</desc>
    <g id="WEDNESDAY" stroke="none" stroke-width="1" fill="none" fill-rule="evenodd">
        <g id="TOOLBAR_CHART" transform="translate(-646.000000, -511.000000)" fill="#FFFFFF" fill-rule="nonzero">
            <g id="rubbish-bin" transform="translate(646.000000, 511.500000)">
                <path d="M16.0673139,2.59047331 L13.1252917,2.59047331 L13.1252917,0.681679576 C13.1252917,0.297465861 12.8148937,0 12.4301048,0 C12.3927672,0 12.3678659,0.0124453193 12.3557141,0.0248622245 C12.3432492,0.0124453193 12.3183479,0 12.3059115,0 L5.39140945,0 L5.34189148,0 L5.29208892,0 C4.90730011,0 4.60936697,0.297465861 4.60936697,0.681679576 L4.60936697,2.59050173 L1.65490836,2.59050173 C0.810626906,2.59050173 0.152777778,3.24731908 0.152777778,4.09027635 L0.152777778,5.18100345 L0.152777778,6.54433419 L1.45626729,6.54433419 L1.45626729,20.5126423 C1.45626729,21.355628 2.10168001,22 2.94596147,22 L14.7762892,22 C15.6205707,22 16.2783913,21.355628 16.2783913,20.5126423 L16.2783913,6.54433419 L17.5694444,6.54433419 L17.5694444,5.18100345 L17.5694444,4.09027635 C17.5694444,3.24731908 16.9113392,2.59047331 16.0673139,2.59047331 Z M5.97483932,1.36333074 L11.7473829,1.36333074 L11.7473829,2.59047331 L5.97483932,2.59047331 L5.97483932,1.36333074 L5.97483932,1.36333074 Z M14.9004826,20.5126707 C14.9004826,20.5996459 14.8631449,20.6366408 14.7762892,20.6366408 L2.94596147,20.6366408 C2.8591058,20.6366408 2.82176811,20.5996174 2.82176811,20.5126707 L2.82176811,6.54430578 L14.9004826,6.54430578 L14.9004826,20.5126707 L14.9004826,20.5126707 Z M16.1915357,5.18097504 L1.53068655,5.18097504 L1.53068655,4.09024794 C1.53068655,4.00350008 1.56802424,3.95380405 1.6548799,3.95380405 L16.0673139,3.95380405 C16.154198,3.95380405 16.1915357,4.00350008 16.1915357,4.09024794 L16.1915357,5.18097504 Z" id="Shape"></path>
                <rect id="Rectangle" x="12.0694444" y="8.25" width="1" height="11"></rect>
                <rect id="Rectangle" x="8.40277778" y="8.25" width="1" height="11"></rect>
                <rect id="Rectangle" x="4.73611111" y="8.25" width="1" height="11"></rect>
            </g>
        </g>
    </g>
</svg>