<?xml version="1.0" encoding="UTF-8"?>
<svg width="19px" height="18px" viewBox="0 0 19 18" version="1.1" xmlns="http://www.w3.org/2000/svg" xmlns:xlink="http://www.w3.org/1999/xlink">
    <!-- Generator: Sketch 54.1 (76490) - https://sketchapp.com -->
    <title>scissors</title>
    <desc>Created with Sketch.</desc>
    <g id="WEDNESDAY" stroke="none" stroke-width="1" fill="none" fill-rule="evenodd">
        <g id="TOOLBAR_CHART" transform="translate(-556.000000, -514.000000)" fill="#FFFFFF" fill-rule="nonzero">
            <g id="scissors" transform="translate(556.000000, 514.500000)">
                <path d="M19,3.34901407 C18.1220667,2.08652393 16.3765165,1.75381572 15.1224799,2.63782412 L8.67443131,7.18397688 L6.32975049,5.53067416 C7.20278534,4.01293584 6.79213314,2.04893358 5.33855942,1.02420425 C3.80356777,-0.0576952824 1.68866811,0.317759803 0.613758326,1.86307434 C-0.460669036,3.40846362 -0.0880910397,5.53844632 1.44693773,6.62079425 C2.50024986,7.36340914 3.82702088,7.4190847 4.90289551,6.88168472 L7.77471483,8.90636961 L4.90315528,10.9308303 C3.82728065,10.3936919 2.50058384,10.4493675 1.44719749,11.1917208 C-0.0877570554,12.2740687 -0.460372161,14.4038272 0.614018092,15.9491791 C1.68892788,17.4947552 3.80405019,17.8702103 5.33878208,16.7883108 C6.79217025,15.7635814 7.20274823,13.7995792 6.32997314,12.2818409 L8.67465397,10.6285381 L15.1224428,15.1744293 C16.3764794,16.0586993 18.1220296,15.7257669 18.9999629,14.4632394 L11.1175633,8.90633225 L19,3.34901407 Z M3.40022611,5.6008478 C2.42896278,5.6008478 1.64153922,4.80797544 1.64153922,3.82999117 C1.64153922,2.8520069 2.42899988,2.05913454 3.40022611,2.05913454 C4.3717121,2.05913454 5.158913,2.8520069 5.158913,3.82999117 C5.158913,4.80797544 4.3717121,5.6008478 3.40022611,5.6008478 Z M3.40022611,15.7537542 C2.42896278,15.7537542 1.64153922,14.9608818 1.64153922,13.9828975 C1.64153922,13.0049133 2.42896278,12.2120409 3.40022611,12.2120409 C4.3717121,12.2120409 5.158913,13.0049133 5.158913,13.9828975 C5.158913,14.9608444 4.3717121,15.7537542 3.40022611,15.7537542 Z" id="Shape"></path>
            </g>
        </g>
    </g>
</svg>