<?xml version="1.0" encoding="UTF-8"?>
<svg width="21px" height="24px" viewBox="0 0 21 24" version="1.1" xmlns="http://www.w3.org/2000/svg" xmlns:xlink="http://www.w3.org/1999/xlink">
    <!-- Generator: Sketch 54.1 (76490) - https://sketchapp.com -->
    <title>Shape 2</title>
    <desc>Created with Sketch.</desc>
    <g id="WEDNESDAY" stroke="none" stroke-width="1" fill="none" fill-rule="evenodd">
        <g id="TOOLBAR_CHART" transform="translate(-413.000000, -510.000000)" fill="#FFFFFF" fill-rule="nonzero">
            <g id="Shape-2" transform="translate(408.500000, 506.500000)">
                <path d="M27.0588341,17.3333456 C28.0330295,16.371598 28.0330295,14.8066546 27.0587786,13.8449069 C26.8290009,13.6180781 26.5652396,13.4447498 26.2835426,13.3249219 C26.8285011,12.3830725 26.6942883,11.1595234 25.880793,10.3564683 C25.647517,10.1261312 25.3761483,9.94699235 25.0807912,9.82469774 C25.5661675,8.90954376 25.4339537,7.73072458 24.6313975,6.93857782 C23.8038535,6.1215994 22.5623986,6.00944575 21.6251298,6.5396266 C21.5015785,6.25803655 21.3239978,5.99924997 21.0975518,5.77571011 C20.1210243,4.81166022 18.5404001,4.81155059 17.5637616,5.77571011 L11.2278271,12.0302764 L11.2278271,10.327032 C11.2278271,8.96693617 10.106925,7.86047418 8.72920272,7.86047418 C7.37008254,7.86047418 6.26100804,8.93722587 6.23118913,10.2719419 L5.05881193,19.7296293 C5.02766033,19.9807416 5.11539566,20.2320184 5.29658577,20.4108832 L11.6740557,26.7065067 C11.8312019,26.8616909 12.043488,26.9473684 12.2629374,26.9473684 C12.2980315,26.9473684 12.3332923,26.9451758 12.3684974,26.9407357 C16.0339462,26.4785267 19.4914955,24.8034578 22.104398,22.2241434 L27.0588341,17.3333456 Z M12.5349062,25.2631579 L6.73684211,19.5502918 L7.86573854,10.4602532 C7.86984887,10.4271973 7.87190404,10.3938678 7.87190404,10.3605382 C7.87190404,9.90793537 8.24561075,9.53977825 8.7049123,9.53977825 C9.16421385,9.53977825 9.53792056,9.9079901 9.53792056,10.3605382 L9.53792056,14.0429852 C9.53792056,14.3750216 9.74088197,14.6743853 10.0522672,14.8014097 C10.3635413,14.9284887 10.7220287,14.8582723 10.9602612,14.6234333 L18.7203966,6.97745498 C19.0460014,6.65663781 19.5730123,6.65663781 19.8986726,6.97745498 C20.2243329,7.29838161 20.2243329,7.81753405 19.8986726,8.13840595 L15.0844214,12.88187 C14.7590388,13.2024135 14.7590388,13.7222227 15.0844214,14.042821 C15.4097484,14.3634192 15.9373148,14.3634192 16.2626973,14.042821 L22.2553355,8.13840595 C22.5808847,7.81758878 23.1078956,7.81758878 23.4335559,8.13840595 C23.7584386,8.45851165 23.7584386,8.97930595 23.4335559,9.29935692 C23.2302613,9.49966242 17.7166431,14.9322102 17.4410288,15.203772 C17.1156462,15.5243155 17.1156462,16.0441247 17.4410288,16.3647229 C17.7663003,16.6853212 18.2938666,16.6853212 18.6193047,16.3647229 L23.5050979,11.5508236 C23.8305915,11.2300611 24.357658,11.2300064 24.6833183,11.5508236 C25.0082009,11.8709293 25.0082009,12.3917236 24.6833183,12.7118293 C24.4960761,12.8963183 20.399855,16.9323099 19.7976362,17.5256739 C19.4722537,17.8462174 19.4722537,18.3660266 19.7976362,18.6866249 C19.8179657,18.7066554 19.8390728,18.7254272 19.860902,18.742995 C20.1881175,19.0060191 20.6709146,18.9871926 20.9759122,18.6866249 L24.6835405,15.0335123 C25.0084787,14.7136802 25.5368782,14.713735 25.8615942,15.0336765 C26.1864769,15.3537822 26.1864769,15.8746312 25.8616498,16.1946822 L20.9058699,21.0775392 C18.6471883,23.3031193 15.6879733,24.7799619 12.5349062,25.2631579 Z" id="Shape" transform="translate(16.421053, 16.000000) rotate(-45.000000) translate(-16.421053, -16.000000) "></path>
            </g>
        </g>
    </g>
</svg>