<?xml version="1.0" encoding="UTF-8"?>
<svg width="21px" height="15px" viewBox="0 0 21 15" version="1.1" xmlns="http://www.w3.org/2000/svg" xmlns:xlink="http://www.w3.org/1999/xlink">
    <!-- Generator: Sketch 54.1 (76490) - https://sketchapp.com -->
    <title>view 2</title>
    <desc>Created with Sketch.</desc>
    <g id="WEDNESDAY" stroke="none" stroke-width="1" fill="none" fill-rule="evenodd">
        <g id="TOOLBAR_CHART" transform="translate(-508.000000, -515.000000)" fill="#FFFFFF" fill-rule="nonzero">
            <g id="view-2" transform="translate(508.000000, 515.281250)">
                <g id="view" transform="translate(0.000000, 0.218750)">
                    <path d="M20.8664941,6.57492073 C20.6788887,6.30785366 16.2088828,0.0356402439 10.499877,0.0356402439 C4.79087109,0.0356402439 0.320660156,6.30785366 0.133259766,6.57466463 C-0.0444199219,6.82803049 -0.0444199219,7.17167073 0.133259766,7.42503659 C0.320660156,7.69210366 4.79087109,13.9643171 10.499877,13.9643171 C16.2088828,13.9643171 20.6788887,7.69206098 20.8664941,7.42525 C21.0444199,7.17192683 21.0444199,6.82803049 20.8664941,6.57492073 Z M10.499877,12.5234268 C6.29458594,12.5234268 2.65235742,8.36043293 1.57417969,6.9994878 C2.65096289,5.63734756 6.2855625,1.47653049 10.499877,1.47653049 C14.7049629,1.47653049 18.3469453,5.63879878 19.4255742,7.00046951 C18.348791,8.36256707 14.7141914,12.5234268 10.499877,12.5234268 Z" id="Shape"></path>
                    <path d="M10.499877,2.67728659 C8.20948242,2.67728659 6.34601953,4.6165 6.34601953,7 C6.34601953,9.3835 8.20948242,11.3227134 10.499877,11.3227134 C12.7902715,11.3227134 14.6537344,9.3835 14.6537344,7 C14.6537344,4.6165 12.7902715,2.67728659 10.499877,2.67728659 Z M10.499877,9.88178049 C8.97286523,9.88178049 7.73066602,8.58904268 7.73066602,7 C7.73066602,5.41095732 8.97290625,4.11821951 10.499877,4.11821951 C12.0268477,4.11821951 13.2690879,5.41095732 13.2690879,7 C13.2690879,8.58904268 12.0268887,9.88178049 10.499877,9.88178049 Z" id="Shape"></path>
                </g>
            </g>
        </g>
    </g>
</svg>