<?xml version="1.0" encoding="UTF-8"?>
<svg width="124px" height="124px" viewBox="0 0 124 124" version="1.1" xmlns="http://www.w3.org/2000/svg" xmlns:xlink="http://www.w3.org/1999/xlink">
    <!-- Generator: Sketch 54.1 (76490) - https://sketchapp.com -->
    <title>component-chart</title>
    <desc>Created with Sketch.</desc>
    <g id="component-chart" stroke="none" stroke-width="1" fill="none" fill-rule="evenodd">
        <g id="Group-10">
            <rect id="Rectangle" fill="#393939" x="0" y="0" width="124" height="124" rx="4"></rect>
            <path d="M4,70 C4,70 6.74121406,74.0106762 12.2236422,82.0320285 L20.4472843,79.2669039 L28.9201278,84.797153 L37.5175719,74.0355872 L45.7138337,76.8754448 L54.2140575,109.459075 L62.5,104.227758 L71.0351438,81.5088968 L79.1603752,92.1209964 L87.4824281,91 L95.9552716,99.8932384 L104.428115,93.6156584 L112.527157,100.640569 L121,112" id="Shape" stroke="#EFEFEF" stroke-width="2" stroke-linecap="round"></path>
        </g>
        <path d="M12.092,8.588 C12.5880025,8.588 13.0059983,8.65199936 13.346,8.78 C13.6860017,8.90800064 14.0319982,9.11599856 14.384,9.404 L13.76,10.136 C13.2559975,9.72799796 12.7240028,9.524 12.164,9.524 C11.4759966,9.524 10.9220021,9.78799736 10.502,10.316 C10.0819979,10.8440026 9.872,11.6919942 9.872,12.86 C9.872,13.9960057 10.0799979,14.8339973 10.496,15.374 C10.9120021,15.9140027 11.4639966,16.184 12.152,16.184 C12.5040018,16.184 12.8119987,16.1240006 13.076,16.004 C13.3400013,15.8839994 13.6199985,15.7160011 13.916,15.5 L14.48,16.22 C14.2239987,16.4840013 13.896002,16.7039991 13.496,16.88 C13.095998,17.0560009 12.6360026,17.144 12.116,17.144 C11.4439966,17.144 10.8460026,16.9780017 10.322,16.646 C9.79799738,16.3139983 9.39000146,15.8260032 9.098,15.182 C8.80599854,14.5379968 8.66,13.7640045 8.66,12.86 C8.66,11.9559955 8.81199848,11.1820032 9.116,10.538 C9.42000152,9.89399678 9.8319974,9.40800164 10.352,9.08 C10.8720026,8.75199836 11.4519968,8.588 12.092,8.588 Z M18.716,10.532 C19.2920029,10.532 19.7419984,10.7039983 20.066,11.048 C20.3900016,11.3920017 20.552,11.863997 20.552,12.464 L20.552,17 L19.448,17 L19.448,12.62 C19.448,12.1719978 19.3620009,11.8560009 19.19,11.672 C19.0179991,11.4879991 18.7680016,11.396 18.44,11.396 C18.1119984,11.396 17.8200013,11.491999 17.564,11.684 C17.3079987,11.876001 17.0680011,12.1479982 16.844,12.5 L16.844,17 L15.74,17 L15.74,8.144 L16.844,8.024 L16.844,11.552 C17.3400025,10.8719966 17.9639962,10.532 18.716,10.532 Z M27.032,15.524 C27.032,15.7800013 27.0759996,15.9699994 27.164,16.094 C27.2520004,16.2180006 27.3839991,16.3119997 27.56,16.376 L27.308,17.144 C26.9799984,17.1039998 26.716001,17.0120007 26.516,16.868 C26.315999,16.7239993 26.1680005,16.5000015 26.072,16.196 C25.6479979,16.8280032 25.0200042,17.144 24.188,17.144 C23.5639969,17.144 23.0720018,16.9680018 22.712,16.616 C22.3519982,16.2639982 22.172,15.8040028 22.172,15.236 C22.172,14.5639966 22.4139976,14.0480018 22.898,13.688 C23.3820024,13.3279982 24.0679956,13.148 24.956,13.148 L25.928,13.148 L25.928,12.68 C25.928,12.2319978 25.8200011,11.912001 25.604,11.72 C25.3879989,11.527999 25.0560022,11.432 24.608,11.432 C24.1439977,11.432 23.5760034,11.5439989 22.904,11.768 L22.628,10.964 C23.4120039,10.6759986 24.1399966,10.532 24.812,10.532 C25.5560037,10.532 26.1119982,10.7139982 26.48,11.078 C26.8480018,11.4420018 27.032,11.9599966 27.032,12.632 L27.032,15.524 Z M24.44,16.316 C25.0720032,16.316 25.5679982,15.9880033 25.928,15.332 L25.928,13.88 L25.1,13.88 C23.9319942,13.88 23.348,14.3119957 23.348,15.176 C23.348,15.5520019 23.4399991,15.835999 23.624,16.028 C23.8080009,16.220001 24.0799982,16.316 24.44,16.316 Z M32.048,10.532 C32.2720011,10.532 32.479999,10.5559998 32.672,10.604 L32.468,11.684 C32.275999,11.6359998 32.0920009,11.612 31.916,11.612 C31.523998,11.612 31.2080012,11.7559986 30.968,12.044 C30.7279988,12.3320014 30.5400007,12.779997 30.404,13.388 L30.404,17 L29.3,17 L29.3,10.676 L30.248,10.676 L30.356,11.96 C30.5240008,11.4879976 30.7519986,11.1320012 31.04,10.892 C31.3280014,10.6519988 31.6639981,10.532 32.048,10.532 Z M37.124,16.712 C36.7079979,17.0000014 36.2360026,17.144 35.708,17.144 C35.1719973,17.144 34.7540015,16.9900015 34.454,16.682 C34.1539985,16.3739985 34.004,15.9280029 34.004,15.344 L34.004,11.528 L32.9,11.528 L32.9,10.676 L34.004,10.676 L34.004,9.248 L35.108,9.116 L35.108,10.676 L36.608,10.676 L36.488,11.528 L35.108,11.528 L35.108,15.296 C35.108,15.6240016 35.1659994,15.8619993 35.282,16.01 C35.3980006,16.1580007 35.5919986,16.232 35.864,16.232 C36.1120012,16.232 36.3919984,16.1480008 36.704,15.98 L37.124,16.712 Z" id="Chart" fill="#FFFFFF" fill-rule="nonzero"></path>
    </g>
</svg>