<?xml version="1.0" encoding="UTF-8"?>
<svg width="124px" height="124px" viewBox="0 0 124 124" version="1.1" xmlns="http://www.w3.org/2000/svg" xmlns:xlink="http://www.w3.org/1999/xlink">
    <!-- Generator: Sketch 54.1 (76490) - https://sketchapp.com -->
    <title>component-intersection</title>
    <desc>Created with Sketch.</desc>
    <g id="component-intersection" stroke="none" stroke-width="1" fill="none" fill-rule="evenodd">
        <g id="Group-7">
            <rect id="Rectangle" fill="#393939" x="0" y="0" width="124" height="124" rx="4"></rect>
            <g id="Shape" transform="translate(0.000000, 55.000000)" fill="#EFEFEF">
                <path d="M0,65 L0,36.373146 C4.41591439,42.6503759 7.33041789,45.7889908 8.7435105,45.7889908 C10.8631494,45.7889908 14.8374724,52.9633028 17.7671642,52.9512318 C20.6968561,52.9391609 20.4015245,41.8460376 26.6670186,41.8460376 C32.9325128,41.8460376 31.3971513,27.4311927 35.5039517,27.4311927 C38.8448133,27.4311927 39.7432295,30.9042294 44.5219984,30.9042294 C47.9346536,30.9042294 48.8841723,36.373146 53.2559276,36.373146 C58.5520416,36.373146 59.217412,43.8899083 62,43.8899083 C64.782588,43.8899083 67.1045963,34.3720797 70.875426,33.7614679 C74.6462557,33.1508561 76.704433,12.8715596 79.7514139,12.4495413 C82.7983948,12.0275229 86.1103306,-2.42879972e-14 88.6274018,2.33593385e-13 C91.144473,4.91474767e-13 93.3965894,14.7706422 97.6358672,14.7706422 C101.875145,14.7706422 102.537532,18.9470622 106.48648,18.9470622 C108.996429,18.9470622 111.901313,14.7706422 115.255366,14.7706422 C117.491401,14.7706422 120.405905,20.1485046 123.998876,30.9042294 L124,65 C124.000065,67.209139 122.209257,69.0000528 120.000118,69.000118 C120.000079,69.000118 120.000039,69.000118 120,69.000118 L4,69 C1.790861,69 2.705415e-16,67.209139 0,65 Z"></path>
            </g>
        </g>
        <path d="M10.34,8.732 L10.34,17 L9.2,17 L9.2,8.732 L10.34,8.732 Z M15.656,10.532 C16.2320029,10.532 16.6819984,10.7039983 17.006,11.048 C17.3300016,11.3920017 17.492,11.863997 17.492,12.464 L17.492,17 L16.388,17 L16.388,12.62 C16.388,12.1719978 16.3040008,11.8560009 16.136,11.672 C15.9679992,11.4879991 15.7200016,11.396 15.392,11.396 C15.0559983,11.396 14.7600013,11.491999 14.504,11.684 C14.2479987,11.876001 14.0080011,12.1519982 13.784,12.512 L13.784,17 L12.68,17 L12.68,10.676 L13.628,10.676 L13.724,11.612 C13.9480011,11.2759983 14.2259983,11.012001 14.558,10.82 C14.8900017,10.627999 15.255998,10.532 15.656,10.532 Z M22.904,16.712 C22.4879979,17.0000014 22.0160026,17.144 21.488,17.144 C20.9519973,17.144 20.5340015,16.9900015 20.234,16.682 C19.9339985,16.3739985 19.784,15.9280029 19.784,15.344 L19.784,11.528 L18.68,11.528 L18.68,10.676 L19.784,10.676 L19.784,9.248 L20.888,9.116 L20.888,10.676 L22.388,10.676 L22.268,11.528 L20.888,11.528 L20.888,15.296 C20.888,15.6240016 20.9459994,15.8619993 21.062,16.01 C21.1780006,16.1580007 21.3719986,16.232 21.644,16.232 C21.8920012,16.232 22.1719984,16.1480008 22.484,15.98 L22.904,16.712 Z M28.64,13.652 C28.64,13.8360009 28.6320001,14.023999 28.616,14.216 L24.584,14.216 C24.6320002,14.9120035 24.8079985,15.4239984 25.112,15.752 C25.4160015,16.0800016 25.8079976,16.244 26.288,16.244 C26.5920015,16.244 26.8719987,16.2000004 27.128,16.112 C27.3840013,16.0239996 27.6519986,15.884001 27.932,15.692 L28.412,16.352 C27.7399966,16.8800026 27.004004,17.144 26.204,17.144 C25.3239956,17.144 24.6380025,16.8560029 24.146,16.28 C23.6539975,15.7039971 23.408,14.912005 23.408,13.904 C23.408,13.2479967 23.5139989,12.6660025 23.726,12.158 C23.9380011,11.6499975 24.241998,11.2520014 24.638,10.964 C25.034002,10.6759986 25.4999973,10.532 26.036,10.532 C26.8760042,10.532 27.5199978,10.8079972 27.968,11.36 C28.4160022,11.9120028 28.64,12.6759951 28.64,13.652 Z M27.548,13.328 C27.548,12.7039969 27.4240012,12.2280016 27.176,11.9 C26.9279988,11.5719984 26.5560025,11.408 26.06,11.408 C25.1559955,11.408 24.6640004,12.0719934 24.584,13.4 L27.548,13.4 L27.548,13.328 Z M33.152,10.532 C33.3760011,10.532 33.583999,10.5559998 33.776,10.604 L33.572,11.684 C33.379999,11.6359998 33.1960009,11.612 33.02,11.612 C32.627998,11.612 32.3120012,11.7559986 32.072,12.044 C31.8319988,12.3320014 31.6440007,12.779997 31.508,13.388 L31.508,17 L30.404,17 L30.404,10.676 L31.352,10.676 L31.46,11.96 C31.6280008,11.4879976 31.8559986,11.1320012 32.144,10.892 C32.4320014,10.6519988 32.7679981,10.532 33.152,10.532 Z M36.572,10.532 C37.0040022,10.532 37.3919983,10.5919994 37.736,10.712 C38.0800017,10.8320006 38.4079984,11.0119988 38.72,11.252 L38.252,11.948 C37.9639986,11.7639991 37.6900013,11.6280004 37.43,11.54 C37.1699987,11.4519996 36.8960014,11.408 36.608,11.408 C36.2479982,11.408 35.964001,11.4819993 35.756,11.63 C35.547999,11.7780007 35.444,11.9799987 35.444,12.236 C35.444,12.4920013 35.541999,12.6919993 35.738,12.836 C35.934001,12.9800007 36.2879974,13.1199993 36.8,13.256 C37.5040035,13.4320009 38.0299983,13.6719985 38.378,13.976 C38.7260017,14.2800015 38.9,14.6959974 38.9,15.224 C38.9,15.8480031 38.6580024,16.3239984 38.174,16.652 C37.6899976,16.9800016 37.1000035,17.144 36.404,17.144 C35.4439952,17.144 34.6480032,16.8680028 34.016,16.316 L34.604,15.644 C35.1400027,16.052002 35.7319968,16.256 36.38,16.256 C36.7960021,16.256 37.1259988,16.1700009 37.37,15.998 C37.6140012,15.8259991 37.736,15.5920015 37.736,15.296 C37.736,15.0799989 37.6920004,14.9060007 37.604,14.774 C37.5159996,14.6419993 37.3640011,14.5260005 37.148,14.426 C36.9319989,14.3259995 36.6160021,14.2200006 36.2,14.108 C35.5279966,13.9319991 35.0420015,13.6960015 34.742,13.4 C34.4419985,13.1039985 34.292,12.7280023 34.292,12.272 C34.292,11.9439984 34.389999,11.6460013 34.586,11.378 C34.782001,11.1099987 35.0539983,10.9020007 35.402,10.754 C35.7500017,10.6059993 36.1399978,10.532 36.572,10.532 Z M45.236,13.652 C45.236,13.8360009 45.2280001,14.023999 45.212,14.216 L41.18,14.216 C41.2280002,14.9120035 41.4039985,15.4239984 41.708,15.752 C42.0120015,16.0800016 42.4039976,16.244 42.884,16.244 C43.1880015,16.244 43.4679987,16.2000004 43.724,16.112 C43.9800013,16.0239996 44.2479986,15.884001 44.528,15.692 L45.008,16.352 C44.3359966,16.8800026 43.600004,17.144 42.8,17.144 C41.9199956,17.144 41.2340025,16.8560029 40.742,16.28 C40.2499975,15.7039971 40.004,14.912005 40.004,13.904 C40.004,13.2479967 40.1099989,12.6660025 40.322,12.158 C40.5340011,11.6499975 40.837998,11.2520014 41.234,10.964 C41.630002,10.6759986 42.0959973,10.532 42.632,10.532 C43.4720042,10.532 44.1159978,10.8079972 44.564,11.36 C45.0120022,11.9120028 45.236,12.6759951 45.236,13.652 Z M44.144,13.328 C44.144,12.7039969 44.0200012,12.2280016 43.772,11.9 C43.5239988,11.5719984 43.1520025,11.408 42.656,11.408 C41.7519955,11.408 41.2600004,12.0719934 41.18,13.4 L44.144,13.4 L44.144,13.328 Z M49.304,10.532 C49.6800019,10.532 50.0239984,10.5859995 50.336,10.694 C50.6480016,10.8020005 50.9479986,10.9759988 51.236,11.216 L50.708,11.912 C50.4839989,11.7519992 50.2660011,11.6340004 50.054,11.558 C49.8419989,11.4819996 49.6080013,11.444 49.352,11.444 C48.8399974,11.444 48.4420014,11.647998 48.158,12.056 C47.8739986,12.464002 47.732,13.067996 47.732,13.868 C47.732,14.668004 47.8719986,15.2579981 48.152,15.638 C48.4320014,16.0180019 48.8319974,16.208 49.352,16.208 C49.6000012,16.208 49.827999,16.1700004 50.036,16.094 C50.244001,16.0179996 50.4759987,15.8960008 50.732,15.728 L51.236,16.448 C50.6599971,16.9120023 50.0160036,17.144 49.304,17.144 C48.4479957,17.144 47.7740025,16.8560029 47.282,16.28 C46.7899975,15.7039971 46.544,14.9080051 46.544,13.892 C46.544,13.2199966 46.6559989,12.6320025 46.88,12.128 C47.1040011,11.6239975 47.4219979,11.2320014 47.834,10.952 C48.2460021,10.6719986 48.7359972,10.532 49.304,10.532 Z M55.928,16.712 C55.5119979,17.0000014 55.0400026,17.144 54.512,17.144 C53.9759973,17.144 53.5580015,16.9900015 53.258,16.682 C52.9579985,16.3739985 52.808,15.9280029 52.808,15.344 L52.808,11.528 L51.704,11.528 L51.704,10.676 L52.808,10.676 L52.808,9.248 L53.912,9.116 L53.912,10.676 L55.412,10.676 L55.292,11.528 L53.912,11.528 L53.912,15.296 C53.912,15.6240016 53.9699994,15.8619993 54.086,16.01 C54.2020006,16.1580007 54.3959986,16.232 54.668,16.232 C54.9160012,16.232 55.1959984,16.1480008 55.508,15.98 L55.928,16.712 Z M58.172,10.676 L58.172,17 L57.068,17 L57.068,10.676 L58.172,10.676 Z M57.608,7.64 C57.84,7.64 58.0279993,7.71199928 58.172,7.856 C58.3160007,8.00000072 58.388,8.17999892 58.388,8.396 C58.388,8.61200108 58.3160007,8.7899993 58.172,8.93 C58.0279993,9.0700007 57.84,9.14 57.608,9.14 C57.3839989,9.14 57.2000007,9.0700007 57.056,8.93 C56.9119993,8.7899993 56.84,8.61200108 56.84,8.396 C56.84,8.17999892 56.9119993,8.00000072 57.056,7.856 C57.2000007,7.71199928 57.3839989,7.64 57.608,7.64 Z M62.828,10.532 C63.7160044,10.532 64.4059975,10.827997 64.898,11.42 C65.3900025,12.012003 65.636,12.8159949 65.636,13.832 C65.636,14.4880033 65.5240011,15.0659975 65.3,15.566 C65.0759989,16.0660025 64.7520021,16.4539986 64.328,16.73 C63.9039979,17.0060014 63.4000029,17.144 62.816,17.144 C61.9279956,17.144 61.2360025,16.848003 60.74,16.256 C60.2439975,15.663997 59.996,14.8600051 59.996,13.844 C59.996,13.1879967 60.1079989,12.6100025 60.332,12.11 C60.5560011,11.6099975 60.8799979,11.2220014 61.304,10.946 C61.7280021,10.6699986 62.235997,10.532 62.828,10.532 Z M62.828,11.42 C61.7319945,11.42 61.184,12.2279919 61.184,13.844 C61.184,15.452008 61.7279946,16.256 62.816,16.256 C63.9040054,16.256 64.448,15.4480081 64.448,13.832 C64.448,12.223992 63.9080054,11.42 62.828,11.42 Z M70.436,10.532 C71.0120029,10.532 71.4619984,10.7039983 71.786,11.048 C72.1100016,11.3920017 72.272,11.863997 72.272,12.464 L72.272,17 L71.168,17 L71.168,12.62 C71.168,12.1719978 71.0840008,11.8560009 70.916,11.672 C70.7479992,11.4879991 70.5000016,11.396 70.172,11.396 C69.8359983,11.396 69.5400013,11.491999 69.284,11.684 C69.0279987,11.876001 68.7880011,12.1519982 68.564,12.512 L68.564,17 L67.46,17 L67.46,10.676 L68.408,10.676 L68.504,11.612 C68.7280011,11.2759983 69.0059983,11.012001 69.338,10.82 C69.6700017,10.627999 70.035998,10.532 70.436,10.532 Z" id="Intersection" fill="#FFFFFF" fill-rule="nonzero"></path>
    </g>
</svg>