<?xml version="1.0" encoding="UTF-8"?>
<svg width="124px" height="124px" viewBox="0 0 124 124" version="1.1" xmlns="http://www.w3.org/2000/svg" xmlns:xlink="http://www.w3.org/1999/xlink">
    <!-- Generator: Sketch 54.1 (76490) - https://sketchapp.com -->
    <title>component-correlation</title>
    <desc>Created with Sketch.</desc>
    <g id="component-correlation" stroke="none" stroke-width="1" fill="none" fill-rule="evenodd">
        <g id="Group-4">
            <rect id="Rectangle" fill="#393939" x="0" y="0" width="124" height="124" rx="4"></rect>
            <g id="Group" transform="translate(6.200000, 42.514286)">
                <polygon id="Rectangle" fill="#D8D8D8" points="108.057143 54.0285714 111.6 54.0285714 111.6 56.6857143 108.057143 56.6857143"></polygon>
                <polygon id="Rectangle-" fill="#B5BAC2" points="108.057143 56.6857143 111.6 56.6857143 111.6 66.4285714 108.057143 66.4285714"></polygon>
                <polygon id="Rectangle-" fill="#EFEFEF" points="108.057143 65.5428571 111.6 65.5428571 111.6 81.4857143 108.057143 81.4857143"></polygon>
                <path d="M109.828571,37.2 L109.828571,37.2 C110.806904,37.2 111.6,37.9930956 111.6,38.9714286 L111.6,54.0285714 L108.057143,54.0285714 L108.057143,38.9714286 C108.057143,37.9930956 108.850238,37.2 109.828571,37.2 Z" id="Rectangle-" fill="#818B9C"></path>
                <polygon id="Rectangle" fill="#D8D8D8" points="99.2 47.8285714 102.742857 47.8285714 102.742857 51.3714286 99.2 51.3714286"></polygon>
                <polygon id="Rectangle-" fill="#B5BAC2" points="99.2 51.3714286 102.742857 51.3714286 102.742857 62.8857143 99.2 62.8857143"></polygon>
                <polygon id="Rectangle-" fill="#EFEFEF" points="99.2 62.8857143 102.742857 62.8857143 102.742857 81.4857143 99.2 81.4857143"></polygon>
                <path d="M100.971429,28.3428571 L100.971429,28.3428571 C101.949762,28.3428571 102.742857,29.1359527 102.742857,30.1142857 L102.742857,47.8285714 L99.2,47.8285714 L99.2,30.1142857 C99.2,29.1359527 99.9930956,28.3428571 100.971429,28.3428571 Z" id="Rectangle-" fill="#818B9C"></path>
                <polygon id="Rectangle" fill="#D8D8D8" points="91.2285714 30.1142857 94.7714286 30.1142857 94.7714286 35.4285714 91.2285714 35.4285714"></polygon>
                <polygon id="Rectangle-" fill="#B5BAC2" points="91.2285714 36.3142857 94.7714286 36.3142857 94.7714286 53.1428571 91.2285714 53.1428571"></polygon>
                <polygon id="Rectangle-" fill="#EFEFEF" points="91.2285714 53.1428571 94.7714286 53.1428571 94.7714286 81.4857143 91.2285714 81.4857143"></polygon>
                <path d="M93,0 L93,0 C93.978333,-1.79716854e-16 94.7714286,0.793095586 94.7714286,1.77142857 L94.7714286,30.1142857 L91.2285714,30.1142857 L91.2285714,1.77142857 C91.2285714,0.793095586 92.021667,1.79716854e-16 93,0 Z" id="Rectangle-" fill="#818B9C"></path>
                <polygon id="Rectangle" fill="#D8D8D8" points="82.3714286 43.4 85.9142857 43.4 85.9142857 47.8285714 82.3714286 47.8285714"></polygon>
                <polygon id="Rectangle-" fill="#B5BAC2" points="82.3714286 47.8285714 85.9142857 47.8285714 85.9142857 60.2285714 82.3714286 60.2285714"></polygon>
                <polygon id="Rectangle-" fill="#EFEFEF" points="82.3714286 60.2285714 85.9142857 60.2285714 85.9142857 81.4857143 82.3714286 81.4857143"></polygon>
                <path d="M84.1428571,21.2571429 L84.1428571,21.2571429 C85.1211901,21.2571429 85.9142857,22.0502384 85.9142857,23.0285714 L85.9142857,43.4 L82.3714286,43.4 L82.3714286,23.0285714 C82.3714286,22.0502384 83.1645242,21.2571429 84.1428571,21.2571429 Z" id="Rectangle-" fill="#818B9C"></path>
                <polygon id="Rectangle" fill="#D8D8D8" points="74.4 40.7428571 77.9428571 40.7428571 77.9428571 45.1714286 74.4 45.1714286"></polygon>
                <polygon id="Rectangle-" fill="#B5BAC2" points="74.4 44.2857143 77.9428571 44.2857143 77.9428571 58.4571429 74.4 58.4571429"></polygon>
                <polygon id="Rectangle-" fill="#EFEFEF" points="74.4 58.4571429 77.9428571 58.4571429 77.9428571 81.4857143 74.4 81.4857143"></polygon>
                <path d="M76.1714286,15.9428571 L76.1714286,15.9428571 C77.1497616,15.9428571 77.9428571,16.7359527 77.9428571,17.7142857 L77.9428571,40.7428571 L74.4,40.7428571 L74.4,17.7142857 C74.4,16.7359527 75.1930956,15.9428571 76.1714286,15.9428571 Z" id="Rectangle-" fill="#818B9C"></path>
                <polygon id="Rectangle" fill="#B5BAC2" points="66.4285714 59.3428571 69.9714286 59.3428571 69.9714286 62 66.4285714 62"></polygon>
                <polygon id="Rectangle-" fill="#D8D8D8" points="66.4285714 62 69.9714286 62 69.9714286 69.0857143 66.4285714 69.0857143"></polygon>
                <polygon id="Rectangle-" fill="#EFEFEF" points="66.4285714 69.9714286 69.9714286 69.9714286 69.9714286 81.4857143 66.4285714 81.4857143"></polygon>
                <path d="M68.2,46.9428571 L68.2,46.9428571 C69.178333,46.9428571 69.9714286,47.7359527 69.9714286,48.7142857 L69.9714286,59.3428571 L66.4285714,59.3428571 L66.4285714,48.7142857 C66.4285714,47.7359527 67.221667,46.9428571 68.2,46.9428571 Z" id="Rectangle-" fill="#818B9C"></path>
                <polygon id="Rectangle" fill="#D8D8D8" points="58.4571429 46.9428571 62 46.9428571 62 50.4857143 58.4571429 50.4857143"></polygon>
                <polygon id="Rectangle-" fill="#B5BAC2" points="58.4571429 50.4857143 62 50.4857143 62 62 58.4571429 62"></polygon>
                <polygon id="Rectangle-" fill="#EFEFEF" points="58.4571429 62 62 62 62 81.4857143 58.4571429 81.4857143"></polygon>
                <path d="M60.2285714,25.6857143 L60.2285714,25.6857143 C61.2069044,25.6857143 62,26.4788099 62,27.4571429 L62,46.0571429 L58.4571429,46.0571429 L58.4571429,27.4571429 C58.4571429,26.4788099 59.2502384,25.6857143 60.2285714,25.6857143 Z" id="Rectangle-" fill="#818B9C"></path>
                <polygon id="Rectangle" fill="#D8D8D8" points="49.6 30.1142857 53.1428571 30.1142857 53.1428571 35.4285714 49.6 35.4285714"></polygon>
                <polygon id="Rectangle-" fill="#B5BAC2" points="49.6 36.3142857 53.1428571 36.3142857 53.1428571 53.1428571 49.6 53.1428571"></polygon>
                <polygon id="Rectangle-" fill="#EFEFEF" points="49.6 53.1428571 53.1428571 53.1428571 53.1428571 81.4857143 49.6 81.4857143"></polygon>
                <path d="M51.3714286,0 L51.3714286,0 C52.3497616,-1.79716854e-16 53.1428571,0.793095586 53.1428571,1.77142857 L53.1428571,30.1142857 L49.6,30.1142857 L49.6,1.77142857 C49.6,0.793095586 50.3930956,1.79716854e-16 51.3714286,0 Z" id="Rectangle-" fill="#818B9C"></path>
                <polygon id="Rectangle" fill="#D8D8D8" points="41.6285714 40.7428571 45.1714286 40.7428571 45.1714286 45.1714286 41.6285714 45.1714286"></polygon>
                <polygon id="Rectangle-" fill="#B5BAC2" points="41.6285714 44.2857143 45.1714286 44.2857143 45.1714286 58.4571429 41.6285714 58.4571429"></polygon>
                <polygon id="Rectangle-" fill="#EFEFEF" points="41.6285714 58.4571429 45.1714286 58.4571429 45.1714286 81.4857143 41.6285714 81.4857143"></polygon>
                <path d="M43.4,15.9428571 L43.4,15.9428571 C44.378333,15.9428571 45.1714286,16.7359527 45.1714286,17.7142857 L45.1714286,40.7428571 L41.6285714,40.7428571 L41.6285714,17.7142857 C41.6285714,16.7359527 42.421667,15.9428571 43.4,15.9428571 Z" id="Rectangle-" fill="#818B9C"></path>
                <polygon id="Rectangle" fill="#D8D8D8" points="33.6571429 51.3714286 37.2 51.3714286 37.2 54.0285714 33.6571429 54.0285714"></polygon>
                <polygon id="Rectangle-" fill="#B5BAC2" points="33.6571429 54.0285714 37.2 54.0285714 37.2 64.6571429 33.6571429 64.6571429"></polygon>
                <polygon id="Rectangle-" fill="#EFEFEF" points="33.6571429 64.6571429 37.2 64.6571429 37.2 81.4857143 33.6571429 81.4857143"></polygon>
                <path d="M35.4285714,32.7714286 L35.4285714,32.7714286 C36.4069044,32.7714286 37.2,33.5645242 37.2,34.5428571 L37.2,50.4857143 L33.6571429,50.4857143 L33.6571429,34.5428571 C33.6571429,33.5645242 34.4502384,32.7714286 35.4285714,32.7714286 Z" id="Rectangle-" fill="#818B9C"></path>
                <polygon id="Rectangle" fill="#D8D8D8" points="25.6857143 30.1142857 29.2285714 30.1142857 29.2285714 35.4285714 25.6857143 35.4285714"></polygon>
                <polygon id="Rectangle-" fill="#B5BAC2" points="25.6857143 36.3142857 29.2285714 36.3142857 29.2285714 53.1428571 25.6857143 53.1428571"></polygon>
                <polygon id="Rectangle-" fill="#EFEFEF" points="25.6857143 53.1428571 29.2285714 53.1428571 29.2285714 81.4857143 25.6857143 81.4857143"></polygon>
                <path d="M27.4571429,0 L27.4571429,0 C28.4354758,-1.79716854e-16 29.2285714,0.793095586 29.2285714,1.77142857 L29.2285714,30.1142857 L25.6857143,30.1142857 L25.6857143,1.77142857 C25.6857143,0.793095586 26.4788099,1.79716854e-16 27.4571429,0 Z" id="Rectangle-" fill="#818B9C"></path>
                <rect id="Rectangle" fill="#D8D8D8" x="16.8285714" y="38.9714286" width="3.54285714" height="4.42857143"></rect>
                <polygon id="Rectangle-" fill="#B5BAC2" points="16.8285714 43.4 20.3714286 43.4 20.3714286 57.5714286 16.8285714 57.5714286"></polygon>
                <polygon id="Rectangle-" fill="#EFEFEF" points="16.8285714 57.5714286 20.3714286 57.5714286 20.3714286 81.4857143 16.8285714 81.4857143"></polygon>
                <path d="M18.6,13.2857143 L18.6,13.2857143 C19.578333,13.2857143 20.3714286,14.0788099 20.3714286,15.0571429 L20.3714286,38.9714286 L16.8285714,38.9714286 L16.8285714,15.0571429 C16.8285714,14.0788099 17.621667,13.2857143 18.6,13.2857143 Z" id="Rectangle-" fill="#818B9C"></path>
                <polygon id="Rectangle" fill="#D8D8D8" points="8.85714286 30.1142857 12.4 30.1142857 12.4 35.4285714 8.85714286 35.4285714"></polygon>
                <polygon id="Rectangle-" fill="#B5BAC2" points="8.85714286 36.3142857 12.4 36.3142857 12.4 53.1428571 8.85714286 53.1428571"></polygon>
                <polygon id="Rectangle-" fill="#EFEFEF" points="8.85714286 53.1428571 12.4 53.1428571 12.4 81.4857143 8.85714286 81.4857143"></polygon>
                <path d="M10.6285714,0 L10.6285714,0 C11.6069044,-1.79716854e-16 12.4,0.793095586 12.4,1.77142857 L12.4,30.1142857 L8.85714286,30.1142857 L8.85714286,1.77142857 C8.85714286,0.793095586 9.65023844,1.79716854e-16 10.6285714,0 Z" id="Rectangle-" fill="#818B9C"></path>
                <polygon id="Rectangle" fill="#D8D8D8" points="0 40.7428571 3.54285714 40.7428571 3.54285714 45.1714286 0 45.1714286"></polygon>
                <polygon id="Rectangle-" fill="#B5BAC2" points="0 44.2857143 3.54285714 44.2857143 3.54285714 58.4571429 0 58.4571429"></polygon>
                <polygon id="Rectangle-" fill="#EFEFEF" points="0 58.4571429 3.54285714 58.4571429 3.54285714 81.4857143 0 81.4857143"></polygon>
                <path d="M1.77142857,15.9428571 L1.77142857,15.9428571 C2.74976156,15.9428571 3.54285714,16.7359527 3.54285714,17.7142857 L3.54285714,40.7428571 L0,40.7428571 L4.4408921e-16,17.7142857 C3.24277974e-16,16.7359527 0.793095586,15.9428571 1.77142857,15.9428571 Z" id="Rectangle-" fill="#818B9C"></path>
            </g>
        </g>
        <path d="M12.092,8.588 C12.5880025,8.588 13.0059983,8.65199936 13.346,8.78 C13.6860017,8.90800064 14.0319982,9.11599856 14.384,9.404 L13.76,10.136 C13.2559975,9.72799796 12.7240028,9.524 12.164,9.524 C11.4759966,9.524 10.9220021,9.78799736 10.502,10.316 C10.0819979,10.8440026 9.872,11.6919942 9.872,12.86 C9.872,13.9960057 10.0799979,14.8339973 10.496,15.374 C10.9120021,15.9140027 11.4639966,16.184 12.152,16.184 C12.5040018,16.184 12.8119987,16.1240006 13.076,16.004 C13.3400013,15.8839994 13.6199985,15.7160011 13.916,15.5 L14.48,16.22 C14.2239987,16.4840013 13.896002,16.7039991 13.496,16.88 C13.095998,17.0560009 12.6360026,17.144 12.116,17.144 C11.4439966,17.144 10.8460026,16.9780017 10.322,16.646 C9.79799738,16.3139983 9.39000146,15.8260032 9.098,15.182 C8.80599854,14.5379968 8.66,13.7640045 8.66,12.86 C8.66,11.9559955 8.81199848,11.1820032 9.116,10.538 C9.42000152,9.89399678 9.8319974,9.40800164 10.352,9.08 C10.8720026,8.75199836 11.4519968,8.588 12.092,8.588 Z M17.996,10.532 C18.8840044,10.532 19.5739975,10.827997 20.066,11.42 C20.5580025,12.012003 20.804,12.8159949 20.804,13.832 C20.804,14.4880033 20.6920011,15.0659975 20.468,15.566 C20.2439989,16.0660025 19.9200021,16.4539986 19.496,16.73 C19.0719979,17.0060014 18.5680029,17.144 17.984,17.144 C17.0959956,17.144 16.4040025,16.848003 15.908,16.256 C15.4119975,15.663997 15.164,14.8600051 15.164,13.844 C15.164,13.1879967 15.2759989,12.6100025 15.5,12.11 C15.7240011,11.6099975 16.0479979,11.2220014 16.472,10.946 C16.8960021,10.6699986 17.403997,10.532 17.996,10.532 Z M17.996,11.42 C16.8999945,11.42 16.352,12.2279919 16.352,13.844 C16.352,15.452008 16.8959946,16.256 17.984,16.256 C19.0720054,16.256 19.616,15.4480081 19.616,13.832 C19.616,12.223992 19.0760054,11.42 17.996,11.42 Z M25.376,10.532 C25.6000011,10.532 25.807999,10.5559998 26,10.604 L25.796,11.684 C25.603999,11.6359998 25.4200009,11.612 25.244,11.612 C24.851998,11.612 24.5360012,11.7559986 24.296,12.044 C24.0559988,12.3320014 23.8680007,12.779997 23.732,13.388 L23.732,17 L22.628,17 L22.628,10.676 L23.576,10.676 L23.684,11.96 C23.8520008,11.4879976 24.0799986,11.1320012 24.368,10.892 C24.6560014,10.6519988 24.9919981,10.532 25.376,10.532 Z M30.008,10.532 C30.2320011,10.532 30.439999,10.5559998 30.632,10.604 L30.428,11.684 C30.235999,11.6359998 30.0520009,11.612 29.876,11.612 C29.483998,11.612 29.1680012,11.7559986 28.928,12.044 C28.6879988,12.3320014 28.5000007,12.779997 28.364,13.388 L28.364,17 L27.26,17 L27.26,10.676 L28.208,10.676 L28.316,11.96 C28.4840008,11.4879976 28.7119986,11.1320012 29,10.892 C29.2880014,10.6519988 29.6239981,10.532 30.008,10.532 Z M36.308,13.652 C36.308,13.8360009 36.3000001,14.023999 36.284,14.216 L32.252,14.216 C32.3000002,14.9120035 32.4759985,15.4239984 32.78,15.752 C33.0840015,16.0800016 33.4759976,16.244 33.956,16.244 C34.2600015,16.244 34.5399987,16.2000004 34.796,16.112 C35.0520013,16.0239996 35.3199986,15.884001 35.6,15.692 L36.08,16.352 C35.4079966,16.8800026 34.672004,17.144 33.872,17.144 C32.9919956,17.144 32.3060025,16.8560029 31.814,16.28 C31.3219975,15.7039971 31.076,14.912005 31.076,13.904 C31.076,13.2479967 31.1819989,12.6660025 31.394,12.158 C31.6060011,11.6499975 31.909998,11.2520014 32.306,10.964 C32.702002,10.6759986 33.1679973,10.532 33.704,10.532 C34.5440042,10.532 35.1879978,10.8079972 35.636,11.36 C36.0840022,11.9120028 36.308,12.6759951 36.308,13.652 Z M35.216,13.328 C35.216,12.7039969 35.0920012,12.2280016 34.844,11.9 C34.5959988,11.5719984 34.2240025,11.408 33.728,11.408 C32.8239955,11.408 32.3320004,12.0719934 32.252,13.4 L35.216,13.4 L35.216,13.328 Z M39.332,17.144 C38.923998,17.144 38.6020012,17.0220012 38.366,16.778 C38.1299988,16.5339988 38.012,16.1920022 38.012,15.752 L38.012,8.132 L39.116,8 L39.116,15.728 C39.116,15.9040009 39.1459997,16.0319996 39.206,16.112 C39.2660003,16.1920004 39.3679993,16.232 39.512,16.232 C39.6640008,16.232 39.7999994,16.2080002 39.92,16.16 L40.208,16.928 C39.9439987,17.0720007 39.6520016,17.144 39.332,17.144 Z M45.788,15.524 C45.788,15.7800013 45.8319996,15.9699994 45.92,16.094 C46.0080004,16.2180006 46.1399991,16.3119997 46.316,16.376 L46.064,17.144 C45.7359984,17.1039998 45.472001,17.0120007 45.272,16.868 C45.071999,16.7239993 44.9240005,16.5000015 44.828,16.196 C44.4039979,16.8280032 43.7760042,17.144 42.944,17.144 C42.3199969,17.144 41.8280018,16.9680018 41.468,16.616 C41.1079982,16.2639982 40.928,15.8040028 40.928,15.236 C40.928,14.5639966 41.1699976,14.0480018 41.654,13.688 C42.1380024,13.3279982 42.8239956,13.148 43.712,13.148 L44.684,13.148 L44.684,12.68 C44.684,12.2319978 44.5760011,11.912001 44.36,11.72 C44.1439989,11.527999 43.8120022,11.432 43.364,11.432 C42.8999977,11.432 42.3320034,11.5439989 41.66,11.768 L41.384,10.964 C42.1680039,10.6759986 42.8959966,10.532 43.568,10.532 C44.3120037,10.532 44.8679982,10.7139982 45.236,11.078 C45.6040018,11.4420018 45.788,11.9599966 45.788,12.632 L45.788,15.524 Z M43.196,16.316 C43.8280032,16.316 44.3239982,15.9880033 44.684,15.332 L44.684,13.88 L43.856,13.88 C42.6879942,13.88 42.104,14.3119957 42.104,15.176 C42.104,15.5520019 42.1959991,15.835999 42.38,16.028 C42.5640009,16.220001 42.8359982,16.316 43.196,16.316 Z M51.248,16.712 C50.8319979,17.0000014 50.3600026,17.144 49.832,17.144 C49.2959973,17.144 48.8780015,16.9900015 48.578,16.682 C48.2779985,16.3739985 48.128,15.9280029 48.128,15.344 L48.128,11.528 L47.024,11.528 L47.024,10.676 L48.128,10.676 L48.128,9.248 L49.232,9.116 L49.232,10.676 L50.732,10.676 L50.612,11.528 L49.232,11.528 L49.232,15.296 C49.232,15.6240016 49.2899994,15.8619993 49.406,16.01 C49.5220006,16.1580007 49.7159986,16.232 49.988,16.232 C50.2360012,16.232 50.5159984,16.1480008 50.828,15.98 L51.248,16.712 Z M53.492,10.676 L53.492,17 L52.388,17 L52.388,10.676 L53.492,10.676 Z M52.928,7.64 C53.16,7.64 53.3479993,7.71199928 53.492,7.856 C53.6360007,8.00000072 53.708,8.17999892 53.708,8.396 C53.708,8.61200108 53.6360007,8.7899993 53.492,8.93 C53.3479993,9.0700007 53.16,9.14 52.928,9.14 C52.7039989,9.14 52.5200007,9.0700007 52.376,8.93 C52.2319993,8.7899993 52.16,8.61200108 52.16,8.396 C52.16,8.17999892 52.2319993,8.00000072 52.376,7.856 C52.5200007,7.71199928 52.7039989,7.64 52.928,7.64 Z M58.148,10.532 C59.0360044,10.532 59.7259975,10.827997 60.218,11.42 C60.7100025,12.012003 60.956,12.8159949 60.956,13.832 C60.956,14.4880033 60.8440011,15.0659975 60.62,15.566 C60.3959989,16.0660025 60.0720021,16.4539986 59.648,16.73 C59.2239979,17.0060014 58.7200029,17.144 58.136,17.144 C57.2479956,17.144 56.5560025,16.848003 56.06,16.256 C55.5639975,15.663997 55.316,14.8600051 55.316,13.844 C55.316,13.1879967 55.4279989,12.6100025 55.652,12.11 C55.8760011,11.6099975 56.1999979,11.2220014 56.624,10.946 C57.0480021,10.6699986 57.555997,10.532 58.148,10.532 Z M58.148,11.42 C57.0519945,11.42 56.504,12.2279919 56.504,13.844 C56.504,15.452008 57.0479946,16.256 58.136,16.256 C59.2240054,16.256 59.768,15.4480081 59.768,13.832 C59.768,12.223992 59.2280054,11.42 58.148,11.42 Z M65.756,10.532 C66.3320029,10.532 66.7819984,10.7039983 67.106,11.048 C67.4300016,11.3920017 67.592,11.863997 67.592,12.464 L67.592,17 L66.488,17 L66.488,12.62 C66.488,12.1719978 66.4040008,11.8560009 66.236,11.672 C66.0679992,11.4879991 65.8200016,11.396 65.492,11.396 C65.1559983,11.396 64.8600013,11.491999 64.604,11.684 C64.3479987,11.876001 64.1080011,12.1519982 63.884,12.512 L63.884,17 L62.78,17 L62.78,10.676 L63.728,10.676 L63.824,11.612 C64.0480011,11.2759983 64.3259983,11.012001 64.658,10.82 C64.9900017,10.627999 65.355998,10.532 65.756,10.532 Z" id="Correlation" fill="#FFFFFF" fill-rule="nonzero"></path>
    </g>
</svg>