<?xml version="1.0" encoding="UTF-8"?>
<svg width="124px" height="124px" viewBox="0 0 124 124" version="1.1" xmlns="http://www.w3.org/2000/svg" xmlns:xlink="http://www.w3.org/1999/xlink">
    <!-- Generator: Sketch 54.1 (76490) - https://sketchapp.com -->
    <title>component-3d</title>
    <desc>Created with Sketch.</desc>
    <defs>
        <rect id="path-1" x="0" y="0" width="124" height="124" rx="4"></rect>
    </defs>
    <g id="component-3d" stroke="none" stroke-width="1" fill="none" fill-rule="evenodd">
        <g id="Group-9">
            <g id="Path-8-+-Path-+-Path-Mask">
                <mask id="mask-2" fill="white">
                    <use xlink:href="#path-1"></use>
                </mask>
                <use id="Mask" fill="#393939" xlink:href="#path-1"></use>
                <g id="Group" mask="url(#mask-2)">
                    <g transform="translate(-16.000000, 20.000000)">
                        <polygon id="Path-2" fill="#818B9C" points="143 28.7285156 92.297408 0 0 42 8.22070313 104"></polygon>
                        <path d="M13,91.2080078 L13,109.130859 L44,109.130859 L143,52.9541016 L143,25 C134.981771,31.1230469 129.513672,35.0406901 126.595703,36.7529297 C122.21875,39.3212891 113.610352,44.8583984 108.976562,44.8583984 C104.342773,44.8583984 96.2421875,50.0126953 91.0644531,51.4833984 C85.8867187,52.9541016 78.6400613,52.5478516 74.9997181,47.1308594 C71.359375,41.7138672 62.9414063,36.7529297 58.4707031,36.7529297 C54,36.7529297 44.6328125,42.7783203 40.3164062,47.1308594 C36,51.4833984 29.8789063,57.2675781 28.0302734,61.4541016 C26.1816406,65.640625 21.9003906,75.1738281 19.4501953,81.2441406 C17.8167318,85.2910156 15.6666667,88.6123047 13,91.2080078 Z" id="Path-8" fill="#EFEFEF"></path>
                        <path d="M13.1327599,109.130859 L44,109.130859 L143,52.9541016 L143,42.5273437 C143.343099,43.6269531 142.165365,43.6269531 139.466797,42.5273437 C135.418945,40.8779297 131.3125,39.0332031 128.657227,44.6630859 C126.001953,50.2929687 125.191406,50.9306641 122.897461,50.9306641 C120.603516,50.9306641 113.508789,47.7509766 111.058594,52.9541016 C108.608398,58.1572266 106.652344,58.4912109 104.358398,58.3242187 C102.064453,58.1572266 101.318359,56.640625 98.2744141,60.3779297 C95.2304688,64.1152344 96.6787109,62.4316406 93.8457031,60.3779297 C91.0126953,58.3242187 92.6054687,62.8212891 90.0625,65.1142578 C87.5195313,67.4072266 85.6835938,69.8505859 82.8330078,65.1142578 C79.9824219,60.3779297 79.7043987,60.8564453 78.8999023,61.5185547 C78.095406,62.1806641 74.4973145,66.2089844 72.3879395,62.2666016 C70.9816895,59.6383464 69.4284668,56.263265 67.7282715,52.1413574 C66.302002,49.7494303 65.2847493,49.0887858 64.6765137,50.1594238 C63.7641602,51.7653809 64.1459961,55.9672852 64.1459961,55.9672852 C64.1459961,55.9672852 63.8190918,58.9804687 61.9736328,55.9672852 C60.1281738,52.9541016 58.6037598,49.652832 58.6037598,47.8803711 C58.6037598,46.1079102 57.7561035,45.0773926 56.378418,44.6630859 C55.0007324,44.2487793 53.2053223,44.1433105 51.8293457,46.769043 C50.4533691,49.3947754 47.4765625,48.5117187 46.2944336,49.7211914 C45.1123047,50.9306641 43.2668457,52.2590332 42.7636719,55.9672852 C42.260498,59.6755371 39.2233887,70.7988281 39.2233887,74.5209961 C39.2233887,78.2431641 37.3500977,81.4243164 35.050293,80.9248047 C32.7504883,80.425293 31.1835937,80.4943848 30.1894531,82.369873 C29.1953125,84.2453613 24.1547852,92.206543 22.6972656,94.435791 C21.2397461,96.6650391 21.1169434,99.7121582 20.4733887,101.435303 C20.0443522,102.584066 17.597476,105.149251 13.1327599,109.130859 Z" id="Path" fill="#B5BAC2"></path>
                        <path d="M25.8823242,109.130859 L44,109.130859 L133.799656,58.174763 C131.184033,53.9999861 128.554159,53.2936198 125.910034,56.0556641 C121.943848,60.1987305 121.13501,61.0059814 119.552856,61.5900879 C117.970703,62.1741943 108.19519,62.8220215 106.009155,64.1907959 C103.82312,65.5595703 99.0393066,71.2840576 97.0150146,72.3623047 C94.9907227,73.4405518 91.8743896,72.5234375 90.1546631,73.1165771 C88.4349365,73.7097168 85.6210937,76.868042 82.9169922,74.9923096 C80.2128906,73.1165771 79.6813965,69.793457 77.8658447,71.0778809 C76.050293,72.3623047 75.6828613,74.9923096 73.2434082,74.9923096 C70.8039551,74.9923096 67.8317871,72.2404785 66.7081299,72.9396973 C65.5844727,73.638916 62.7227783,79.0965576 60.4306641,78.4833984 C58.1385498,77.8702393 57.6212158,73.963623 56.888916,72.3623047 C56.1566162,70.7609863 54.3901367,71.7832031 53.461792,73.1165771 C52.5334473,74.4499512 42.8363037,96.1818848 40.4354248,96.1818848 C38.0345459,96.1818848 35.7762451,95.3900146 34.4086914,97.1751709 C33.4969889,98.3652751 30.6548665,102.350505 25.8823242,109.130859 Z" id="Path" fill="#818B9C"></path>
                    </g>
                </g>
            </g>
        </g>
        <path d="M10.7,8.852 C11.1960025,8.852 11.6219982,8.94399908 11.978,9.128 C12.3340018,9.31200092 12.6059991,9.55999844 12.794,9.872 C12.9820009,10.1840016 13.076,10.5239982 13.076,10.892 C13.076,11.3800024 12.9340014,11.7819984 12.65,12.098 C12.3659986,12.4140016 11.9880024,12.6279994 11.516,12.74 C12.0520027,12.7880002 12.4879983,12.9799983 12.824,13.316 C13.1600017,13.6520017 13.328,14.1079971 13.328,14.684 C13.328,15.1480023 13.2160011,15.5679981 12.992,15.944 C12.7679989,16.3200019 12.4480021,16.6139989 12.032,16.826 C11.6159979,17.0380011 11.1360027,17.144 10.592,17.144 C10.1039976,17.144 9.65600204,17.0540009 9.248,16.874 C8.83999796,16.6939991 8.48400152,16.4240018 8.18,16.064 L8.84,15.452 C9.10400132,15.7240014 9.37399862,15.9239994 9.65,16.052 C9.92600138,16.1800006 10.2279984,16.244 10.556,16.244 C11.0600025,16.244 11.4559986,16.1020014 11.744,15.818 C12.0320014,15.5339986 12.176,15.1520024 12.176,14.672 C12.176,14.1439974 12.0400014,13.7720011 11.768,13.556 C11.4959986,13.3399989 11.1000026,13.232 10.58,13.232 L9.98,13.232 L10.112,12.38 L10.52,12.38 C10.9360021,12.38 11.2819986,12.2560012 11.558,12.008 C11.8340014,11.7599988 11.972,11.4120022 11.972,10.964 C11.972,10.5879981 11.8520012,10.2900011 11.612,10.07 C11.3719988,9.8499989 11.048002,9.74 10.64,9.74 C10.3279984,9.74 10.0420013,9.79599944 9.782,9.908 C9.5219987,10.0200006 9.25600136,10.2039987 8.984,10.46 L8.408,9.8 C9.0880034,9.16799684 9.85199576,8.852 10.7,8.852 Z M16.916,8.732 C18.1640062,8.732 19.1659962,9.0219971 19.922,9.602 C20.6780038,10.1820029 21.056,11.2559922 21.056,12.824 C21.056,14.3520076 20.6780038,15.4299969 19.922,16.058 C19.1659962,16.6860031 18.2480054,17 17.168,17 L15.188,17 L15.188,8.732 L16.916,8.732 Z M16.328,9.644 L16.328,16.1 L17.252,16.1 C18.0200038,16.1 18.6439976,15.8640024 19.124,15.392 C19.6040024,14.9199976 19.844,14.0640062 19.844,12.824 C19.844,11.9519956 19.7200012,11.2820023 19.472,10.814 C19.2239988,10.3459977 18.9080019,10.0340008 18.524,9.878 C18.1399981,9.72199922 17.6880026,9.644 17.168,9.644 L16.328,9.644 Z" id="3D" fill="#FFFFFF" fill-rule="nonzero"></path>
    </g>
</svg>