<?xml version="1.0" encoding="UTF-8"?>
<svg width="124px" height="124px" viewBox="0 0 124 124" version="1.1" xmlns="http://www.w3.org/2000/svg" xmlns:xlink="http://www.w3.org/1999/xlink">
    <!-- Generator: Sketch 54.1 (76490) - https://sketchapp.com -->
    <title>component-map</title>
    <desc>Created with Sketch.</desc>
    <g id="component-map" stroke="none" stroke-width="1" fill="none" fill-rule="evenodd">
        <g id="Group-6" fill="#393939">
            <rect id="Rectangle" x="0" y="0" width="124" height="124" rx="4"></rect>
        </g>
        <path d="M16.592,17 L15.488,17 L15.2,13.268 C15.0799994,11.8039927 15.0120001,10.6800039 14.996,9.896 L13.208,16.064 L12.14,16.064 L10.256,9.884 C10.256,10.884005 10.2040005,12.0399934 10.1,13.352 L9.824,17 L8.744,17 L9.428,8.732 L10.964,8.732 L12.704,14.744 L14.36,8.732 L15.908,8.732 L16.592,17 Z M22.736,15.524 C22.736,15.7800013 22.7799996,15.9699994 22.868,16.094 C22.9560004,16.2180006 23.0879991,16.3119997 23.264,16.376 L23.012,17.144 C22.6839984,17.1039998 22.420001,17.0120007 22.22,16.868 C22.019999,16.7239993 21.8720005,16.5000015 21.776,16.196 C21.3519979,16.8280032 20.7240042,17.144 19.892,17.144 C19.2679969,17.144 18.7760018,16.9680018 18.416,16.616 C18.0559982,16.2639982 17.876,15.8040028 17.876,15.236 C17.876,14.5639966 18.1179976,14.0480018 18.602,13.688 C19.0860024,13.3279982 19.7719956,13.148 20.66,13.148 L21.632,13.148 L21.632,12.68 C21.632,12.2319978 21.5240011,11.912001 21.308,11.72 C21.0919989,11.527999 20.7600022,11.432 20.312,11.432 C19.8479977,11.432 19.2800034,11.5439989 18.608,11.768 L18.332,10.964 C19.1160039,10.6759986 19.8439966,10.532 20.516,10.532 C21.2600037,10.532 21.8159982,10.7139982 22.184,11.078 C22.5520018,11.4420018 22.736,11.9599966 22.736,12.632 L22.736,15.524 Z M20.144,16.316 C20.7760032,16.316 21.2719982,15.9880033 21.632,15.332 L21.632,13.88 L20.804,13.88 C19.6359942,13.88 19.052,14.3119957 19.052,15.176 C19.052,15.5520019 19.1439991,15.835999 19.328,16.028 C19.5120009,16.220001 19.7839982,16.316 20.144,16.316 Z M27.908,10.532 C28.716004,10.532 29.3079981,10.8199971 29.684,11.396 C30.0600019,11.9720029 30.248,12.7839948 30.248,13.832 C30.248,14.824005 30.0320022,15.623997 29.6,16.232 C29.1679978,16.840003 28.556004,17.144 27.764,17.144 C27.0599965,17.144 26.508002,16.9040024 26.108,16.424 L26.108,19.424 L25.004,19.556 L25.004,10.676 L25.952,10.676 L26.036,11.528 C26.2680012,11.2079984 26.5479984,10.9620009 26.876,10.79 C27.2040016,10.6179991 27.5479982,10.532 27.908,10.532 Z M27.5,16.244 C28.5400052,16.244 29.06,15.440008 29.06,13.832 C29.06,12.2159919 28.5840048,11.408 27.632,11.408 C27.3199984,11.408 27.0360013,11.4999991 26.78,11.684 C26.5239987,11.8680009 26.300001,12.1039986 26.108,12.392 L26.108,15.476 C26.2680008,15.7240012 26.4679988,15.9139993 26.708,16.046 C26.9480012,16.1780007 27.2119986,16.244 27.5,16.244 Z" id="Map" fill="#FFFFFF" fill-rule="nonzero"></path>
        <g id="Group" transform="translate(0.000000, 26.000000)" stroke="#B5BAC2">
            <g id="Group-2">
                <g transform="translate(-5.000000, -1.000000)">
                    <path d="M24.2964314,-2.84217094e-14 C11.3970173,10.3570964 9.72774651,19.5284831 19.2886189,27.5141602 C33.6299275,39.4926758 39.4863728,43.8764648 45.1821736,42.2915039 C50.8779744,40.706543 66.6328572,29.456543 69.0771931,24.4174805 C71.5215291,19.378418 76.2998494,10.6201172 72.6885212,2.41699219" id="Path-9"></path>
                    <path d="M46.071822,-1.42108547e-14 C39.3726033,4.29394531 34.8039184,6.76513672 32.3657673,7.41357422 C28.7085408,8.38623047 20.3076619,11.3125 22.4292439,19.2197266 C24.5508259,27.1269531 34.1628995,32.9296875 38.875533,31.9199219 C43.5881665,30.9101562 57.8867634,28.9311523 61.7886189,19.2197266 C65.6904744,9.50830078 67.9819783,10.8603516 64.8852986,-1.42108547e-14" id="Path-10"></path>
                    <path d="M4.31840406,0 C-1.84370531,11.6809896 -1.41108813,21.2892253 5.61625562,28.824707 C16.1572712,40.1279297 20.2935017,47.4975586 14.6602009,57.5688477 C9.02690015,67.6401367 -1.95131368,80.6376953 5.61625562,90.2646484 C13.1838249,99.8916016 15.0112752,97.1118164 15.7993611,99" id="Path-11"></path>
                    <path d="M81.297408,0 C85.1981241,12.9583333 92.4487752,23.9073893 103.049361,32.847168 C118.95024,46.2568359 131.279342,55.4667969 136.296431,59.4335938" id="Path-12"></path>
                    <path d="M47.5869587,100.40918 C39.043339,95.2666016 33.6624796,91.2241211 31.4443806,88.2817383 C28.1172322,83.8681641 22.6421345,77.6943359 24.9072712,73.0444336 C27.172408,68.3945312 33.6616658,60.5639648 39.9043416,61.527832 C46.1470173,62.4916992 61.394915,66.7495117 66.3268744,64.6206055 C71.2588337,62.4916992 85.6572712,53.2675781 89.9600056,53.2675781 C94.26274,53.2675781 102.139205,52.3862305 110.185103,59.4335937 C118.231002,66.480957 122.575728,67.5005508 122.575728,72.1606445 C122.575728,76.8207383 122.576217,84.6474609 117.554244,89.5595703 C114.206262,92.8343099 110.233118,96.6798503 105.63481,101.096191" id="Path-13"></path>
                    <path d="M97.4687947,79.8486328 C94.9049926,79.8222656 93.6230916,79.1653646 93.6230916,77.8779297 C93.6230916,75.9467773 95.7954548,74.8162246 97.4687947,75.9902344 C98.5843546,76.7729075 98.5843546,78.0590404 97.4687947,79.8486328 Z" id="Path-14"></path>
                    <path d="M51.0845173,83.7255859 C48.4995564,86.3102214 45.7463012,86.3102214 42.8247517,83.7255859 C38.4424275,79.8486328 38.4300268,75.5130835 42.0947712,75.5130835 C45.7595157,75.5130835 48.5640095,75.0004883 51.0845173,78.3710937 C52.7648559,80.6181641 52.7648559,82.4029948 51.0845173,83.7255859 Z" id="Path-15"></path>
                    <path d="M92.7729939,95.8173828 C83.0496866,93.9023934 76.0270629,90.8831877 71.7051228,86.7597656 C67.3831827,82.6363435 68.1456444,78.0930493 73.992508,73.1298828 C82.8245181,65.0423177 89.0846801,61.2879232 92.7729939,61.8666992 C98.3054646,62.7348633 109.761763,64.9285293 112.990279,71.0463867 C116.218795,77.1642441 116.520064,81.28125 111.391646,86.7597656 C106.263228,92.2382812 102.398116,95.8173828 99.181197,95.8173828 C97.0365844,95.8173828 94.9005167,95.8173828 92.7729939,95.8173828 Z" id="Path-16"></path>
                    <path d="M76.3320759,-7.10542736e-15 C78.730839,16.1445313 81.7952921,26.3473307 85.5254353,30.6083984 C91.1206502,37 124.58647,53.1640625 127.775435,63.5600586 C130.9644,73.9560547 128.2144,89.5043945 120.465865,98.1381836" id="Path-17"></path>
                    <path d="M85.9316853,1.77635684e-14 C99.1781046,20.8561198 110.570357,33.9485677 120.108443,39.2773438 C129.646529,44.6061198 135.042525,47.0359701 136.296431,46.5668945" id="Path-18"></path>
                    <path d="M91.10649,0 C98.6901489,11.327474 103.814335,18.1951497 106.479049,20.6030273 C110.476119,24.2148437 118.518599,32.5927734 125.797896,34.3603516" id="Path-19"></path>
                    <path d="M97.0034627,5.32907052e-15 C104.409127,10.8134766 110.522587,17.637207 115.343844,20.4711914 C122.575728,24.722168 123.667193,25.5629883 129.078492,25.5629883" id="Path-20"></path>
                    <path d="M12.5239705,-7.10542736e-15 C6.26615797,10.7011719 5.63562411,19.222168 10.6323689,25.5629883 C18.1274861,35.0742188 26.6694783,42.3486328 26.6694783,49.0690918 C26.6694783,55.7895508 14.6424363,66.9976586 13.9131306,71.2553711 C13.1838249,75.5130835 12.6294392,81.6948242 19.2886189,87.4243164 C25.9477986,93.1538086 33.359908,103.543945 33.359908,105.269531" id="Path-22"></path>
                    <path d="M110.287598,0 C114.645085,5.18945313 118.067627,7.78417969 120.555225,7.78417969 C124.286621,7.78417969 125.3125,6.55029297 126.10498,3.89208984 C126.633301,2.11995443 126.858561,0.822591146 126.780762,0" id="Path-21"></path>
                </g>
            </g>
        </g>
    </g>
</svg>