<?xml version="1.0" encoding="UTF-8"?>
<svg width="124px" height="124px" viewBox="0 0 124 124" version="1.1" xmlns="http://www.w3.org/2000/svg" xmlns:xlink="http://www.w3.org/1999/xlink">
    <!-- Generator: Sketch 54.1 (76490) - https://sketchapp.com -->
    <title>layout-correlation-calib</title>
    <desc>Created with Sketch.</desc>
    <g id="layout-correlation-calib" stroke="none" stroke-width="1" fill="none" fill-rule="evenodd">
        <g id="Group-4" fill="#393939">
            <rect id="Rectangle" x="0" y="0" width="124" height="124" rx="4"></rect>
        </g>
        <path d="M12.092,8.588 C12.5880025,8.588 13.0059983,8.65199936 13.346,8.78 C13.6860017,8.90800064 14.0319982,9.11599856 14.384,9.404 L13.76,10.136 C13.2559975,9.72799796 12.7240028,9.524 12.164,9.524 C11.4759966,9.524 10.9220021,9.78799736 10.502,10.316 C10.0819979,10.8440026 9.872,11.6919942 9.872,12.86 C9.872,13.9960057 10.0799979,14.8339973 10.496,15.374 C10.9120021,15.9140027 11.4639966,16.184 12.152,16.184 C12.5040018,16.184 12.8119987,16.1240006 13.076,16.004 C13.3400013,15.8839994 13.6199985,15.7160011 13.916,15.5 L14.48,16.22 C14.2239987,16.4840013 13.896002,16.7039991 13.496,16.88 C13.095998,17.0560009 12.6360026,17.144 12.116,17.144 C11.4439966,17.144 10.8460026,16.9780017 10.322,16.646 C9.79799738,16.3139983 9.39000146,15.8260032 9.098,15.182 C8.80599854,14.5379968 8.66,13.7640045 8.66,12.86 C8.66,11.9559955 8.81199848,11.1820032 9.116,10.538 C9.42000152,9.89399678 9.8319974,9.40800164 10.352,9.08 C10.8720026,8.75199836 11.4519968,8.588 12.092,8.588 Z M17.996,10.532 C18.8840044,10.532 19.5739975,10.827997 20.066,11.42 C20.5580025,12.012003 20.804,12.8159949 20.804,13.832 C20.804,14.4880033 20.6920011,15.0659975 20.468,15.566 C20.2439989,16.0660025 19.9200021,16.4539986 19.496,16.73 C19.0719979,17.0060014 18.5680029,17.144 17.984,17.144 C17.0959956,17.144 16.4040025,16.848003 15.908,16.256 C15.4119975,15.663997 15.164,14.8600051 15.164,13.844 C15.164,13.1879967 15.2759989,12.6100025 15.5,12.11 C15.7240011,11.6099975 16.0479979,11.2220014 16.472,10.946 C16.8960021,10.6699986 17.403997,10.532 17.996,10.532 Z M17.996,11.42 C16.8999945,11.42 16.352,12.2279919 16.352,13.844 C16.352,15.452008 16.8959946,16.256 17.984,16.256 C19.0720054,16.256 19.616,15.4480081 19.616,13.832 C19.616,12.223992 19.0760054,11.42 17.996,11.42 Z M25.376,10.532 C25.6000011,10.532 25.807999,10.5559998 26,10.604 L25.796,11.684 C25.603999,11.6359998 25.4200009,11.612 25.244,11.612 C24.851998,11.612 24.5360012,11.7559986 24.296,12.044 C24.0559988,12.3320014 23.8680007,12.779997 23.732,13.388 L23.732,17 L22.628,17 L22.628,10.676 L23.576,10.676 L23.684,11.96 C23.8520008,11.4879976 24.0799986,11.1320012 24.368,10.892 C24.6560014,10.6519988 24.9919981,10.532 25.376,10.532 Z M30.008,10.532 C30.2320011,10.532 30.439999,10.5559998 30.632,10.604 L30.428,11.684 C30.235999,11.6359998 30.0520009,11.612 29.876,11.612 C29.483998,11.612 29.1680012,11.7559986 28.928,12.044 C28.6879988,12.3320014 28.5000007,12.779997 28.364,13.388 L28.364,17 L27.26,17 L27.26,10.676 L28.208,10.676 L28.316,11.96 C28.4840008,11.4879976 28.7119986,11.1320012 29,10.892 C29.2880014,10.6519988 29.6239981,10.532 30.008,10.532 Z M36.308,13.652 C36.308,13.8360009 36.3000001,14.023999 36.284,14.216 L32.252,14.216 C32.3000002,14.9120035 32.4759985,15.4239984 32.78,15.752 C33.0840015,16.0800016 33.4759976,16.244 33.956,16.244 C34.2600015,16.244 34.5399987,16.2000004 34.796,16.112 C35.0520013,16.0239996 35.3199986,15.884001 35.6,15.692 L36.08,16.352 C35.4079966,16.8800026 34.672004,17.144 33.872,17.144 C32.9919956,17.144 32.3060025,16.8560029 31.814,16.28 C31.3219975,15.7039971 31.076,14.912005 31.076,13.904 C31.076,13.2479967 31.1819989,12.6660025 31.394,12.158 C31.6060011,11.6499975 31.909998,11.2520014 32.306,10.964 C32.702002,10.6759986 33.1679973,10.532 33.704,10.532 C34.5440042,10.532 35.1879978,10.8079972 35.636,11.36 C36.0840022,11.9120028 36.308,12.6759951 36.308,13.652 Z M35.216,13.328 C35.216,12.7039969 35.0920012,12.2280016 34.844,11.9 C34.5959988,11.5719984 34.2240025,11.408 33.728,11.408 C32.8239955,11.408 32.3320004,12.0719934 32.252,13.4 L35.216,13.4 L35.216,13.328 Z M39.332,17.144 C38.923998,17.144 38.6020012,17.0220012 38.366,16.778 C38.1299988,16.5339988 38.012,16.1920022 38.012,15.752 L38.012,8.132 L39.116,8 L39.116,15.728 C39.116,15.9040009 39.1459997,16.0319996 39.206,16.112 C39.2660003,16.1920004 39.3679993,16.232 39.512,16.232 C39.6640008,16.232 39.7999994,16.2080002 39.92,16.16 L40.208,16.928 C39.9439987,17.0720007 39.6520016,17.144 39.332,17.144 Z M45.788,15.524 C45.788,15.7800013 45.8319996,15.9699994 45.92,16.094 C46.0080004,16.2180006 46.1399991,16.3119997 46.316,16.376 L46.064,17.144 C45.7359984,17.1039998 45.472001,17.0120007 45.272,16.868 C45.071999,16.7239993 44.9240005,16.5000015 44.828,16.196 C44.4039979,16.8280032 43.7760042,17.144 42.944,17.144 C42.3199969,17.144 41.8280018,16.9680018 41.468,16.616 C41.1079982,16.2639982 40.928,15.8040028 40.928,15.236 C40.928,14.5639966 41.1699976,14.0480018 41.654,13.688 C42.1380024,13.3279982 42.8239956,13.148 43.712,13.148 L44.684,13.148 L44.684,12.68 C44.684,12.2319978 44.5760011,11.912001 44.36,11.72 C44.1439989,11.527999 43.8120022,11.432 43.364,11.432 C42.8999977,11.432 42.3320034,11.5439989 41.66,11.768 L41.384,10.964 C42.1680039,10.6759986 42.8959966,10.532 43.568,10.532 C44.3120037,10.532 44.8679982,10.7139982 45.236,11.078 C45.6040018,11.4420018 45.788,11.9599966 45.788,12.632 L45.788,15.524 Z M43.196,16.316 C43.8280032,16.316 44.3239982,15.9880033 44.684,15.332 L44.684,13.88 L43.856,13.88 C42.6879942,13.88 42.104,14.3119957 42.104,15.176 C42.104,15.5520019 42.1959991,15.835999 42.38,16.028 C42.5640009,16.220001 42.8359982,16.316 43.196,16.316 Z M51.248,16.712 C50.8319979,17.0000014 50.3600026,17.144 49.832,17.144 C49.2959973,17.144 48.8780015,16.9900015 48.578,16.682 C48.2779985,16.3739985 48.128,15.9280029 48.128,15.344 L48.128,11.528 L47.024,11.528 L47.024,10.676 L48.128,10.676 L48.128,9.248 L49.232,9.116 L49.232,10.676 L50.732,10.676 L50.612,11.528 L49.232,11.528 L49.232,15.296 C49.232,15.6240016 49.2899994,15.8619993 49.406,16.01 C49.5220006,16.1580007 49.7159986,16.232 49.988,16.232 C50.2360012,16.232 50.5159984,16.1480008 50.828,15.98 L51.248,16.712 Z M53.492,10.676 L53.492,17 L52.388,17 L52.388,10.676 L53.492,10.676 Z M52.928,7.64 C53.16,7.64 53.3479993,7.71199928 53.492,7.856 C53.6360007,8.00000072 53.708,8.17999892 53.708,8.396 C53.708,8.61200108 53.6360007,8.7899993 53.492,8.93 C53.3479993,9.0700007 53.16,9.14 52.928,9.14 C52.7039989,9.14 52.5200007,9.0700007 52.376,8.93 C52.2319993,8.7899993 52.16,8.61200108 52.16,8.396 C52.16,8.17999892 52.2319993,8.00000072 52.376,7.856 C52.5200007,7.71199928 52.7039989,7.64 52.928,7.64 Z M58.148,10.532 C59.0360044,10.532 59.7259975,10.827997 60.218,11.42 C60.7100025,12.012003 60.956,12.8159949 60.956,13.832 C60.956,14.4880033 60.8440011,15.0659975 60.62,15.566 C60.3959989,16.0660025 60.0720021,16.4539986 59.648,16.73 C59.2239979,17.0060014 58.7200029,17.144 58.136,17.144 C57.2479956,17.144 56.5560025,16.848003 56.06,16.256 C55.5639975,15.663997 55.316,14.8600051 55.316,13.844 C55.316,13.1879967 55.4279989,12.6100025 55.652,12.11 C55.8760011,11.6099975 56.1999979,11.2220014 56.624,10.946 C57.0480021,10.6699986 57.555997,10.532 58.148,10.532 Z M58.148,11.42 C57.0519945,11.42 56.504,12.2279919 56.504,13.844 C56.504,15.452008 57.0479946,16.256 58.136,16.256 C59.2240054,16.256 59.768,15.4480081 59.768,13.832 C59.768,12.223992 59.2280054,11.42 58.148,11.42 Z M65.756,10.532 C66.3320029,10.532 66.7819984,10.7039983 67.106,11.048 C67.4300016,11.3920017 67.592,11.863997 67.592,12.464 L67.592,17 L66.488,17 L66.488,12.62 C66.488,12.1719978 66.4040008,11.8560009 66.236,11.672 C66.0679992,11.4879991 65.8200016,11.396 65.492,11.396 C65.1559983,11.396 64.8600013,11.491999 64.604,11.684 C64.3479987,11.876001 64.1080011,12.1519982 63.884,12.512 L63.884,17 L62.78,17 L62.78,10.676 L63.728,10.676 L63.824,11.612 C64.0480011,11.2759983 64.3259983,11.012001 64.658,10.82 C64.9900017,10.627999 65.355998,10.532 65.756,10.532 Z M11.444,24.532 C11.8200019,24.532 12.1639984,24.5859995 12.476,24.694 C12.7880016,24.8020005 13.0879986,24.9759988 13.376,25.216 L12.848,25.912 C12.6239989,25.7519992 12.4060011,25.6340004 12.194,25.558 C11.9819989,25.4819996 11.7480013,25.444 11.492,25.444 C10.9799974,25.444 10.5820014,25.647998 10.298,26.056 C10.0139986,26.464002 9.872,27.067996 9.872,27.868 C9.872,28.668004 10.0119986,29.2579981 10.292,29.638 C10.5720014,30.0180019 10.9719974,30.208 11.492,30.208 C11.7400012,30.208 11.967999,30.1700004 12.176,30.094 C12.384001,30.0179996 12.6159987,29.8960008 12.872,29.728 L13.376,30.448 C12.7999971,30.9120023 12.1560036,31.144 11.444,31.144 C10.5879957,31.144 9.91400246,30.8560029 9.422,30.28 C8.92999754,29.7039971 8.684,28.9080051 8.684,27.892 C8.684,27.2199966 8.79599888,26.6320025 9.02,26.128 C9.24400112,25.6239975 9.56199794,25.2320014 9.974,24.952 C10.3860021,24.6719986 10.8759972,24.532 11.444,24.532 Z M19.016,29.524 C19.016,29.7800013 19.0599996,29.9699994 19.148,30.094 C19.2360004,30.2180006 19.3679991,30.3119997 19.544,30.376 L19.292,31.144 C18.9639984,31.1039998 18.700001,31.0120007 18.5,30.868 C18.299999,30.7239993 18.1520005,30.5000015 18.056,30.196 C17.6319979,30.8280032 17.0040042,31.144 16.172,31.144 C15.5479969,31.144 15.0560018,30.9680018 14.696,30.616 C14.3359982,30.2639982 14.156,29.8040028 14.156,29.236 C14.156,28.5639966 14.3979976,28.0480018 14.882,27.688 C15.3660024,27.3279982 16.0519956,27.148 16.94,27.148 L17.912,27.148 L17.912,26.68 C17.912,26.2319978 17.8040011,25.912001 17.588,25.72 C17.3719989,25.527999 17.0400022,25.432 16.592,25.432 C16.1279977,25.432 15.5600034,25.5439989 14.888,25.768 L14.612,24.964 C15.3960039,24.6759986 16.1239966,24.532 16.796,24.532 C17.5400037,24.532 18.0959982,24.7139982 18.464,25.078 C18.8320018,25.4420018 19.016,25.9599966 19.016,26.632 L19.016,29.524 Z M16.424,30.316 C17.0560032,30.316 17.5519982,29.9880033 17.912,29.332 L17.912,27.88 L17.084,27.88 C15.9159942,27.88 15.332,28.3119957 15.332,29.176 C15.332,29.5520019 15.4239991,29.835999 15.608,30.028 C15.7920009,30.220001 16.0639982,30.316 16.424,30.316 Z M22.424,31.144 C22.015998,31.144 21.6940012,31.0220012 21.458,30.778 C21.2219988,30.5339988 21.104,30.1920022 21.104,29.752 L21.104,22.132 L22.208,22 L22.208,29.728 C22.208,29.9040009 22.2379997,30.0319996 22.298,30.112 C22.3580003,30.1920004 22.4599993,30.232 22.604,30.232 C22.7560008,30.232 22.8919994,30.2080002 23.012,30.16 L23.3,30.928 C23.0359987,31.0720007 22.7440016,31.144 22.424,31.144 Z M25.784,24.676 L25.784,31 L24.68,31 L24.68,24.676 L25.784,24.676 Z M25.22,21.64 C25.452,21.64 25.6399993,21.7119993 25.784,21.856 C25.9280007,22.0000007 26,22.1799989 26,22.396 C26,22.6120011 25.9280007,22.7899993 25.784,22.93 C25.6399993,23.0700007 25.452,23.14 25.22,23.14 C24.9959989,23.14 24.8120007,23.0700007 24.668,22.93 C24.5239993,22.7899993 24.452,22.6120011 24.452,22.396 C24.452,22.1799989 24.5239993,22.0000007 24.668,21.856 C24.8120007,21.7119993 24.9959989,21.64 25.22,21.64 Z M30.956,24.532 C31.6760036,24.532 32.2479979,24.8219971 32.672,25.402 C33.0960021,25.9820029 33.308,26.7919948 33.308,27.832 C33.308,28.4880033 33.208001,29.0659975 33.008,29.566 C32.807999,30.0660025 32.5200019,30.4539986 32.144,30.73 C31.7679981,31.0060014 31.3280025,31.144 30.824,31.144 C30.1599967,31.144 29.6000023,30.8640028 29.144,30.304 L29.036,31 L28.064,31 L28.064,22.132 L29.168,22 L29.168,25.468 C29.6240023,24.8439969 30.2199963,24.532 30.956,24.532 Z M30.56,30.268 C31.0480024,30.268 31.4299986,30.070002 31.706,29.674 C31.9820014,29.277998 32.12,28.6640042 32.12,27.832 C32.12,26.9759957 31.9920013,26.3580019 31.736,25.978 C31.4799987,25.5979981 31.1160024,25.408 30.644,25.408 C30.0839972,25.408 29.5920021,25.7359967 29.168,26.392 L29.168,29.416 C29.3360008,29.6800013 29.5419988,29.8879992 29.786,30.04 C30.0300012,30.1920008 30.2879986,30.268 30.56,30.268 Z M37.94,24.532 C38.1640011,24.532 38.371999,24.5559998 38.564,24.604 L38.36,25.684 C38.167999,25.6359998 37.9840009,25.612 37.808,25.612 C37.415998,25.612 37.1000012,25.7559986 36.86,26.044 C36.6199988,26.3320014 36.4320007,26.779997 36.296,27.388 L36.296,31 L35.192,31 L35.192,24.676 L36.14,24.676 L36.248,25.96 C36.4160008,25.4879976 36.6439986,25.1320012 36.932,24.892 C37.2200014,24.6519988 37.5559981,24.532 37.94,24.532 Z M43.664,29.524 C43.664,29.7800013 43.7079996,29.9699994 43.796,30.094 C43.8840004,30.2180006 44.0159991,30.3119997 44.192,30.376 L43.94,31.144 C43.6119984,31.1039998 43.348001,31.0120007 43.148,30.868 C42.947999,30.7239993 42.8000005,30.5000015 42.704,30.196 C42.2799979,30.8280032 41.6520042,31.144 40.82,31.144 C40.1959969,31.144 39.7040018,30.9680018 39.344,30.616 C38.9839982,30.2639982 38.804,29.8040028 38.804,29.236 C38.804,28.5639966 39.0459976,28.0480018 39.53,27.688 C40.0140024,27.3279982 40.6999956,27.148 41.588,27.148 L42.56,27.148 L42.56,26.68 C42.56,26.2319978 42.4520011,25.912001 42.236,25.72 C42.0199989,25.527999 41.6880022,25.432 41.24,25.432 C40.7759977,25.432 40.2080034,25.5439989 39.536,25.768 L39.26,24.964 C40.0440039,24.6759986 40.7719966,24.532 41.444,24.532 C42.1880037,24.532 42.7439982,24.7139982 43.112,25.078 C43.4800018,25.4420018 43.664,25.9599966 43.664,26.632 L43.664,29.524 Z M41.072,30.316 C41.7040032,30.316 42.1999982,29.9880033 42.56,29.332 L42.56,27.88 L41.732,27.88 C40.5639942,27.88 39.98,28.3119957 39.98,29.176 C39.98,29.5520019 40.0719991,29.835999 40.256,30.028 C40.4400009,30.220001 40.7119982,30.316 41.072,30.316 Z M49.124,30.712 C48.7079979,31.0000014 48.2360026,31.144 47.708,31.144 C47.1719973,31.144 46.7540015,30.9900015 46.454,30.682 C46.1539985,30.3739985 46.004,29.9280029 46.004,29.344 L46.004,25.528 L44.9,25.528 L44.9,24.676 L46.004,24.676 L46.004,23.248 L47.108,23.116 L47.108,24.676 L48.608,24.676 L48.488,25.528 L47.108,25.528 L47.108,29.296 C47.108,29.6240016 47.1659994,29.8619993 47.282,30.01 C47.3980006,30.1580007 47.5919986,30.232 47.864,30.232 C48.1120012,30.232 48.3919984,30.1480008 48.704,29.98 L49.124,30.712 Z M51.368,24.676 L51.368,31 L50.264,31 L50.264,24.676 L51.368,24.676 Z M50.804,21.64 C51.036,21.64 51.2239993,21.7119993 51.368,21.856 C51.5120007,22.0000007 51.584,22.1799989 51.584,22.396 C51.584,22.6120011 51.5120007,22.7899993 51.368,22.93 C51.2239993,23.0700007 51.036,23.14 50.804,23.14 C50.5799989,23.14 50.3960007,23.0700007 50.252,22.93 C50.1079993,22.7899993 50.036,22.6120011 50.036,22.396 C50.036,22.1799989 50.1079993,22.0000007 50.252,21.856 C50.3960007,21.7119993 50.5799989,21.64 50.804,21.64 Z M56.024,24.532 C56.9120044,24.532 57.6019975,24.827997 58.094,25.42 C58.5860025,26.012003 58.832,26.8159949 58.832,27.832 C58.832,28.4880033 58.7200011,29.0659975 58.496,29.566 C58.2719989,30.0660025 57.9480021,30.4539986 57.524,30.73 C57.0999979,31.0060014 56.5960029,31.144 56.012,31.144 C55.1239956,31.144 54.4320025,30.848003 53.936,30.256 C53.4399975,29.663997 53.192,28.8600051 53.192,27.844 C53.192,27.1879967 53.3039989,26.6100025 53.528,26.11 C53.7520011,25.6099975 54.0759979,25.2220014 54.5,24.946 C54.9240021,24.6699986 55.431997,24.532 56.024,24.532 Z M56.024,25.42 C54.9279945,25.42 54.38,26.2279919 54.38,27.844 C54.38,29.452008 54.9239946,30.256 56.012,30.256 C57.1000054,30.256 57.644,29.4480081 57.644,27.832 C57.644,26.223992 57.1040054,25.42 56.024,25.42 Z M63.632,24.532 C64.2080029,24.532 64.6579984,24.7039983 64.982,25.048 C65.3060016,25.3920017 65.468,25.863997 65.468,26.464 L65.468,31 L64.364,31 L64.364,26.62 C64.364,26.1719978 64.2800008,25.8560009 64.112,25.672 C63.9439992,25.4879991 63.6960016,25.396 63.368,25.396 C63.0319983,25.396 62.7360013,25.491999 62.48,25.684 C62.2239987,25.876001 61.9840011,26.1519982 61.76,26.512 L61.76,31 L60.656,31 L60.656,24.676 L61.604,24.676 L61.7,25.612 C61.9240011,25.2759983 62.2019983,25.012001 62.534,24.82 C62.8660017,24.627999 63.231998,24.532 63.632,24.532 Z" id="Correlationcalibration" fill="#FFFFFF" fill-rule="nonzero"></path>
        <rect id="Rectangle" fill="#EFEFEF" x="10" y="37" width="104" height="70"></rect>
        <rect id="Rectangle" fill="#B5BAC2" x="10" y="37" width="29" height="23.3333333"></rect>
        <rect id="Rectangle-Copy" fill="#818B9C" x="10" y="60" width="29" height="24"></rect>
        <rect id="Rectangle-Copy-2" fill="#B5BAC2" x="10" y="84" width="29" height="23.3333333"></rect>
        <rect id="Rectangle" fill="#818B9C" x="98" y="37" width="16" height="70"></rect>
    </g>
</svg>