<?xml version="1.0" encoding="UTF-8"?>
<svg width="124px" height="124px" viewBox="0 0 124 124" version="1.1" xmlns="http://www.w3.org/2000/svg" xmlns:xlink="http://www.w3.org/1999/xlink">
    <!-- Generator: Sketch 54.1 (76490) - https://sketchapp.com -->
    <title>layout-sweet-spot</title>
    <desc>Created with Sketch.</desc>
    <g id="layout-sweet-spot" stroke="none" stroke-width="1" fill="none" fill-rule="evenodd">
        <g id="Group-4" fill="#393939">
            <rect id="Rectangle" x="0" y="0" width="124" height="124" rx="4"></rect>
        </g>
        <path d="M11.24,8.588 C11.7920028,8.588 12.263998,8.66599922 12.656,8.822 C13.048002,8.97800078 13.4279982,9.21999836 13.796,9.548 L13.172,10.244 C12.8599984,9.99599876 12.5540015,9.81400058 12.254,9.698 C11.9539985,9.58199942 11.6320017,9.524 11.288,9.524 C10.8559978,9.524 10.5000014,9.623999 10.22,9.824 C9.9399986,10.024001 9.8,10.3159981 9.8,10.7 C9.8,10.9400012 9.84799952,11.1419992 9.944,11.306 C10.0400005,11.4700008 10.2179987,11.6199993 10.478,11.756 C10.7380013,11.8920007 11.1159975,12.0359992 11.612,12.188 C12.1320026,12.3480008 12.5639983,12.5199991 12.908,12.704 C13.2520017,12.8880009 13.5299989,13.1419984 13.742,13.466 C13.9540011,13.7900016 14.06,14.1999975 14.06,14.696 C14.06,15.1760024 13.9420012,15.5999982 13.706,15.968 C13.4699988,16.3360018 13.1300022,16.623999 12.686,16.832 C12.2419978,17.040001 11.716003,17.144 11.108,17.144 C9.96399428,17.144 9.02800364,16.7880036 8.3,16.076 L8.924,15.38 C9.26000168,15.6520014 9.59999828,15.8579993 9.944,15.998 C10.2880017,16.1380007 10.6719979,16.208 11.096,16.208 C11.6080026,16.208 12.0319983,16.0820013 12.368,15.83 C12.7040017,15.5779987 12.872,15.2120024 12.872,14.732 C12.872,14.4599986 12.8200005,14.2340009 12.716,14.054 C12.6119995,13.8739991 12.4340013,13.7120007 12.182,13.568 C11.9299987,13.4239993 11.5640024,13.2800007 11.084,13.136 C10.2359958,12.8799987 9.61600196,12.5720018 9.224,12.212 C8.83199804,11.8519982 8.636,11.3640031 8.636,10.748 C8.636,10.3319979 8.7459989,9.96000164 8.966,9.632 C9.1860011,9.30399836 9.49399802,9.04800092 9.89,8.864 C10.286002,8.67999908 10.7359975,8.588 11.24,8.588 Z M22.904,10.676 L21.464,17 L19.964,17 L18.86,11.672 L17.72,17 L16.256,17 L14.78,10.676 L15.884,10.676 L17.024,16.232 L18.272,10.676 L19.508,10.676 L20.696,16.232 L21.848,10.676 L22.904,10.676 Z M29.06,13.652 C29.06,13.8360009 29.0520001,14.023999 29.036,14.216 L25.004,14.216 C25.0520002,14.9120035 25.2279985,15.4239984 25.532,15.752 C25.8360015,16.0800016 26.2279976,16.244 26.708,16.244 C27.0120015,16.244 27.2919987,16.2000004 27.548,16.112 C27.8040013,16.0239996 28.0719986,15.884001 28.352,15.692 L28.832,16.352 C28.1599966,16.8800026 27.424004,17.144 26.624,17.144 C25.7439956,17.144 25.0580025,16.8560029 24.566,16.28 C24.0739975,15.7039971 23.828,14.912005 23.828,13.904 C23.828,13.2479967 23.9339989,12.6660025 24.146,12.158 C24.3580011,11.6499975 24.661998,11.2520014 25.058,10.964 C25.454002,10.6759986 25.9199973,10.532 26.456,10.532 C27.2960042,10.532 27.9399978,10.8079972 28.388,11.36 C28.8360022,11.9120028 29.06,12.6759951 29.06,13.652 Z M27.968,13.328 C27.968,12.7039969 27.8440012,12.2280016 27.596,11.9 C27.3479988,11.5719984 26.9760025,11.408 26.48,11.408 C25.5759955,11.408 25.0840004,12.0719934 25.004,13.4 L27.968,13.4 L27.968,13.328 Z M35.6,13.652 C35.6,13.8360009 35.5920001,14.023999 35.576,14.216 L31.544,14.216 C31.5920002,14.9120035 31.7679985,15.4239984 32.072,15.752 C32.3760015,16.0800016 32.7679976,16.244 33.248,16.244 C33.5520015,16.244 33.8319987,16.2000004 34.088,16.112 C34.3440013,16.0239996 34.6119986,15.884001 34.892,15.692 L35.372,16.352 C34.6999966,16.8800026 33.964004,17.144 33.164,17.144 C32.2839956,17.144 31.5980025,16.8560029 31.106,16.28 C30.6139975,15.7039971 30.368,14.912005 30.368,13.904 C30.368,13.2479967 30.4739989,12.6660025 30.686,12.158 C30.8980011,11.6499975 31.201998,11.2520014 31.598,10.964 C31.994002,10.6759986 32.4599973,10.532 32.996,10.532 C33.8360042,10.532 34.4799978,10.8079972 34.928,11.36 C35.3760022,11.9120028 35.6,12.6759951 35.6,13.652 Z M34.508,13.328 C34.508,12.7039969 34.3840012,12.2280016 34.136,11.9 C33.8879988,11.5719984 33.5160025,11.408 33.02,11.408 C32.1159955,11.408 31.6240004,12.0719934 31.544,13.4 L34.508,13.4 L34.508,13.328 Z M40.556,16.712 C40.1399979,17.0000014 39.6680026,17.144 39.14,17.144 C38.6039973,17.144 38.1860015,16.9900015 37.886,16.682 C37.5859985,16.3739985 37.436,15.9280029 37.436,15.344 L37.436,11.528 L36.332,11.528 L36.332,10.676 L37.436,10.676 L37.436,9.248 L38.54,9.116 L38.54,10.676 L40.04,10.676 L39.92,11.528 L38.54,11.528 L38.54,15.296 C38.54,15.6240016 38.5979994,15.8619993 38.714,16.01 C38.8300006,16.1580007 39.0239986,16.232 39.296,16.232 C39.5440012,16.232 39.8239984,16.1480008 40.136,15.98 L40.556,16.712 Z M46.592,10.532 C47.0240022,10.532 47.4119983,10.5919994 47.756,10.712 C48.1000017,10.8320006 48.4279984,11.0119988 48.74,11.252 L48.272,11.948 C47.9839986,11.7639991 47.7100013,11.6280004 47.45,11.54 C47.1899987,11.4519996 46.9160014,11.408 46.628,11.408 C46.2679982,11.408 45.984001,11.4819993 45.776,11.63 C45.567999,11.7780007 45.464,11.9799987 45.464,12.236 C45.464,12.4920013 45.561999,12.6919993 45.758,12.836 C45.954001,12.9800007 46.3079974,13.1199993 46.82,13.256 C47.5240035,13.4320009 48.0499983,13.6719985 48.398,13.976 C48.7460017,14.2800015 48.92,14.6959974 48.92,15.224 C48.92,15.8480031 48.6780024,16.3239984 48.194,16.652 C47.7099976,16.9800016 47.1200035,17.144 46.424,17.144 C45.4639952,17.144 44.6680032,16.8680028 44.036,16.316 L44.624,15.644 C45.1600027,16.052002 45.7519968,16.256 46.4,16.256 C46.8160021,16.256 47.1459988,16.1700009 47.39,15.998 C47.6340012,15.8259991 47.756,15.5920015 47.756,15.296 C47.756,15.0799989 47.7120004,14.9060007 47.624,14.774 C47.5359996,14.6419993 47.3840011,14.5260005 47.168,14.426 C46.9519989,14.3259995 46.6360021,14.2200006 46.22,14.108 C45.5479966,13.9319991 45.0620015,13.6960015 44.762,13.4 C44.4619985,13.1039985 44.312,12.7280023 44.312,12.272 C44.312,11.9439984 44.409999,11.6460013 44.606,11.378 C44.802001,11.1099987 45.0739983,10.9020007 45.422,10.754 C45.7700017,10.6059993 46.1599978,10.532 46.592,10.532 Z M53.384,10.532 C54.192004,10.532 54.7839981,10.8199971 55.16,11.396 C55.5360019,11.9720029 55.724,12.7839948 55.724,13.832 C55.724,14.824005 55.5080022,15.623997 55.076,16.232 C54.6439978,16.840003 54.032004,17.144 53.24,17.144 C52.5359965,17.144 51.984002,16.9040024 51.584,16.424 L51.584,19.424 L50.48,19.556 L50.48,10.676 L51.428,10.676 L51.512,11.528 C51.7440012,11.2079984 52.0239984,10.9620009 52.352,10.79 C52.6800016,10.6179991 53.0239982,10.532 53.384,10.532 Z M52.976,16.244 C54.0160052,16.244 54.536,15.440008 54.536,13.832 C54.536,12.2159919 54.0600048,11.408 53.108,11.408 C52.7959984,11.408 52.5120013,11.4999991 52.256,11.684 C51.9999987,11.8680009 51.776001,12.1039986 51.584,12.392 L51.584,15.476 C51.7440008,15.7240012 51.9439988,15.9139993 52.184,16.046 C52.4240012,16.1780007 52.6879986,16.244 52.976,16.244 Z M59.984,10.532 C60.8720044,10.532 61.5619975,10.827997 62.054,11.42 C62.5460025,12.012003 62.792,12.8159949 62.792,13.832 C62.792,14.4880033 62.6800011,15.0659975 62.456,15.566 C62.2319989,16.0660025 61.9080021,16.4539986 61.484,16.73 C61.0599979,17.0060014 60.5560029,17.144 59.972,17.144 C59.0839956,17.144 58.3920025,16.848003 57.896,16.256 C57.3999975,15.663997 57.152,14.8600051 57.152,13.844 C57.152,13.1879967 57.2639989,12.6100025 57.488,12.11 C57.7120011,11.6099975 58.0359979,11.2220014 58.46,10.946 C58.8840021,10.6699986 59.391997,10.532 59.984,10.532 Z M59.984,11.42 C58.8879945,11.42 58.34,12.2279919 58.34,13.844 C58.34,15.452008 58.8839946,16.256 59.972,16.256 C61.0600054,16.256 61.604,15.4480081 61.604,13.832 C61.604,12.223992 61.0640054,11.42 59.984,11.42 Z M67.808,16.712 C67.3919979,17.0000014 66.9200026,17.144 66.392,17.144 C65.8559973,17.144 65.4380015,16.9900015 65.138,16.682 C64.8379985,16.3739985 64.688,15.9280029 64.688,15.344 L64.688,11.528 L63.584,11.528 L63.584,10.676 L64.688,10.676 L64.688,9.248 L65.792,9.116 L65.792,10.676 L67.292,10.676 L67.172,11.528 L65.792,11.528 L65.792,15.296 C65.792,15.6240016 65.8499994,15.8619993 65.966,16.01 C66.0820006,16.1580007 66.2759986,16.232 66.548,16.232 C66.7960012,16.232 67.0759984,16.1480008 67.388,15.98 L67.808,16.712 Z M76.388,15.524 C76.388,15.7800013 76.4319996,15.9699994 76.52,16.094 C76.6080004,16.2180006 76.7399991,16.3119997 76.916,16.376 L76.664,17.144 C76.3359984,17.1039998 76.072001,17.0120007 75.872,16.868 C75.671999,16.7239993 75.5240005,16.5000015 75.428,16.196 C75.0039979,16.8280032 74.3760042,17.144 73.544,17.144 C72.9199969,17.144 72.4280018,16.9680018 72.068,16.616 C71.7079982,16.2639982 71.528,15.8040028 71.528,15.236 C71.528,14.5639966 71.7699976,14.0480018 72.254,13.688 C72.7380024,13.3279982 73.4239956,13.148 74.312,13.148 L75.284,13.148 L75.284,12.68 C75.284,12.2319978 75.1760011,11.912001 74.96,11.72 C74.7439989,11.527999 74.4120022,11.432 73.964,11.432 C73.4999977,11.432 72.9320034,11.5439989 72.26,11.768 L71.984,10.964 C72.7680039,10.6759986 73.4959966,10.532 74.168,10.532 C74.9120037,10.532 75.4679982,10.7139982 75.836,11.078 C76.2040018,11.4420018 76.388,11.9599966 76.388,12.632 L76.388,15.524 Z M73.796,16.316 C74.4280032,16.316 74.9239982,15.9880033 75.284,15.332 L75.284,13.88 L74.456,13.88 C73.2879942,13.88 72.704,14.3119957 72.704,15.176 C72.704,15.5520019 72.7959991,15.835999 72.98,16.028 C73.1640009,16.220001 73.4359982,16.316 73.796,16.316 Z M81.632,10.532 C82.2080029,10.532 82.6579984,10.7039983 82.982,11.048 C83.3060016,11.3920017 83.468,11.863997 83.468,12.464 L83.468,17 L82.364,17 L82.364,12.62 C82.364,12.1719978 82.2800008,11.8560009 82.112,11.672 C81.9439992,11.4879991 81.6960016,11.396 81.368,11.396 C81.0319983,11.396 80.7360013,11.491999 80.48,11.684 C80.2239987,11.876001 79.9840011,12.1519982 79.76,12.512 L79.76,17 L78.656,17 L78.656,10.676 L79.604,10.676 L79.7,11.612 C79.9240011,11.2759983 80.2019983,11.012001 80.534,10.82 C80.8660017,10.627999 81.231998,10.532 81.632,10.532 Z M89.948,15.524 C89.948,15.7800013 89.9919996,15.9699994 90.08,16.094 C90.1680004,16.2180006 90.2999991,16.3119997 90.476,16.376 L90.224,17.144 C89.8959984,17.1039998 89.632001,17.0120007 89.432,16.868 C89.231999,16.7239993 89.0840005,16.5000015 88.988,16.196 C88.5639979,16.8280032 87.9360042,17.144 87.104,17.144 C86.4799969,17.144 85.9880018,16.9680018 85.628,16.616 C85.2679982,16.2639982 85.088,15.8040028 85.088,15.236 C85.088,14.5639966 85.3299976,14.0480018 85.814,13.688 C86.2980024,13.3279982 86.9839956,13.148 87.872,13.148 L88.844,13.148 L88.844,12.68 C88.844,12.2319978 88.7360011,11.912001 88.52,11.72 C88.3039989,11.527999 87.9720022,11.432 87.524,11.432 C87.0599977,11.432 86.4920034,11.5439989 85.82,11.768 L85.544,10.964 C86.3280039,10.6759986 87.0559966,10.532 87.728,10.532 C88.4720037,10.532 89.0279982,10.7139982 89.396,11.078 C89.7640018,11.4420018 89.948,11.9599966 89.948,12.632 L89.948,15.524 Z M87.356,16.316 C87.9880032,16.316 88.4839982,15.9880033 88.844,15.332 L88.844,13.88 L88.016,13.88 C86.8479942,13.88 86.264,14.3119957 86.264,15.176 C86.264,15.5520019 86.3559991,15.835999 86.54,16.028 C86.7240009,16.220001 86.9959982,16.316 87.356,16.316 Z M93.356,17.144 C92.947998,17.144 92.6260012,17.0220012 92.39,16.778 C92.1539988,16.5339988 92.036,16.1920022 92.036,15.752 L92.036,8.132 L93.14,8 L93.14,15.728 C93.14,15.9040009 93.1699997,16.0319996 93.23,16.112 C93.2900003,16.1920004 93.3919993,16.232 93.536,16.232 C93.6880008,16.232 93.8239994,16.2080002 93.944,16.16 L94.232,16.928 C93.9679987,17.0720007 93.6760016,17.144 93.356,17.144 Z M98.024,17.036 C97.7759988,17.7720037 97.4300022,18.3539979 96.986,18.782 C96.5419978,19.2100021 95.9080041,19.4679996 95.084,19.556 L94.964,18.692 C95.3800021,18.6199996 95.7119988,18.5160007 95.96,18.38 C96.2080012,18.2439993 96.4059993,18.0700011 96.554,17.858 C96.7020007,17.6459989 96.8399994,17.3600018 96.968,17 L96.596,17 L94.472,10.676 L95.648,10.676 L97.34,16.196 L98.996,10.676 L100.136,10.676 L98.024,17.036 Z M103.028,10.532 C103.460002,10.532 103.847998,10.5919994 104.192,10.712 C104.536002,10.8320006 104.863998,11.0119988 105.176,11.252 L104.708,11.948 C104.419999,11.7639991 104.146001,11.6280004 103.886,11.54 C103.625999,11.4519996 103.352001,11.408 103.064,11.408 C102.703998,11.408 102.420001,11.4819993 102.212,11.63 C102.003999,11.7780007 101.9,11.9799987 101.9,12.236 C101.9,12.4920013 101.997999,12.6919993 102.194,12.836 C102.390001,12.9800007 102.743997,13.1199993 103.256,13.256 C103.960004,13.4320009 104.485998,13.6719985 104.834,13.976 C105.182002,14.2800015 105.356,14.6959974 105.356,15.224 C105.356,15.8480031 105.114002,16.3239984 104.63,16.652 C104.145998,16.9800016 103.556003,17.144 102.86,17.144 C101.899995,17.144 101.104003,16.8680028 100.472,16.316 L101.06,15.644 C101.596003,16.052002 102.187997,16.256 102.836,16.256 C103.252002,16.256 103.581999,16.1700009 103.826,15.998 C104.070001,15.8259991 104.192,15.5920015 104.192,15.296 C104.192,15.0799989 104.148,14.9060007 104.06,14.774 C103.972,14.6419993 103.820001,14.5260005 103.604,14.426 C103.387999,14.3259995 103.072002,14.2200006 102.656,14.108 C101.983997,13.9319991 101.498001,13.6960015 101.198,13.4 C100.897998,13.1039985 100.748,12.7280023 100.748,12.272 C100.748,11.9439984 100.845999,11.6460013 101.042,11.378 C101.238001,11.1099987 101.509998,10.9020007 101.858,10.754 C102.206002,10.6059993 102.595998,10.532 103.028,10.532 Z M108.02,10.676 L108.02,17 L106.916,17 L106.916,10.676 L108.02,10.676 Z M107.456,7.64 C107.688,7.64 107.875999,7.71199928 108.02,7.856 C108.164001,8.00000072 108.236,8.17999892 108.236,8.396 C108.236,8.61200108 108.164001,8.7899993 108.02,8.93 C107.875999,9.0700007 107.688,9.14 107.456,9.14 C107.231999,9.14 107.048001,9.0700007 106.904,8.93 C106.759999,8.7899993 106.688,8.61200108 106.688,8.396 C106.688,8.17999892 106.759999,8.00000072 106.904,7.856 C107.048001,7.71199928 107.231999,7.64 107.456,7.64 Z M112.016,10.532 C112.448002,10.532 112.835998,10.5919994 113.18,10.712 C113.524002,10.8320006 113.851998,11.0119988 114.164,11.252 L113.696,11.948 C113.407999,11.7639991 113.134001,11.6280004 112.874,11.54 C112.613999,11.4519996 112.340001,11.408 112.052,11.408 C111.691998,11.408 111.408001,11.4819993 111.2,11.63 C110.991999,11.7780007 110.888,11.9799987 110.888,12.236 C110.888,12.4920013 110.985999,12.6919993 111.182,12.836 C111.378001,12.9800007 111.731997,13.1199993 112.244,13.256 C112.948004,13.4320009 113.473998,13.6719985 113.822,13.976 C114.170002,14.2800015 114.344,14.6959974 114.344,15.224 C114.344,15.8480031 114.102002,16.3239984 113.618,16.652 C113.133998,16.9800016 112.544003,17.144 111.848,17.144 C110.887995,17.144 110.092003,16.8680028 109.46,16.316 L110.048,15.644 C110.584003,16.052002 111.175997,16.256 111.824,16.256 C112.240002,16.256 112.569999,16.1700009 112.814,15.998 C113.058001,15.8259991 113.18,15.5920015 113.18,15.296 C113.18,15.0799989 113.136,14.9060007 113.048,14.774 C112.96,14.6419993 112.808001,14.5260005 112.592,14.426 C112.375999,14.3259995 112.060002,14.2200006 111.644,14.108 C110.971997,13.9319991 110.486001,13.6960015 110.186,13.4 C109.885998,13.1039985 109.736,12.7280023 109.736,12.272 C109.736,11.9439984 109.833999,11.6460013 110.03,11.378 C110.226001,11.1099987 110.497998,10.9020007 110.846,10.754 C111.194002,10.6059993 111.583998,10.532 112.016,10.532 Z" id="Sweetspotanalysis" fill="#FFFFFF" fill-rule="nonzero"></path>
        <rect id="Rectangle" fill="#EFEFEF" x="10" y="37" width="104" height="70"></rect>
        <rect id="Rectangle" fill="#B5BAC2" x="89" y="72" width="25" height="35"></rect>
        <rect id="Rectangle" fill="#B5BAC2" x="64" y="37" width="25" height="35"></rect>
        <rect id="Rectangle" fill="#818B9C" x="89" y="37" width="25" height="35"></rect>
        <rect id="Rectangle" fill="#818B9C" x="64" y="72" width="25" height="35"></rect>
    </g>
</svg>