<?xml version="1.0" encoding="UTF-8"?>
<svg width="124px" height="124px" viewBox="0 0 124 124" version="1.1" xmlns="http://www.w3.org/2000/svg" xmlns:xlink="http://www.w3.org/1999/xlink">
    <!-- Generator: Sketch 54.1 (76490) - https://sketchapp.com -->
    <title>layout-well-correlation</title>
    <desc>Created with Sketch.</desc>
    <g id="layout-well-correlation" stroke="none" stroke-width="1" fill="none" fill-rule="evenodd">
        <g id="Group-4" fill="#393939">
            <rect id="Rectangle" x="0" y="0" width="124" height="124" rx="4"></rect>
        </g>
        <path d="M17.612,8.732 L15.932,17 L14.468,17 L12.944,10.076 L11.408,17 L9.98,17 L8.3,8.732 L9.416,8.732 L10.748,16.004 L12.344,8.732 L13.556,8.732 L15.188,16.004 L16.568,8.732 L17.612,8.732 Z M23.708,13.652 C23.708,13.8360009 23.7000001,14.023999 23.684,14.216 L19.652,14.216 C19.7000002,14.9120035 19.8759985,15.4239984 20.18,15.752 C20.4840015,16.0800016 20.8759976,16.244 21.356,16.244 C21.6600015,16.244 21.9399987,16.2000004 22.196,16.112 C22.4520013,16.0239996 22.7199986,15.884001 23,15.692 L23.48,16.352 C22.8079966,16.8800026 22.072004,17.144 21.272,17.144 C20.3919956,17.144 19.7060025,16.8560029 19.214,16.28 C18.7219975,15.7039971 18.476,14.912005 18.476,13.904 C18.476,13.2479967 18.5819989,12.6660025 18.794,12.158 C19.0060011,11.6499975 19.309998,11.2520014 19.706,10.964 C20.102002,10.6759986 20.5679973,10.532 21.104,10.532 C21.9440042,10.532 22.5879978,10.8079972 23.036,11.36 C23.4840022,11.9120028 23.708,12.6759951 23.708,13.652 Z M22.616,13.328 C22.616,12.7039969 22.4920012,12.2280016 22.244,11.9 C21.9959988,11.5719984 21.6240025,11.408 21.128,11.408 C20.2239955,11.408 19.7320004,12.0719934 19.652,13.4 L22.616,13.4 L22.616,13.328 Z M26.732,17.144 C26.323998,17.144 26.0020012,17.0220012 25.766,16.778 C25.5299988,16.5339988 25.412,16.1920022 25.412,15.752 L25.412,8.132 L26.516,8 L26.516,15.728 C26.516,15.9040009 26.5459997,16.0319996 26.606,16.112 C26.6660003,16.1920004 26.7679993,16.232 26.912,16.232 C27.0640008,16.232 27.1999994,16.2080002 27.32,16.16 L27.608,16.928 C27.3439987,17.0720007 27.0520016,17.144 26.732,17.144 Z M30.248,17.144 C29.839998,17.144 29.5180012,17.0220012 29.282,16.778 C29.0459988,16.5339988 28.928,16.1920022 28.928,15.752 L28.928,8.132 L30.032,8 L30.032,15.728 C30.032,15.9040009 30.0619997,16.0319996 30.122,16.112 C30.1820003,16.1920004 30.2839993,16.232 30.428,16.232 C30.5800008,16.232 30.7159994,16.2080002 30.836,16.16 L31.124,16.928 C30.8599987,17.0720007 30.5680016,17.144 30.248,17.144 Z M37.988,10.532 C38.3640019,10.532 38.7079984,10.5859995 39.02,10.694 C39.3320016,10.8020005 39.6319986,10.9759988 39.92,11.216 L39.392,11.912 C39.1679989,11.7519992 38.9500011,11.6340004 38.738,11.558 C38.5259989,11.4819996 38.2920013,11.444 38.036,11.444 C37.5239974,11.444 37.1260014,11.647998 36.842,12.056 C36.5579986,12.464002 36.416,13.067996 36.416,13.868 C36.416,14.668004 36.5559986,15.2579981 36.836,15.638 C37.1160014,16.0180019 37.5159974,16.208 38.036,16.208 C38.2840012,16.208 38.511999,16.1700004 38.72,16.094 C38.928001,16.0179996 39.1599987,15.8960008 39.416,15.728 L39.92,16.448 C39.3439971,16.9120023 38.7000036,17.144 37.988,17.144 C37.1319957,17.144 36.4580025,16.8560029 35.966,16.28 C35.4739975,15.7039971 35.228,14.9080051 35.228,13.892 C35.228,13.2199966 35.3399989,12.6320025 35.564,12.128 C35.7880011,11.6239975 36.1059979,11.2320014 36.518,10.952 C36.9300021,10.6719986 37.4199972,10.532 37.988,10.532 Z M43.556,10.532 C44.4440044,10.532 45.1339975,10.827997 45.626,11.42 C46.1180025,12.012003 46.364,12.8159949 46.364,13.832 C46.364,14.4880033 46.2520011,15.0659975 46.028,15.566 C45.8039989,16.0660025 45.4800021,16.4539986 45.056,16.73 C44.6319979,17.0060014 44.1280029,17.144 43.544,17.144 C42.6559956,17.144 41.9640025,16.848003 41.468,16.256 C40.9719975,15.663997 40.724,14.8600051 40.724,13.844 C40.724,13.1879967 40.8359989,12.6100025 41.06,12.11 C41.2840011,11.6099975 41.6079979,11.2220014 42.032,10.946 C42.4560021,10.6699986 42.963997,10.532 43.556,10.532 Z M43.556,11.42 C42.4599945,11.42 41.912,12.2279919 41.912,13.844 C41.912,15.452008 42.4559946,16.256 43.544,16.256 C44.6320054,16.256 45.176,15.4480081 45.176,13.832 C45.176,12.223992 44.6360054,11.42 43.556,11.42 Z M50.936,10.532 C51.1600011,10.532 51.367999,10.5559998 51.56,10.604 L51.356,11.684 C51.163999,11.6359998 50.9800009,11.612 50.804,11.612 C50.411998,11.612 50.0960012,11.7559986 49.856,12.044 C49.6159988,12.3320014 49.4280007,12.779997 49.292,13.388 L49.292,17 L48.188,17 L48.188,10.676 L49.136,10.676 L49.244,11.96 C49.4120008,11.4879976 49.6399986,11.1320012 49.928,10.892 C50.2160014,10.6519988 50.5519981,10.532 50.936,10.532 Z M55.568,10.532 C55.7920011,10.532 55.999999,10.5559998 56.192,10.604 L55.988,11.684 C55.795999,11.6359998 55.6120009,11.612 55.436,11.612 C55.043998,11.612 54.7280012,11.7559986 54.488,12.044 C54.2479988,12.3320014 54.0600007,12.779997 53.924,13.388 L53.924,17 L52.82,17 L52.82,10.676 L53.768,10.676 L53.876,11.96 C54.0440008,11.4879976 54.2719986,11.1320012 54.56,10.892 C54.8480014,10.6519988 55.1839981,10.532 55.568,10.532 Z M61.868,13.652 C61.868,13.8360009 61.8600001,14.023999 61.844,14.216 L57.812,14.216 C57.8600002,14.9120035 58.0359985,15.4239984 58.34,15.752 C58.6440015,16.0800016 59.0359976,16.244 59.516,16.244 C59.8200015,16.244 60.0999987,16.2000004 60.356,16.112 C60.6120013,16.0239996 60.8799986,15.884001 61.16,15.692 L61.64,16.352 C60.9679966,16.8800026 60.232004,17.144 59.432,17.144 C58.5519956,17.144 57.8660025,16.8560029 57.374,16.28 C56.8819975,15.7039971 56.636,14.912005 56.636,13.904 C56.636,13.2479967 56.7419989,12.6660025 56.954,12.158 C57.1660011,11.6499975 57.469998,11.2520014 57.866,10.964 C58.262002,10.6759986 58.7279973,10.532 59.264,10.532 C60.1040042,10.532 60.7479978,10.8079972 61.196,11.36 C61.6440022,11.9120028 61.868,12.6759951 61.868,13.652 Z M60.776,13.328 C60.776,12.7039969 60.6520012,12.2280016 60.404,11.9 C60.1559988,11.5719984 59.7840025,11.408 59.288,11.408 C58.3839955,11.408 57.8920004,12.0719934 57.812,13.4 L60.776,13.4 L60.776,13.328 Z M64.892,17.144 C64.483998,17.144 64.1620012,17.0220012 63.926,16.778 C63.6899988,16.5339988 63.572,16.1920022 63.572,15.752 L63.572,8.132 L64.676,8 L64.676,15.728 C64.676,15.9040009 64.7059997,16.0319996 64.766,16.112 C64.8260003,16.1920004 64.9279993,16.232 65.072,16.232 C65.2240008,16.232 65.3599994,16.2080002 65.48,16.16 L65.768,16.928 C65.5039987,17.0720007 65.2120016,17.144 64.892,17.144 Z M71.348,15.524 C71.348,15.7800013 71.3919996,15.9699994 71.48,16.094 C71.5680004,16.2180006 71.6999991,16.3119997 71.876,16.376 L71.624,17.144 C71.2959984,17.1039998 71.032001,17.0120007 70.832,16.868 C70.631999,16.7239993 70.4840005,16.5000015 70.388,16.196 C69.9639979,16.8280032 69.3360042,17.144 68.504,17.144 C67.8799969,17.144 67.3880018,16.9680018 67.028,16.616 C66.6679982,16.2639982 66.488,15.8040028 66.488,15.236 C66.488,14.5639966 66.7299976,14.0480018 67.214,13.688 C67.6980024,13.3279982 68.3839956,13.148 69.272,13.148 L70.244,13.148 L70.244,12.68 C70.244,12.2319978 70.1360011,11.912001 69.92,11.72 C69.7039989,11.527999 69.3720022,11.432 68.924,11.432 C68.4599977,11.432 67.8920034,11.5439989 67.22,11.768 L66.944,10.964 C67.7280039,10.6759986 68.4559966,10.532 69.128,10.532 C69.8720037,10.532 70.4279982,10.7139982 70.796,11.078 C71.1640018,11.4420018 71.348,11.9599966 71.348,12.632 L71.348,15.524 Z M68.756,16.316 C69.3880032,16.316 69.8839982,15.9880033 70.244,15.332 L70.244,13.88 L69.416,13.88 C68.2479942,13.88 67.664,14.3119957 67.664,15.176 C67.664,15.5520019 67.7559991,15.835999 67.94,16.028 C68.1240009,16.220001 68.3959982,16.316 68.756,16.316 Z M76.808,16.712 C76.3919979,17.0000014 75.9200026,17.144 75.392,17.144 C74.8559973,17.144 74.4380015,16.9900015 74.138,16.682 C73.8379985,16.3739985 73.688,15.9280029 73.688,15.344 L73.688,11.528 L72.584,11.528 L72.584,10.676 L73.688,10.676 L73.688,9.248 L74.792,9.116 L74.792,10.676 L76.292,10.676 L76.172,11.528 L74.792,11.528 L74.792,15.296 C74.792,15.6240016 74.8499994,15.8619993 74.966,16.01 C75.0820006,16.1580007 75.2759986,16.232 75.548,16.232 C75.7960012,16.232 76.0759984,16.1480008 76.388,15.98 L76.808,16.712 Z M79.052,10.676 L79.052,17 L77.948,17 L77.948,10.676 L79.052,10.676 Z M78.488,7.64 C78.72,7.64 78.9079993,7.71199928 79.052,7.856 C79.1960007,8.00000072 79.268,8.17999892 79.268,8.396 C79.268,8.61200108 79.1960007,8.7899993 79.052,8.93 C78.9079993,9.0700007 78.72,9.14 78.488,9.14 C78.2639989,9.14 78.0800007,9.0700007 77.936,8.93 C77.7919993,8.7899993 77.72,8.61200108 77.72,8.396 C77.72,8.17999892 77.7919993,8.00000072 77.936,7.856 C78.0800007,7.71199928 78.2639989,7.64 78.488,7.64 Z M83.708,10.532 C84.5960044,10.532 85.2859975,10.827997 85.778,11.42 C86.2700025,12.012003 86.516,12.8159949 86.516,13.832 C86.516,14.4880033 86.4040011,15.0659975 86.18,15.566 C85.9559989,16.0660025 85.6320021,16.4539986 85.208,16.73 C84.7839979,17.0060014 84.2800029,17.144 83.696,17.144 C82.8079956,17.144 82.1160025,16.848003 81.62,16.256 C81.1239975,15.663997 80.876,14.8600051 80.876,13.844 C80.876,13.1879967 80.9879989,12.6100025 81.212,12.11 C81.4360011,11.6099975 81.7599979,11.2220014 82.184,10.946 C82.6080021,10.6699986 83.115997,10.532 83.708,10.532 Z M83.708,11.42 C82.6119945,11.42 82.064,12.2279919 82.064,13.844 C82.064,15.452008 82.6079946,16.256 83.696,16.256 C84.7840054,16.256 85.328,15.4480081 85.328,13.832 C85.328,12.223992 84.7880054,11.42 83.708,11.42 Z M91.316,10.532 C91.8920029,10.532 92.3419984,10.7039983 92.666,11.048 C92.9900016,11.3920017 93.152,11.863997 93.152,12.464 L93.152,17 L92.048,17 L92.048,12.62 C92.048,12.1719978 91.9640008,11.8560009 91.796,11.672 C91.6279992,11.4879991 91.3800016,11.396 91.052,11.396 C90.7159983,11.396 90.4200013,11.491999 90.164,11.684 C89.9079987,11.876001 89.6680011,12.1519982 89.444,12.512 L89.444,17 L88.34,17 L88.34,10.676 L89.288,10.676 L89.384,11.612 C89.6080011,11.2759983 89.8859983,11.012001 90.218,10.82 C90.5500017,10.627999 90.915998,10.532 91.316,10.532 Z M106.004,17 L104.9,17 L104.612,13.268 C104.491999,11.8039927 104.424,10.6800039 104.408,9.896 L102.62,16.064 L101.552,16.064 L99.668,9.884 C99.668,10.884005 99.6160005,12.0399934 99.512,13.352 L99.236,17 L98.156,17 L98.84,8.732 L100.376,8.732 L102.116,14.744 L103.772,8.732 L105.32,8.732 L106.004,17 Z M109.088,8.732 L109.088,16.004 L112.484,16.004 L112.352,17 L107.948,17 L107.948,8.732 L109.088,8.732 Z" id="WellcorrelationML" fill="#FFFFFF" fill-rule="nonzero"></path>
        <rect id="Rectangle" fill="#EFEFEF" x="10" y="37" width="104" height="70"></rect>
        <rect id="Rectangle" fill="#B5BAC2" x="10" y="37" width="52" height="35"></rect>
        <rect id="Rectangle" fill="#818B9C" x="62" y="37" width="52" height="35"></rect>
    </g>
</svg>