<?xml version="1.0" encoding="UTF-8"?>
<svg width="20px" height="20px" viewBox="0 0 20 20" version="1.1" xmlns="http://www.w3.org/2000/svg" xmlns:xlink="http://www.w3.org/1999/xlink">
    <!-- Generator: Sketch 54.1 (76490) - https://sketchapp.com -->
    <title>icon/notification</title>
    <desc>Created with Sketch.</desc>
    <defs>
        <path d="M4.1499023,16.1992188 L4.1499023,10.7001954 C4.1499023,7.5 6.75,4.8994141 9.9501953,4.8994141 C13.1503906,4.8994141 15.75,7.5 15.75,10.7001953 L15.75,16.1992188 L4.1499023,16.1992188 L4.1499023,16.1992188 Z M9.9501953,1.5 C10.3500976,1.5 10.6499023,1.7998047 10.6499023,2.2001953 C10.6499023,2.6005859 10.3500976,2.8994141 9.9501953,2.8994141 C9.5498047,2.8994141 9.25,2.6005859 9.25,2.2001953 C9.25,1.7998047 9.5498047,1.5 9.9501953,1.5 Z M17.3496094,16.1992188 L17.3496094,10.7001954 C17.3496094,7.2998048 14.9501953,4.3994142 11.75,3.600586 C12.0498047,3.2001954 12.25,2.7001954 12.25,2.2001954 C12.1503906,1 11.1503906,0 9.9501953,0 C8.75,0 7.75,1 7.75,2.2001953 C7.75,2.7001953 7.9501953,3.2001953 8.25,3.6005859 C4.9501953,4.399414 2.5498047,7.2998047 2.5498047,10.7001953 L2.5498047,16.1992187 L0.75,16.1992187 L0.75,17.6992187 L7.3500977,17.6992187 C7.5498047,19 8.6499023,20 9.9501953,20 C11.25,20 12.3496094,19 12.6503906,17.7988281 L19.25,17.7988281 L19.25,16.1992187 L17.3496094,16.1992187 L17.3496094,16.1992188 Z" id="path-1"></path>
    </defs>
    <g id="icon/notification" stroke="none" stroke-width="1" fill="none" fill-rule="evenodd">
        <g id="colour/white">
            <mask id="mask-2" fill="white">
                <use xlink:href="#path-1"></use>
            </mask>
            <use id="Mask" fill="#000000" fill-rule="nonzero" xlink:href="#path-1"></use>
            <g mask="url(#mask-2)" fill="#FFFFFF" id="Rectangle-Copy">
                <rect x="0" y="0" width="20" height="20"></rect>
            </g>
        </g>
    </g>
</svg>