<?xml version="1.0" encoding="UTF-8"?>
<svg width="20px" height="20px" viewBox="0 0 20 20" version="1.1" xmlns="http://www.w3.org/2000/svg" xmlns:xlink="http://www.w3.org/1999/xlink">
    <!-- Generator: Sketch 54.1 (76490) - https://sketchapp.com -->
    <title>icon/profile</title>
    <desc>Created with Sketch.</desc>
    <defs>
        <path d="M16.7001953,15.2001953 C16,13.0996094 14.5,11.5 12.5996094,10.7998047 C13.5,10 14.0996094,8.9003906 14.0996094,7.5996094 C14.0996094,5.2998047 12.2998047,3.5 10,3.5 C7.7001953,3.5 5.9003906,5.2998047 5.9003906,7.5996094 C5.9003906,8.9003906 6.5,10 7.4003906,10.7998047 C5.5,11.5996094 4,13.2001953 3.2998047,15.2001953 C2.2001953,13.7998047 1.5,11.9003906 1.5,9.9003906 C1.5,5.2001953 5.2998047,1.4003906 10,1.4003906 C14.7001953,1.4003906 18.5,5.2001953 18.5,9.9003906 C18.5,11.9003906 17.9003906,13.7998047 16.7001953,15.2001953 Z M10,10.2001953 C8.5996094,10.2001953 7.4003906,9 7.4003906,7.5996094 C7.4003906,6.2001953 8.5996094,5 10,5 C11.4003906,5 12.5996094,6.2001953 12.5996094,7.5996094 C12.5996094,9 11.5,10.2001953 10,10.2001953 Z M4.5996094,16.5 C5.2001953,13.7998047 7.4003906,11.7998047 10,11.7998047 C12.5996094,11.7998047 14.9003906,13.7998047 15.4003906,16.5 C13.9003906,17.7001953 12,18.5 10,18.5 C8,18.5 6.0996094,17.7001953 4.5996094,16.5 Z M10,0 C4.5,0 0,4.5 0,10 C0,15.5 4.5,20 10,20 C15.5,20 20,15.5 20,10 C20,4.5 15.5996094,0 10,0 Z" id="path-1"></path>
    </defs>
    <g id="icon/profile" stroke="none" stroke-width="1" fill="none" fill-rule="evenodd">
        <g id="colour/white">
            <mask id="mask-2" fill="white">
                <use xlink:href="#path-1"></use>
            </mask>
            <use id="Mask" fill="#000000" fill-rule="nonzero" xlink:href="#path-1"></use>
            <g mask="url(#mask-2)" fill="#FFFFFF" id="Rectangle-Copy">
                <rect x="0" y="0" width="20" height="20"></rect>
            </g>
        </g>
    </g>
</svg>