<?xml version="1.0" encoding="UTF-8"?>
<svg width="20px" height="20px" viewBox="0 0 20 20" version="1.1" xmlns="http://www.w3.org/2000/svg" xmlns:xlink="http://www.w3.org/1999/xlink">
    <!-- Generator: Sketch 54.1 (76490) - https://sketchapp.com -->
    <title>icon/timeline</title>
    <desc>Created with Sketch.</desc>
    <defs>
        <path d="M10.1376953,1.8168945 L10.1455078,8.2451172 L15.8105469,10.9726562 L15.1582031,12.3300781 L8.640625,9.1933594 L8.6318359,1.8188477 L10.1376953,1.8168945 Z M1.5058594,8.2128906 C1.5058594,12.7792969 5.2207031,16.4941406 9.7871094,16.4941406 L9.7871094,18 C4.3916016,18 0,13.609375 0,8.2128906 C0,2.815918 4.3916016,-1.5756836 9.7871094,-1.5756836 C11.5429687,-1.5756836 13.2216797,-1.112793 14.7080078,-0.2426758 L15.8896484,-2 L16.9033203,2.3041993 L12.7734375,2.6362305 L13.8623047,1.0151367 C12.625,0.3105469 11.2402344,-0.0698242 9.7871094,-0.0698242 C5.2207032,-0.0698242 1.5058594,3.6450195 1.5058594,8.2128906 Z M18.0214844,5.0664062 C17.4921875,5.0664062 17.0605469,4.6347656 17.0605469,4.1054687 C17.0605469,3.5771484 17.4921875,3.1450195 18.0214844,3.1450195 C18.5517578,3.1450195 18.9824219,3.5771484 18.9824219,4.1054687 C18.9824219,4.6347656 18.5517578,5.0664062 18.0214844,5.0664062 Z M17.9287109,6.534668 C17.9287109,6.0063477 18.3583984,5.5742188 18.8886718,5.5742188 C19.4179686,5.5742188 19.8486327,6.0063477 19.8486327,6.534668 C19.8486327,7.0639649 19.4179687,7.4951172 18.8886718,7.4951172 C18.3583984,7.4951172 17.9287109,7.0639649 17.9287109,6.534668 Z M19.0390625,8.3950195 C19.5683594,8.3950195 20,8.8261719 20,9.3554688 C20,9.8837891 19.5683594,10.3144531 19.0390625,10.3144531 C18.5107422,10.3144531 18.078125,9.883789 18.078125,9.3554687 C18.078125,8.8261718 18.5107422,8.3950195 19.0390625,8.3950195 Z M18.3496094,10.9746094 C18.8789062,10.9746094 19.3105469,11.40625 19.3105469,11.9345703 C19.3105469,12.4638672 18.8789062,12.8955078 18.3496094,12.8955078 C17.8203126,12.8955078 17.3896485,12.4638672 17.3896485,11.9345703 C17.3896485,11.40625 17.8203125,10.9746094 18.3496094,10.9746094 Z M16.8339844,13.28125 C17.3642578,13.28125 17.7939453,13.7138672 17.7939453,14.2421875 C17.7939453,14.7714844 17.3642578,15.2011719 16.8339844,15.2011719 C16.3046875,15.2011719 15.8730469,14.7714844 15.8730469,14.2421875 C15.8730469,13.7138672 16.3046875,13.28125 16.8339844,13.28125 Z M14.5761719,15.0996094 C15.1054688,15.0996094 15.5371094,15.53125 15.5371094,16.0605469 C15.5371094,16.5888672 15.1054688,17.0185547 14.5761719,17.0185547 C14.046875,17.0185547 13.6152344,16.5888672 13.6152344,16.0605469 C13.6152344,15.53125 14.046875,15.0996094 14.5761719,15.0996094 Z M11.7275391,16.0673828 C12.2568359,16.0673828 12.6884766,16.4980469 12.6884766,17.0273437 C12.6884766,17.555664 12.256836,17.9863281 11.7275391,17.9863281 C11.1972657,17.9863281 10.7666016,17.555664 10.7666016,17.0273437 C10.7666016,16.4980469 11.1972657,16.0673828 11.7275391,16.0673828 Z" id="path-1"></path>
    </defs>
    <g id="icon/timeline" stroke="none" stroke-width="1" fill="none" fill-rule="evenodd">
        <g id="colour/white" transform="translate(0.000000, 2.000000)">
            <mask id="mask-2" fill="white">
                <use xlink:href="#path-1"></use>
            </mask>
            <use id="Mask" fill="#000000" xlink:href="#path-1"></use>
            <g mask="url(#mask-2)" fill="#FFFFFF" id="Rectangle-Copy">
                <g transform="translate(0.000000, -2.000000)">
                    <rect x="0" y="0" width="20" height="20"></rect>
                </g>
            </g>
        </g>
    </g>
</svg>